<mxfile host="app.diagrams.net" agent="Mozilla/5.0 (Windows NT 10.0; Win64; x64) AppleWebKit/537.36 (KHTML, like Gecko) Chrome/131.0.0.0 Safari/537.36" version="24.8.6">
  <diagram name="Page-1" id="vxwRr9nxMJoIsbTJn7ci">
    <mxGraphModel dx="1050" dy="565" grid="1" gridSize="10" guides="1" tooltips="1" connect="1" arrows="1" fold="1" page="1" pageScale="1" pageWidth="850" pageHeight="1100" math="0" shadow="0">
      <root>
        <mxCell id="0" />
        <mxCell id="1" parent="0" />
        <mxCell id="yg_PSwLpjxKoN4KXuRmd-3" value="" style="edgeStyle=orthogonalEdgeStyle;rounded=0;orthogonalLoop=1;jettySize=auto;html=1;" edge="1" parent="1" source="yg_PSwLpjxKoN4KXuRmd-1" target="yg_PSwLpjxKoN4KXuRmd-2">
          <mxGeometry relative="1" as="geometry" />
        </mxCell>
        <mxCell id="yg_PSwLpjxKoN4KXuRmd-4" value="Fetched using Google&amp;nbsp;&lt;div&gt;youtube api v3&lt;/div&gt;" style="edgeLabel;html=1;align=center;verticalAlign=middle;resizable=0;points=[];" vertex="1" connectable="0" parent="yg_PSwLpjxKoN4KXuRmd-3">
          <mxGeometry x="-0.105" y="-1" relative="1" as="geometry">
            <mxPoint as="offset" />
          </mxGeometry>
        </mxCell>
        <mxCell id="yg_PSwLpjxKoN4KXuRmd-1" value="Youtube Comments" style="rounded=0;whiteSpace=wrap;html=1;" vertex="1" parent="1">
          <mxGeometry x="110" y="140" width="120" height="60" as="geometry" />
        </mxCell>
        <mxCell id="yg_PSwLpjxKoN4KXuRmd-6" value="" style="edgeStyle=orthogonalEdgeStyle;rounded=0;orthogonalLoop=1;jettySize=auto;html=1;" edge="1" parent="1" source="yg_PSwLpjxKoN4KXuRmd-2" target="yg_PSwLpjxKoN4KXuRmd-5">
          <mxGeometry relative="1" as="geometry" />
        </mxCell>
        <mxCell id="yg_PSwLpjxKoN4KXuRmd-2" value="Airflow for processing and refining the comments (using AWS EC2 instance)" style="rounded=0;whiteSpace=wrap;html=1;" vertex="1" parent="1">
          <mxGeometry x="460" y="140" width="120" height="60" as="geometry" />
        </mxCell>
        <mxCell id="yg_PSwLpjxKoN4KXuRmd-5" value="Refined comments saved in the form of csv in s3 bucket" style="rounded=0;whiteSpace=wrap;html=1;" vertex="1" parent="1">
          <mxGeometry x="660" y="140" width="120" height="60" as="geometry" />
        </mxCell>
        <mxCell id="yg_PSwLpjxKoN4KXuRmd-7" value="" style="shape=image;verticalLabelPosition=bottom;labelBackgroundColor=default;verticalAlign=top;aspect=fixed;imageAspect=0;image=data:image/png,iVBORw0KGgoAAAANSUhEUgAAAUoAAADPCAYAAACTI5jaAAAAAXNSR0IArs4c6QAAAARnQU1BAACxjwv8YQUAAAAJcEhZcwAAEnQAABJ0Ad5mH3gAADC1SURBVHhe7Z0JmCRFmff/lXV2VVffPdNzD3NfnDMgM1yiDAwgoAKCgoqogJyK7j4fn7ri6h6erK7I6vetPp8PXiuKsIcCwgKCKJcszH0yZ18zfVV33Vn1vf/Iyp7qnmqy53Bgut/fTHRVRUZGXpH/eN+IyEhfKpUqQlEURRkRq/SpKIqijIAKpaIoigcqlIqiKB6oUCqKonigQqkoiuKBCqWiKIoHvr6+Ph0epCiK8gaoRakoiuKBCqWiKIoHKpSKoigeqFAqiqJ4oEKpKIrigQqloiiKByqUiqIoHqhQKoqieKBCqSiK4oEKpaIoigcqlIqiKB6oUCqKonigQqkoiuKBCqWiKIoHKpSKoigeqFAqiqJ4oEKpKIrigQqloiiKByqUiqIoHqhQKoqieKBCqSiK4oEKpaIoigcqlIqiKB6oUCqKonigQqkoiuKBCqWiKIoHKpSKoigeqFAqiqJ4oEKpKIrigQqloiiKByqUiqIoHqhQKoqieKBCqSiK4oEKpaIoigcqlIqiKB6oUCqKonigQqkoiuKBCqWiKIoHKpSKoigeqFAqiqJ4oEKpKIrigQqloiiKByqUiqIoHqhQKoqieKBCqSiK4oEKpaIoigcqlIqiKB6oUCqKonigQqkoiuKBCqWiKIoHKpSKoigeqFAqiqJ4oEKpKIrigQqloiiKByqUiqIoHqhQKoqieKBCqSiK4oEKpaIoigcqlIqiKB6oUCqKonigQqkoiuKBCqWiKIoHKpSKoigeqFAqiqJ4oEKpKIrigQqloiiKByqUiqIoHqhQKoqieKBCqSiK4oEKpaIoigcqlIqiKB6oUCqKonigQqkoiuKBCqWiKIoHvr6+vmLpu6Iof1HkVvP5JLwF7JOi7Eux4OwPJPB3JXxMZ76Yn+MVFUpFOVyM+PlE/yz5qCwo5dJITSpIMks+mbpYsFG080aQfPJ9kIIIWd6JH5VOSTrbkoR+P/yyL0X5tIJ+s3sF+CU4mfgl8JvkboKbtfvJzbkUzc7K/hXKY8cfKpSKcqiIsvj8AViiRIV0Frm+XtgDvUAqAyubQzGXFa0ToaMaSRzyTlxRPm2x5ixbpCubRzErcSKUVtGGLd9B0aRcUaRyObOp0VD0BWCLOFKwLYpkJGKE0iwLhVAIR8x3fyBo9rtIyzYYhBWVeDkGKxAwvwuRMKzqOALxOILxWrOOzX0ax2KpQqkohwItSBFKu38Admsb8tteR3a7hJ52+HoH4B9IopAaEINQhE8SFhPyO50SkRRRFLG0JRiSIqCZnCQpIiBCmc5IfD4jHi8tS9p47u3p2nvllN+6Itb+sNkWo320KkvCaJJFQkCVBMEfCsMXCEkQkayKwhePigiKzcn0sSoUYjGgrgHhaVMQOm4eQlOnw6qvdYRUxN1sg8c0krs+BlGhVJRDwMhWMonupx5DzwMPwn7ueYQSCQRr485C3lUUEr+4wCI+Q0StXGDM17LfYg0al9vonYgx2xG5mPGE67ppyvNhest1qrmmwDQuFLdB5Lv70wirpB9IOyIorntBrOGcVADF+iiy02aheuWFaLrkXQjNmgU/Ny8CW5B0dnkzwRhHhVJRDgYRFr9YVrnWdnTc/2NkHnsIvs5O+G0RGxEmH9sIqULmU3CFrWSFDRUsgcsZhi03Gsjokj5WZLhYihVpYJwrkmbbjHN+DtfOwd2hSJpEEsE2yVweRb98t33i/dvwLV6M+js/ibplb4M/GBJX3BYL9o12bmwxfo5UUQ6bohHJbEcn+h57DPZ/PATsboW/IPFhcWWjYjmGxL0NicVFq0sC2/yMgFGwhgtmeSDuZ4lyDSyHRqaB6d18Gcop356xIMVVNorJTqdS4DI3sC0zyDZK+eSxxKKwxEX3y28/2043rEPiB99DettmEVsRTrrh44hhZ1dRlBGhpohKZV59BX0PPwirsxUBtveFIygaQRJKAuWK0aBglUSL6dj7XHKO9wuVu34Z5dYkRdMEEUl3fXbGuMHk7QprWZ7uejQWTZST1AR3F9x8y4OB64vo+xvqRP8DsF+R437mKeR6ukQoab26Gxz7lF0KRTl6+MXKCohV4gb+tigmw7Dkzh6etlK6o4LsS767B9n/eQX2n18ExIK06J6mUij09aOQ2B+KpVAeZ4KksyXkEwMoivvq5OsoV0nPDCaKX9xICUYki4745RNJ2L2SH8NAkgv2C527SmkdE9xIZjqYwIkfTFOW1gTuk3yySYGWdCAUQf/jjyEjVqWBOzlOUKFUjjrsLU0kEujt6UVvby/6evswMDBglg0XwYLcpEkRAqZzQ4rCVN7YdpSw/AEMbN6O7JYdiNA0o9KIWBSSadg9IoDd3qEg6SDi5uuT46W4uUIln2wmZDBxEniIbjBxVDmKk7i+WTkneYqzBAyknB2UReXrMV8XN575u8sPSENhZP7c1rB0RqBzNoqsJLZugJ1OyPbGj3xoZ45yVKEQ9vf345abb8HqNasRDAbFrQth4cKF+PznP48ZM2Ygl+NwGcdaWbt2Lb7//e/j2WefNdZkJBLBxz72MaxatQoTJ040aY8WAdnXjp8/gP6f/RjBLesAcbuLzRNQdf75CM1f4AwaHwWWJRayiE7PQw8iv17y4bAhiXM1y8hPhbuSp8QWxctGYph0443AhCbRRhGwtnb0PPwg7D17nHGXpXPnwO8MzNDJlAPdvRBdNMndnMxnIY9Mfzdi138ctdd8GFUzZqFwFM//m4lalMpRh650fUM92trasHr1arz88st4/PHHsXfv3lIK3us+07P62muv4U9/+hPWr19v0r7yyiuorq5GLBYTS8eVlqMAxSdvI79lI3K7dqAQCBnZScln4PiTUH3BKsTOOx9xj1AtgenCZ5+NtIhsvtRzXH4k/O5ad+XB7IOYesVgCOG3nY74+RegWkJ42TIgUiU3s9vyyb/lgez/fWDejjAOiTOr7P9dMMFCwQoh1d6G7N4Ophg3jHOhLFWZUghMEGuHA3XZo+cGxg2WMeePcpjQgly5ciUWLFhQigHEs8HuXbuNm02r0xXKl156CR0dzk3J+KlTp2LO7DlGLLn8qMCyIRQH+pHf/jryIvCmE0XKQ1Z2gZ05AX8QwaoYAhWCvyo69Lek91VVIRuwOPqmIhQq02FTHiSSwexPOAxLtsnmAH4nrlC66cvLq5sf49zlQ8P+NAxMx06jwY4jfvf5YYWjKPR0m7A/97HP+BVKPuwvBc48n0tx5Pd8HsVMBsV0GkW2gyX7UcxlnGIirpGPtf94Kh1/Adg+ScFbvGgxJkyYUIp14tdvWI99XfuMxcnfbIukRekKJcXxlFNOQW2d81jdUUX2x+7vQ65LRIKdJ1ImKJYsEsW0lBkRbVNmGOhKl0Scx8HH/wqZtLNMgi1lzJY8AnnKkCNSQ3GEajhGyExi+eN8cSh9dwTNLDWhHP42lmopDGX/9tzlRhhNzH54j7CXn08ZFfsGHPEoVSJjnfEplBRJIgWM4mj1DwDtHShs3IjMn19B6vkXkXzuD0g89zRSa1fDbm03aXz5nJQ2mhAHFjVldFA4GGYeN3OIUNI6ZHtkZ2en+Z3NZrF79250dXWZ36S2thbvOPcd5vPoU0RWrn+haDuVqokpIiplwd66RcrK8+j/04vof+ElJDauR74/YdZiWr/4tanNW5F48WVJ8wKSki718p8R7u2BX9SILu1oGBSxEYqfVEElC3AorkASfi//vR/XgtyfpjIFZLv7ketjZSGoUI5R5LrSOqSrVEx0YeDZJ9HxT1/H1k/chE3XXYfWv/4k9n3mDuz767/G3i//A3bdegde/8Qn0PrNb6D/mafE5ehAwFiXpUHE46SgHGloNZ500kmmE4fkpcJih82OHTvMb3bSvP7668aqdIlGozj+hOPF0wwfPbebUBgpZskc/DnOw0OhEVERNSmKsPf8y33Yc+PH0XbLTdj3qTvQ+rMHkGxtc9YVCmJBtv/qV9j92bvQKuWs9Y6bse/vPg9brOUiJ88wQslyxE/nO4WMR1guWEzBeSlysqCSWDKK+1UO16+QdFAM3VCOsyfOWpXWL/YOwO7pE6u5Us5jE16VcQPH5AU4c0oqg8Tvn8beb30bfd+5F5nf/AZFsQKsznb4OtpQ3LcXxa69sNra4W9rg2/zBuQf/S16/+nb2PPlr6L7v58CxN3izU7XXTk0lixZYgJhx8yePXuwa9cuY3Gm02njdieTjuXC3vHp06dj5syZpo2T6Xn+GV8psIec1txwKqVlOm6zUn4mH1nPkuX5vj5YfkkXZUeOI2Z8Lrog1mOhrxt29z6kpfzkEyIinB6tRLFYQKa3C0VZ7pN0RbGS7T2tyLXtRH5fK/LdnZJHj2yjYPLMSSWQHZA8uztEkDqRl8oZGafC4CGZFqCyQ2NPeMLOyjo9yHS0I7m7Fcmdu5HavkP2uRc+ye+AcyG/C2Ih5xO9yHd1YED2Z0DWy7S3we7dCzsl553HLDuUk8D9YiC+dD8s2T82S1VU7DGI/6677rq79H1sIwWDg2bzUpC6H3kU/b9+AKknxUJ8fTsssV4CYq0Eq2MIsJGc01NJ8PNmiVY5N9NAP7I7dyKzZSvyUqjyUmyCzY0IxuNHt/d1jMAbl0N9tmzZgmeeecbEUaxOOOEEY2lyvOR9992Hbdu2GWtz8uTJpgPovPPOM0JJUWMH0Jo1a4wlyp7xF154waSnNVpTU2Oumwu3Ryv097//vRHgjRs3Yvt2ufZS0bEHnVZqa2ur6TxinuxlZy88hTIuebHNMbVpCzIvPofC3g74IjE3Y6e8SDlgB42ZomzBQtScshSR5maThFZj1x9+D39nB8Ky7776OvimTUVozgIEj5uNgFQAxZo6ZLoTZvo1PkIYnDYNEcnHP30K/DOmm4koOMtQQc6FHYmi4d3vRqC+3uSfkcq84z/+E5asGpq/EFXLlqFqySL4J7Ugw1mIslkzaNx4QITnoluEXfYlsGgeoiedgPDxJyMs24vMnSP714ABEVBLxJlTyHHokmvdyk8U00lEFy9GbMUKFNmZNA4YN0LJjhhbrMTuRx9B2/e/j+KaP4sLHYA/Vm3c6KLcXHkp0Hw0qyA3GCc9NTWqWJ8FDgwOys0ZjyFkSSGTG6136ya5OaKISIFGldw0pt1yWK2tjAhFMS7ism3rNjz+xOODrjQtRrrjtCS//vWvD1qUixYtwpVXXom5c+cakWxvb8dTTz2FH/3oR2ac5S9+8Qv89re/xXPPPYd9+5wOIbaBVol4EQoi3fjPfe5z+NnPfoYnnngCr776KlpaWsw2KdoUyXvvvRe//vWv8cgjj5hOpEmTJmH2rFkoyP4l129G+sU/OkIZrjJXe/CK07Iq2OIay+eceag5+eQyocyi6+mn4NuxA36x1GzOJrR0Gerf9yFUv2MVIqevgK+pGb0vv4SiLA80NiB+/kWovfY6WXYqqpafgVxfArkdO00nUDYcReN73o1ggyOUuY696HvuBcROPR1N11yL5ms/gPp3rULo1GXgZG65HduBnl7zPDr3006l5c4PIHTaqYhf8wHUXXE1Gi57L+pWvhPVK86Eb+YspLJJ+DqlojDTwfnEMHAsaAqnPTCAyOIliJ15FqQmGRfFfnz4jSJifrnw+x56GB3/+kMExT2yonUifpy/j/+lrszlkcpJQW+ZjJzclNlFi1GcNh0puX/TcpMUWNPbIphSswemTEZ4bxsSD/wce//j343IggPRlINmxswZxoKksJHNmzebcZW07sqhoB1//PFG8NjR88Mf/hBSyePBBx8cMv6S4vbTn/4Ut912mxmbycHtrhtOcaZrv3XrVrMdDkfiE0GMJ8yX69PaZBrmm8mIeykwjZ3qF0GXMmBJRSpxtLAYnLW9YRHJS1nJ5QsoNLagatF8VJ8o1ufJJ6BGrLpYYxwBsd0ykmNhQiPiJyxBzfGnmGDXT8CAlM9saX8It2vEq7EescsuwqTbbkbdWWfAqq1FMRRDbMZsTPvw9YiLqHH8JV17WpaZrm4RyA9i6t1fRvP570J48jQUKaIcxiTiXn/W2Zhz1xcRvexq5GobUcykERYDIcjn12V7dopufsqZZNjMmyl7QUNhDHdyjn2hNO05ltS4z6Pw5JOI7d6JIAuF3HBsd8pK7ZpqmojgdR/FjO/eiynfuAfTv/BlzLj7S5j81W9g5vfuQ+Smm5CZOhU5cb+dPC0Eq+KwXtuAzIMPof+lP8kdI4XQdW2UUUNr7uyzzx50kylgtBQ5sJwuN6E40vWeJtY7LU9ag0/KtWTHD93s8qYPfud6tCq/9rWv4Y9//GNpiXMTu6JIzHyKw+5trs9tMF15vryyaZ+N/AieA/s1cvuTV8TVErMLUiadiSUcpCpHKiki7OZRGojOmcjZ+cj0hrL9J0weEmt06iWXokoqE5ZN+sdmhh9ZN9jYhMAJy1CcOhOZRAJ52UD1le9DzUUXITx9mpmMl+XWL+uYykS+F2XbfrFqmz50LawFi5EtONZkjp6VfDIUOPlwptTzPQ4Y23c2yzMLfm8vun71EFJy8wVCjnVhSy2Zs4qInft2TLj1VtRceTmiZ52J8Nz5CM+YgdD0GQjOnYfo8uWY8N4rMPHGWxB+x3lIi/tGC5SD0a1oFJlNm9D1o/tR5FAPKWRGLCV/ZXQ0NjZi/vz5pV8wbZNsb3z00UcHhZIdPieeeKIRTAojXWdanYTti8vlGt39hbvxmU9/BkuXLjXxFDk+ybNJrk8mnTGV5WFB4eR4ybyIa9nlzYt4UEAolOyRJiNefS6QUGm5sVhprbpCWPoYDqO5LcJ8eFQWt9/WhR3f+T5e/z//F72vviYWeskllrIYXjgPoZlTzTjQVKJfXOzzEJ03l1kgn04hseZ/sPWeb2HXfd9B4tWXzTboYldNakF8xRkIzpptxoFSTMUYNuLM7yE2XRkRLx3RGPaqxrRQmpuDLvX6DUi/9qrpASxyuntaCuKKR5ctQ937rkLtqgtRNes441bbciOaAcH8lBu1IAUuPnUaGi9YhdqrPoCw3JQFO2em9Ldq4pJPBtkXX0R64xZxUbLGhRwUyzczHAPQcuMgcvZmsz2RQkiB4/hJipzbbkmhXLx4sflO0eMyTqpB6uvrccUVV+CGG24w7vbK81aazh5WhmTnzp1obRvqxh8qfL8NZ5WglrmiSNFizzDbJr1Oe16OjWlpsVWCq7PjhI8MupQ2MwTadW48U+b27kXHz3+Brvt/hM5/uQ/9bA91BVcITKhHIB4z7/WxozWIzJ4Nf3XM5JGX85h4+hn0/vR+tN/3XfT87nco9Peb9Zl3dMEcBKdMQk4EtliQ+0HiTdYSfHIbWT4p7+a3x8Ef44xtoWS7l4hX/3PPwbKzCMSipqCzBg40NKHu8isROe102OICmScp5IIXAuJmuAWZJULS8ub1hYKoPv10NH7kY7Dr6iS93DQipAFx42URep9/CbmeXqeWLxWyNzXQuj1cK+ovDM8rKxY+lsgnbiiahJYkhwe51tX0adONmPJNgGxzdEWQsHd7xYoViMmNP2HiBCxeshh1cn3cNO1t7ehoP7LPJdOiysm+uWK5f2/eGFqMXM8ZN1kJlr3SY7MluC0vcvv2oefxRxHo7YB/wzoU1klgM1Hp/Jl33bD9PW8hNOM4+OM1Jp77zdmHkqvXI5ruRX7zNgy8ug723n3mXiDGGIiExfLMynWxJdqpEGz5nuMYULON0Z6BY5cxLZSkKDdW7oU/wC8uhnl5kliLdBcC77wI1ryFZjKBwdLoNkaXPlzYlpUTC5IvaIqIO+5fsRL5cBhZyZO9n3zyou+PzyD7+utSyPYiv2c3Cq17DjO0oiCW0JC4NgYnzi6PLwsmnhaUHDd7YU2pfovjPnFD0RsOrUx2+DQ3N0udl0Ev33RYsjTJ8LZECi+H+rikxWVkOJJQGxiyopTDioqhUpwLX0drjXKWITKqqxcMwmpuQCEi5TsSlXXkn1Q05RiBCwVg1cs5LrNo6R2lE/uQK1iwQ1Gno4oj2ktHERaDIhQXw4A//GxHHvuiWImxK5Sstek6d4lwiStHgTRtk8U88lVB1J55BkINjftdFLoObhgOk0gwha06jprlK+CvqRULR2pY2Y5PrNTo9i3o/ccvoe3Wm9H2ydux8+absP32WyXcdvDhjtux/VOfQtudn0Lr7bdg5yduwO5bPoEO+d1x553Y/alPYgfT3XarbOdGWX4jdsh2t3/yDuz41J3YfuenseWLXxDx/oNYz29tsaTI8Ykbjp9ke2M57OA555xzMFtcRULRHGzDG05ZdLnFyfQjrnMIcLiYzVfPvgFH8mxXukHNEKQyzOFyNnXZsnkdrumNrnDMtFSj7MgsOz8i2tlEDxIdcp9kkvBlKbBl6wYt5GGLUTD0mI/kMR4LjGGh5E0olmAyhUzvgLgdjmCI420GBYenTYSfr/A0aSXxYHCiKmFeAh+wEJ4xAVZVeFBk+deflxto2xbk1r4Ke/0aFDdtAMQNwoa13mHT+qFho6y3cS1y69ciu2ED7E2bkedz6OvWIiN5M97euB4FCfamTbA3bzLPqRfXr5OwFsW1q+F74nGkf/cIUps3OE0Qb1EolBREWo3Dn+HmsJ4zzzjTuN2kXADfLKyAHz6+W+YNqCBRR1BYKluxg0iZL8jG+H7vIXAl7kRJUAmjAo2NmPz+azH1s5/D9M/dheYr3oNgQwNPtknDpGKzG6OgnKH78IZ7NCYYu0JZggOFi/1JEcqy1h5xIfzhoGnHM1q3v+y8ASwxUkiloFnV4t7whpF1B1djbc1OhBCf7KlCiE97VFWNLojLFJZ1IvI9EuVnRLz8gOxmAEGJC8WrEZJtcsCwPxRESISeabgsINsJVMcQMutJBSDiH5I0VT3iom7ZZp7aeCsIzEi41h7dbo6nbGpqMr8J3Wh24kxo3j95xpuN31yXN654hp9tHiGdbZZAp+NDQiUqXKaRko6MWJXi5RRYHgcZIRep+IP1DWi++FK03HADJt92B+pXnocAZ2c6mDJjkh78nh5LjHmhJJw72hkJxk4WKa5s08rTJZMod2AbB7CZT7PKCDgDbk3latKVOm34XUI+JxZs1pbPggRx8UcbsnwqKDsYbIkrsNOJg4QlcwZuyByDuErFfM50Pg0WZW5ffpj2OlnGhna2V1lNYjXXNHKBk+4tCvebbvWyZcswZcqUUizrHsu0TVbx7YZvEUZzKislyRXZ7CPLRIDKe7X347a1Dl2bMeWM3BFUztA8fJYzVnI4rEADAal8Y9XiXVUhGK+BP1rtWJ2lAxWzQNIdOKfB4BGYL/xT6ZjGDmNeKH3i1vmbGxEQK8sVNF8+jWx/N2yb0+aXxj6OAmOZ5fPI7t6OAicpMG4MM5S/koftt8yM1Tlxz7PiNh508AeQkULNTzsUcR6j5BZkE7zJbCmwWVmekU9b9sWIqMSbqf3FOuCYvowcT14s0cKC+ah++zmoXrigdAO+9eF+DmlPlK9G/IfHv0kYgStd8kOF5aQg13o4bHfMStl6o+NkeXCerT64nfAHxRsJREu/ymC5lW3a+7qR27UL2Z07kHHDrp3ItbUj39kFSyr+kHgvw+EeGGk354X7NHYZu0IpBY7vJQ6L2xacNAFWOCBRBTMu0s4UkH55NYp9/U6R8xKSksKaITd8EmT9JgRsH4KSv78ohVvEsX/iFNR98tOY9K1vY9LXv3lIoYWf3/gnNH/xywi/axWsQBjFZMaIIAcQB4+bi4n/639j8j3fRvRd70YmmZJds+UiFmAnehCYJ8v/9u/R8rVvoOUfvoLoue9AkT3APD5jlY7+5nqr8aYLJYUgFoF597UHhyoZHq2PBzDa1I5VWHmvBnbsxLq7/w5r338N1r73cqy94konXH4F1lx2KdZ++Hp0PvbfQJ14JiOJIdvu3wIV2V+SMS2UvKy+eBz2vMVSyKtFJwpSu4akhsyj99HHkNu21Tz7amYuH4mSuPBJHLq7ma3b0PfgQyh0dzvvcxZ3m7O2hBcuQdWKMxA74yz5PPOQAycaiC1fgcDM+bJfQbFgxc9nIZR9tJvrED7lFMTPOEPEfxLSXb1mkWmTEus4wGd+OabwjDMRWrgIPtM5IgmOYYF8S8FyImLBac04giYvZv6ROrMUsqBUhkemPXloHnY+KaHyEKliNo3cntdh796Jwp49SK9bh15O+iKh59VX0fU/L2Ggs920v5fDTq2AVBpvBUv/aDB2hVIwlmIkgvjpy2EHI8gn06aDwC8XN795ExKP/AZpvgWPNS7doREKKZ+Z9Uvhy2zciM4HfonkmjXOMBFxg/N5cQtlef3pb0OIHRGSP939Qw2WCRzCIa4O26OM2ssf+W8HfSjKfpq0dEcHklJQS433aVsKfd509vjCIRFOsXTZtHDEbuXxDc/ioCjIB5s52D9oHjt0ohzDSrwOJ5Xzd7Sw9TvAssMyO0rxqVxaJZ5t28ynRMHOyn5mD2jvNLBzMhZGaIJ4XjU1qF60BBMuuRRTrrkWUz54DVquugLVc2cBSZY1xznhbFrm9SlS1sw5GeX+HsuMaaFk25YlrmfTsqUoNk5ARi4wBYTCE5IaMfGb/0TPr3+JlAif3TtgCqspAFYpiAVBjeI7UjLrNyDx0MPo+dWD8NfEzaOQfMwxHwqgMHMm4ktPgj8WNW0+pdJ0SMEUPNkohy6xx57b4AzZnNPQiohVzGdruZ/sYadFK2Lo49g5Wb1YlBqe4jpSua00RnQMcGSsMIeR8uIp9bNThLog18lNZZ59lsAx8JwUg007ptB4YCrxYQLD8mom2eWy0kUceW8qwyU+KecUyv2pzOwEZk7J4TkyPss526UA5bp7EFm4GDO+8CXMvfdezP3udzDnbz6LhqUnotjbLan5TDtHfvhRlPJXqa11rDKmhZIFseiXgtEyCdUXX4Lg3NliCSYG9SKYSSMhwtf2j19F4vEnUWzvgJVKwcpm4GPgBBhde9H/9LPYfc+30PvAz1BXZSFcFTVP90Dy8k+ehOhl74WveaKcTRa4kQvxqJD1LSmE4eOmISMFMSUCyZfdF1I2ovNPFjEWkZZkhSnTgDnz5UYVqzGdRtXs4xA5aQkw2OguqZiQB+uGY40Ku1xJyMz41hKsaMo7r5h+tEKal0qOoRLMo7qqViolH3IpztG4n5xYlbQwRwN3hSKZY+VXVlY4jV+WlSKHVLCypuAKB9yg5lD4Z9gxmWst+yEhK+vnpezsPwtCKbnz0rP92zXeEudTFQMiLaqfk7Lnj0sZYltsICLL6kQYQ8iWnm4K8n7iI5DxWvg5mXDZMYxlxrZQEhEIuqqNF12I2neuhL+pRVxvFiFn8LlfCoh/3WtI3fMV7Lr5BrR/4W/Q9u1vYsc9X8OWz34O22/6BLq+ejfw8rMIi/XGISu8afwFuamaJsA64yzUnr/SFCxZIp7MYZxSyZc3DJ83j8ybg/o7b0Pswx9G6IqrEb/z06hfdT588ZjU6jbip54iNf9nUX351cheeAkiN92I2ssugV+27zy3zgI87GY6hjHWlvzjeEtTSZXg44ycU9LMFypw9iHOZemKZUSsboZKMD9XSDmpL2c1X8fnpMuE1oXXlWMOOZs5OwUPFV4WdgoGxdMZIuCygG9v7G/fh9BxsxCbP6+0YBgsX2wvLFvXXGo5D3Y3H++U8ySeEGfnL4ceSEEEPbN1l/FOXDg2N9JQj3znPqSTCdiijxbnRCjlX5BKoZgSAZdt5DikTuKMCIciThPROGEcCKVcXCn4/qZGxMWqjF96GQpy4xQGeo2bzPciWyKAhb1tyG1Yh8R/P4HUb/4Lhd89Cjz3DOw1a4HWNrEyxYqQtLaUmHx/DwaiUUQvWIXGS9+DYCN7BLkpZ9KAw4L7y5tJrNbqc9+Jpg9fh6aPXI/qSy6Gf4Jsh21gclPwNQCxM89E7bUfQvP1svyCC+GfMt3c5E670dgRScJj8lmOUE5smWie2iGcd/KBXz5g5q/k7ObPP/+8EU+XSWLxt0xqKf1yBNeFs6evXrPazEbE107cf//9QybjGIJs299QLUIZ5KU+PCR/c51KP4kVr0bsnDPQcP0HMeHKKxCdM1cqRKk0S8sN7n4Nq4zDcj5a3n81AisvRPyqDyL+zgvgi1SZipukkzlkMpJTJov8jteR7WgT4WNZFc0V8Z984YUInn8RGi9/LxrPPRsBOceFklAOiJfVTwEOhI1YciUrEBLjg2I99uXDZVwcKYWSbZPBefMQv+zdiF58EbJTp4iblRH3OWlqeFRXI8DZazg+Um6+INtrchmEq2MIVovLxYIi7lI+KzfSzKmIXngB6iSv6sWLSu6MWINSkireZKOF65YKI/c5UFOP6Lz5so2FCDU3OzcXS6uIoOnEicYQmT8fNSecgHDzJCnI1qBldSwyxMIiw04ll/OVDWdKBcGJfElPTw8efvhh8zqIf/7nf8bTTz9t4gkfieSrIzg7untdOC2bu51Ef8JMAPyDH/zABFqUXOeA/RAoa4GYVLBiqXGqtMrIegeuOgSWNc5pmRELzsxtWSLU3ISWD1yNKbfcjJq3LZdtVcs+S7ktXU8zMiMgljTL6jCCdXVouuhiTPzoRzH59ttQ8/a3G/fd3Zf03i7zKolANIygnUXX8y8g3enMCs/p1upOOw0TZN1pd9yBxrefazwwl77XXkN65w6ERDzd8+Ljk2mxKmefxgnj50jlRqH4hERY6m+6CeH3Xg1rkYhcQx1sqR35dEwxm0FACqLf55dCLLV+TtwZvuNE4u1AEMW6WgTEJY5e9X5MkoIVX7JECjKFi6G0nSOIGQzMDiO2XUk4AFYAEs80fFrH7McxDC3BcotvuOhzGS3Jiy++2IglJ9PgOm1tbeb1D3wtBF/hQDjV2vnnn28m/OX8lBRKrsvHJN33idN65IvEfvKTn5jREGedddagABNuz90fVlBBsaTy8JtOwUpwG7aUGTMwrdzaKhNedoTkxZXNbNwGm++TLxGqqcXE01cgNm0OBnbuxsD27eadTu58AoWgCCwFTMqmoSxPTiic7uhE08nHo+mU41HVWGfiuSaf1MpsXIt8xx4ExasKxGvQ9ttH0fviy6ZcEysSxsTlp6Lx1NNEsCeaOI4XHti8DannnoW/dReqauMmnrkWG+R7Y62suH8fxjrjRyjNWEIW/KK4UBMx87rrMflvv4LAdR/HwIIFyLINpyi3gYiTX2p6v9yAvkwOqX19yMrv9MwZ8F19LZrv/kdMuupD8IsFRzfcKY7KkYAdKRQzTpLBqdL4YjC2Cbu4ViFfNPbR6z+Kyy67zFiYTEsxdAMfezz33HPxV3/1Vzj55JON2HFd5nvBBReY9Zkv03J9buf2227HbbfehoaGhsG3MlI83W0aa4rCHOI4SseDGIIs56OjiZ4kcrZ4FxRMCj8rMvFEOA+q+ABSAn3I9ieR37AOmW1bYScHZP+kQhaPJ9/fj8SLf8aWf/0hdj36O7O+j4+zZrPI5grmNbaixDwRzkgIHpeExLZt2CQWdQ9fn9HbyxMJn+RXTKUwsGUTep55FslNW1EUryiTLWDgheex5yc/xt6nnhZDQLYv+bNSdkNBjIMk3yv0zW8ju+Y1OW9+ZPloGMt6PiteVhwhsUTHE76+vr5xd6ebQs8ghTc/0A+7owN2eyvsfeKitHeKZcleTZ+422JdTmhEZJJYIM0t4rc1iRsehzWOxo8dDShaPJ9sK2RguyOvEYXskksuMa5zuaXJ9HzpF183yzcnsn2Sb2VkHnxWnK+DoEByQmDmQWuQ/witSL4el6+t5cvDpk6ZiqXLlmL56cvRl+jDsyIq3T3dZntc/8QTTsTsObNN3pTGTV/5Ejr/7ZcIDp11zGCEi3I4byFiS09CpKWZkUaIEk88jcD2zWL9pZGyLTE4fYgtWozGS1chfuIi5EQku55/GQMPPoxsIomwHEP8baciIpYpz0WX7FfutVfgS/UjWVWL+svfg4C46yTb2obex55AQLZffd5K1J91OsK1EfRs3Y7Ev/8G6TXrABFNvtPeljQ5sSQLkm9kyjTETl2K6IqlqG5sMB1AmZ4+9K/biH7ZHnbvRiGZcioaHhfX7e1Dw3veg8nXX2eGxNmcp3WMtYdXYlwKpYt5JFGsBmOzSE1qJ9PIsYZnjSxRlizjFPpWNCI/gqZhnYVFqn+uoRwh3LYvihgDLUvCeHbe0BJ0LTsXWnuEr4TYs2fP4NsU2cbYMrEFNbU1B7jyhBYr3wfe2dlp1mH+fCUtLUj2fA+IO2xeOiZQZKs4ExRfRiewPOz6+U/R+sP/h/zaTeY98KbCLYOdIMVIFAVao+4TUfLhz+bEU0mbsbGcIIPvV5IcEZvUhEBDnVh64r3sboWvtRVWVQz5+loUxYKNS155sUBpeYLt4wUpp74AcrXV5tnvYFCsaMnPFtfbluMScxoRqdyDIQvJ/jTs1nYE5LzwEVi3sqDo5ZJJ2XUxBOpkO+Kqc/YpHh9fZcu3NNoSIkE+KcQHZM0hGGsz19aKqZ+5ExOv/whCkyeL1VtqEhrjYjmuhdKFgmmG9bCQl643Pxh4f5qnXNwblTfGsJtWOTJQxFzRdKFoDhdJF1qWrmCWw/RcbyS4TrlLn+f1FauzUn6cxckVTj411fviS9j13fuw79cPobplkpQXOtROWSEckC32sSNupTZAtlf649XOY7CSmIfoprfEiqVrnpO1KFRBPnbqt5DNpEzbc1W4SqzNARHPCHwi5mZbkkk62W/KZSgYRkTE3HQSSaa5PvGQxEvyiaAWw1EEpMLw87xyPbNFOT8SBqsPjtOVfSgfi2qeDquJm2vBs8ElPE4OhC+Iaz9LrOrGq97HhLKklJMKpaIoxAiduJ7bv/cv2HrPPWKNNlDdjZBQdiksFMrhMMadlZxywjcc8tdwaXHTcfnByI6bJ9c9cOsObhryRulGRERSbGQEZ83FcZ+/C7XL32Y6GccL+6tVRVHeEDa7BMVVjZxwIqyFS5Dh7FN52whkJeFhHIXTFUlSHle+Dr+XpxsOl4203M3TXVopLzdNebpymN5dXnHdVBKFZALNF1+A8KzjHDtyHE22okKpKKNFhJLS0HzaqZh97fuRC/E917YjYlxcEhjzu4LgDIdNBJXSlse5gUsZKi2rFA4mLUP5npp1na/G5S7wOe9cBoGzzkHdO9+Bqubm0uQdB2P3Htuo660oBwGtR8vyI7N7J9p//m9of+RJ9K9fjUI6iUA0hlBVVIRGBKTk5g5+HguIYBLT4cTj4Wz92RT8jQ1oOOcctFxzLRqXnw5/JDyk7XY8oEKpKAcLO3342d2NXf/1GHqefRqp7duQ7h9AIZVBMJMDslkUOAyHn2bc5X6M2PoC8qUUIRxcq+ShwSd9OAaUD1RwliL5hYJ857PzNh/RZCcOH9P1OTP1RznioKkWsaVL0bzqYmNJO9PIyb8CLVHX7hz7qFAqyiFgeoT9IjjymW1rR2LtOnSuWY3eLVtR1Z1Asb8X+R4J/Qnk7EzpMVe51eQ/RTHoF6uMOlO6+4wbXhi5p/5woAXMYT6ci8AuZhEMVSFg54xo5oMhBGRf8kELIbGIA2IRoyoGa2ILYvNmofG0k1E9bwGC5vXMRTPkaqijPj5QoVSUw8R05rD9UkTEx2FJYlFyJiCbQ3z48AJFcCAJM/6WE1jmRWzkrksNpM0AcK7PoUBJEdeRhkIdDlUxsQzDYWOzhgMWAjUx+WKZWYisIOOdYXF++R0ISxxf4xyOmTHGpqdfrEhjOxplH5+oUCrK4SJCR7Fj16hxoEVP6Oaad2Hz7uI4ypKrSh1kGkaznY/CaGb54RM8kn5QJ01GI3MwkmUsShE7ZsnHs/nKZf7guE0zblS2yfzMvhjhlt9BZ3YmI9zmeNwdG5+oUCrKEaNM5eS/A7+zTVKsNllMy43fzbhHSc84JnWSD6405GslDuqmLYmcu455ukww26UqClzGeKc3W/4PGQ8zbL8OauNjAxVKRTnK0NXlU0DGgizFHTMMPpbpoeRjDB1HqShHGXaGcGiNWijHDiqUiqKMHlqS48yaJCqUiqIoHqhQKoqieKBCqSiK4oEKpaIoigcqlIqiKB6oUCqKonigQqkoiuKBCqWiKIoHKpSKoigeqFAqiqJ4oEKpKIrigQqloiiKByqUiqIoHqhQKoqieKBCqSiK4oEKpaIoigcqlIqiKB6oUCqKonigQqkoiuKBCqWiKIoHKpSKoigeqFAqiqJ4oEKpKIrigQqloiiKByqUiqIoHqhQKoqieKBCqSiK4oEKpaIoigcqlIqiKB6oUCqKonigQqkoiuKBCqWiKIoHKpSKoigeqFAqiqJ4oEKpKIrigQqloiiKByqUiqIoHqhQKoqieKBCqSiK4oEKpaIoigcqlIqiKB6oUCqKonigQqkoiuKBCqWiKIoHKpSKoigeqFAqiqJ4oEKpKIrigQqloiiKByqUiqIoHqhQKoqieKBCqSiK4oEKpaIoigcqlIqiKB6oUCqKonigQqkoiuKBCqWiKIoHKpSKoigeqFAqiqJ4oEKpKIrigQqloiiKByqUiqIoHqhQKoqieKBCqSiK4oEKpaIoigcqlIqiKB6oUCqKonigQqkoiuKBCqWiKIoHKpSKoigeqFAqiqK8IcD/B33x4fb1BV56AAAAAElFTkSuQmCC;" vertex="1" parent="1">
          <mxGeometry x="120" y="220" width="100" height="62.73" as="geometry" />
        </mxCell>
        <mxCell id="yg_PSwLpjxKoN4KXuRmd-8" value="" style="shape=image;verticalLabelPosition=bottom;labelBackgroundColor=default;verticalAlign=top;aspect=fixed;imageAspect=0;image=data:image/png,iVBORw0KGgoAAAANSUhEUgAAAXYAAADFCAYAAABAd9kKAAAAAXNSR0IArs4c6QAAAARnQU1BAACxjwv8YQUAAAAJcEhZcwAADsMAAA7DAcdvqGQAAKEJSURBVHhe7f0HkCbXed+NPh3ePGln8y4WOYMkSIAEA5hJMUikGBQoS/qkT3Ld68++8r33c5XLchW/Krtcsl3lsn3LdilL/iRZokQqUKIoMQpgJgiSAJGIDCx2F5tmdvKbOt3/7/ScxYvlhgExuxgM+r97pvvtPrnP+T/Pec7p00Gv1yusQoUKFSpsGoSrxwoVKlSosElQEXuFChUqbDJUxF6hQoUKmwwVsVeoUKHCJkNF7BUqVKiwyVARe4UKFSpsMlTEXqFChQqbDBWxV6hQocImQ0XsFSpUqLDJUBF7hQoVKmwyVMReoUKFCpsMFbFXqFChwiZDRewVKlSosMlQEXuFChUqbDJUxF6hQoUKmwwVsVeoUKHCJkNF7BUqVKiwyVARe4UKFSpsMlTEXqFChQqbDBWxV6hQocImQ0XsFSpUqLDJUBF7hQoVKmwyVMReoUKFCpsMFbFXqFChwiZDRewVKlSosMlQEXuFChUqbDJUxF6hQoUKmwwVsVeoUKHCJkNF7BUqVKiwyVARe4UKFSpsMlTEXqFChQqbDBWxV6hQocImQ0XsFSpUqLDJUBF7hQoVKmwyVMReoUKFCpsMFbFXqFChwiZDRewVKlSosMlQEXuFChUqbDJUxF6hQoUKmwwVsVeoUKHCJkNF7BUqVKiwyRD0er1i9fwFw4L1rJMHFqehFWFkwzjUFf22wlqWW5Cn+hVZEMSrIYRTc33q70CXvNPPvLzqzmPLJNGy8gIeATeK0Ui4XitPdT2Xh0y3Obo4nUgMrR6QswqJ3CAvrNPT84r0HOu55WFhQSo3LGyg+4utmk2pvuouRIUKFc4XNoTGHiQig0SsOdBRxAALBOLdUKdBigssLXIb6MfAUhuKlIfykAS5CKV0Q87lJAUU46orFEmOk2DIFJFceVRaitOyEYd3MbZoSKc4XVY4KJ2bgcg9UB6cE4EFiiNIiXtUGLyEoWpw1e+EYG59OZ5VhgDVf/c85U01XaFChfOMDaGxWzezNBJ5Z7mFiTS6QDpwU5ypQ7JKCHkkP2EmYuAfeOa4euJQE4uc/OnJBvJ1pdQdHfEBeQdhyN8yvDRJtHC08ZLKIfDE4lU/AXERhyN44hJy+Yw0iogqnd0JuDTXM5Lw1YhrqIp2Iy49xDhV/VCpsSqXqqK+K1SocN6wIYi96JstNcxWxMItKdQT0t6DMLCBxuxdES4GmLa06lgkX5LwKW4VcMcwGOovRQosFEuHYutAxyAvPfO3bz1LwkR8HCtuxQ6bc0fBCokRzC0QexQorIufq/hQvvDkzkmN63WdV8TOyChL+9aPROxBTRUUWUvHBvVfSko3ypHU3iDjxAoVNi82BLGn0ox72dDytGf1dGhNkXuhf5k0vLTWsFoYW5SILFKRsB/Pw6Uif86dls1Rl3KnokO/qx7dOdBRPzlGkiSRBAA0H+LPmWbkMMngCdWdUUMNbVy+9DNXPLm09UzqeslTuTR/5gAijRJI66WNzBJL8hUNsQqL8oYEZ936Gu1QlQ09JzcXUSAseQjuQVSoUOE8YUMQ+/DoI3b8jrssffAR6+R9q3Ui6+YazGt436qNyUdsWb1jebPlyDyoRRaKdJ2LRb5x5CbsuB5vmxYhSwjEUvcb0qYbTQsULqzrGNdEx6LyXC4jjOKCx5WC0791wjk8j6RocpEr/NZNp68TAIES8Vun5KfiKY2BBrZcdG3roCXNvG6Pq77u6s/bStK1q9vjdv3kpDVUyw3VPwK1QoUK5w8bgtjzmYfs8B/+lXU/c5s1eycsnA5E7F2LuolNhuNiz7o0d/mLSm3cROIluUqrllaIVs11TC/NoTxGcs2GBS2Readt4diYRWMdCyF5CYJs56VWbNtjcbNeXh/vmOmYtRtKp2aptHBs8E4PV+14kw6UJHHgaMlREzVX2Ywdhqq1gUZe44OmzUso/llv3j514imrJQP70Nbd9oEde62TJRYjiBkCVahQ4bxhY0ye9mdt4e++YEuf/jvLnrjfgnzOsnTFot7QWoUIOpIWWMtEygM3X0mGcw3rM7lcWj3n2MVDEcrEsOGIo5AWn4v483pseUNEX5eThl/EodWaWy1qTJamHpF/Pj4uYTJp8fS01bZOWX1iwoqxcVvauVvk37RGs2P11rjkiPJR2oDcBCyTvTUJmNK88NIG45ehns3RFbOv9lbsD5aO2B0Lh+1S1df/Y8cl9gu7dttYv+eEbTXZXKHC+cWGIPaEZYNHDlrvu1+15S9/1rIH7pbmvug04WGKttyQEi5NOc6swCTibCY6ilj9b1wgQm/U2i5OR/qrjnOIpwj4a9YYDC0aSsNU+KEEQyINH3NNc2LK2pNbrD0xaYHIfX7PRdLoJ6y5ddri7bss3LbTwqkt0vCnreiMWRrXrC6Slw5aQaR+vJ/bZxYW7U8Wjtu3hl3rdvt2ozXtlyQgf2bfNgndvupZxM4oq0KFCucNG4LYeyKESP29mN1vvds/b4PPft6a+/eLlAe2UgydXTtNAitSEXcYWVQEbjIT7RvyR/9jbUost5ylJ4mfNeehiNutQRelR9C6/mfNVJq8hEmmqzoQL6tmgiKSEJErZ0stSeSlVrdkrG3F1q0W7t1l9Uv2WeeSS6x90V6rTU1ZNrnDrDVhUb1uhplB8WOaR4QE4TNViynHoVwzueoA2r5GGKtnGxIsZVTmXJ3rp9O33cipcK8D1HR9Vs/w87NL9ucLB+0f+kvWCyQo+5G9qqjZz2+ftg9fvs0mWa7KpPTGLWmFCpsCG4LYi6JnKyIH7Nq1uXnLv/EdW/nrv7fsvm9ZHJ6wbGpgC6xa6TdsZzxmcRK6pZGLncC6UWrBoG/bhoVtC+o2n2IfPxd1yIdbgzeCk7WwGlKHIgxsIHbvDQfS7FOnaTZaLRufnLAxafTtTtuWr3+9Bde9xsb3XmK2c68FIviBwrkFPLVCQkL5U1K1rOUma4tQ8QSJohfJuZEG4qah6xIoz6S+sdCTcI0D69dC4x3gMQkplqimYW4LUe7eJP3SfNf+xaHDdjw9YUlek7DsqAIDu1HP6J9tn7Sf0minqTgq83qFCucf0Uc/+tF/s3r+giHPBsaa8UYQW63elCY8YXGnacfnD9vM4YPWluY8IdJuivzR9xKp2anYEj23hp07ySwXAQ+yTETK9CaAqc/iTmVQfo86/QmUXigyr0WR1eOaNeRq+h3kuaWDgfVXVmzh7m/b0ne+YoODD1q+ckTEnlp9omW1hpy01Xgghu/HtlIvLBERMvpw8VISjRjSfmZFrjhZ1cM9kt5ggNSXJZBYSupIXQKpy7SFcpsOI/vi4ox9bO6IPTkMNMIS4xcqcy66VzXv1uG1Y027od2RkKbsq5FWqFDhvGFj2NiTZRF7w0JeNXVqa2LD+aM2d+dXbO5Tf2dj9z1m4/05CxsDS2uRiT9Ku/xApM7+MbXY+go3lCY+LlI5Oz1S3LWwS0nAvCjl3lDVOSGx1ydZaqmESCZX1JZ0f2hx0bJmbas1pi62+OJrLLz65Ra/4pUWXX2VJVPjthQMrK04GyojSjtL5hMRplvSSVqZ0lBRXPk3GJZUcnT1Zi7BqUrIImnkIvhlPYjb5hbtj2aftDv6XVXZpM3bgkhd9xNp7BqpvGossP/3ri324eltEo4qXEXsFSqcd2wIjZ1JzRA7t9gul+beF3kP2i1rbd1infZWi5ak7c4csWFv1r3wUq9J301Ty7p9Z0OvNZoWNpvS4qVdS5sv3wo9k/PEfm6GwYeTM+6fQFDnCmntvIgjkmvEGiXE1u7l1lnsWmN21rJDB23l0BO2eOyAdWcPWt6bs/aWMRF/bLHyyHLKrkYWiYQGWxbUER6pIiMxnW80DEXoGnC4VaXY1IOgJuEWSFOH1I/Y17sD6+ZNlSqwIVKLh1SwJ0Rh+5qBvX6yY9e2dF9lLSuyQoUK5xMbhNg1vGdTLcbpYo9Ex0yad0vD99b0TovHpqzbPW6LJw45f00p6w0xBIscU5F80WiINOQwX7PPIBOUEMiZnPsDi54Fq1GgUecitlzaeZ6VggECq4WRNWo1i7IJC5MxrigfsWWtwvq2YstLx2wgYg/3P2bNAwetqdFFKIFg4y0bShBlCh/rZ93luXCbmGGDDzegrSJM2NkyV55D5a9mK0lgty/M2x/OHLavrfRsOR/T8+hYWmhEFUuwMvIS0Zvq6+JmaLdu6dg1ErxuUnrjFa9ChU2HDUHsjjQwdWio7kwf4s9I5F0XhRZ1UfiuHZZ3pOEOVmy4NLBivistVwE7sfWbui6yqCWhNeUytoN0gEHO5s5B7HgRWPnxzJLK1dDKK5o2GiiEFuZ16+WpLUuy9BqFpQ350v/6MLP2Us+iI/O29NABy5cWxXexWath9XrdmlHsdrXMVeaBsuPi9AlvIESqYLblzZW/fhbaNxeX7DeO7LcvS2MfZm1rFuPufYIk6Ot5MZpRKdDYJQwvFbG/fsu4Xc1bwE5obbzyVaiw2bAhiD1le9wwdgTHC0ixtPI6e7bonI1feyLC5s4d1p7aYsmC9OFjs5anA8saZsNIxCj/jTSyjrTJAVLBkQfEfTZ3dojDWdQhr/ojQsPOzkSqp6VCGc3SzLKajjHbHwwkjDJraKSh3FocdSSo2tavNWxZEqE7e9ySI0ctPDxjzd7AGmNNy6faNqxHEhCRtUSYjtR9AhsIbLFQLyLr56F9rbtiv3vsafvSwoIN84a1ihYP0AZp3+3A6Tb5ynn3QMSepo7Yb906ZlfWayoahduABaxQYZNhY2jsw4GFkWhNQ3XMHoWIAu0V23smok6wwTc61hrbZo1Ox7Kkb/3+gmXS4MNhYjXxCZOoQS0Wx4iFsPGelsy9E87GL7C67otrdRQdidxLE0lJTWjv7o1X5TUqelYLh27lTBQ3JYZqlkljzUWESAZW0ATKf9SOrLG8YvHBo5YfPqK8dy0cb1pj67Tus4qkHK1sRN7jIxmJyPo7Kyv2+8eO2+cX50Tq4zYWjFlSJNbTv4IN16mjplzGhl8i9kTErnK/ceu4Xa5nAypyr1Dh/GNDEDsb5abS7iBP9hIRZdogGYgscquxsZeIlMm6rN621vQWa0w2rDhx1GxW2m93YE0ReaqwKwrHC0YsJizJ40yOA+x9ZqCts3KltKorR9hh5DhgUiCvaPC9Ymh93myVpl4MI7e+O05No4fA2pGETrBscbJiTbFja6JtaSuwuYUZ6z51yGrHetaMx8227bBjzbojdtaEbzTUksC+ujRrvzW7376wvGy9fEKjizGVWSOsUKOthgrHBAe2dcxQELtGLUWSlBr7tnG7LHavh6n2/bOpUKHC+cKGIHY0dRw265IwSxehBUfltUjknYlVVxrShrfutM5F+8xYLXN4zoLlBYuCng1xecta0pwb0oAtzdwSSPYFG0ijjLLCJuK2I1DWwpfaOyRzilN6AO0S4wv7uZdGGJ1zj8ledyzPReW6I1LDB5+DY+dHTESMOFwo1r83rB9KYIkAeWkp7nUtmTluy3PHRIypNfa0neCyPHaCwXBZ7rhyoGTKnxrNZCpHWKb1vIHUUgbZiniuGOhnYTHLLqWdD1WOZf1uiqR/58ii/cnskt3fS2whYR27XJ4oaKIyKk+qg7BgRqThzDGR6l5jLvfm8DUi9neNTdjWJsQuf9Sh/j0fuDeLV5FjEmNiW0d/vbTlv/jgy+DzP3peocJzwYYgdgjS2a91pBlzdCQvBy3ymx0WWT0iXrG0XrfWlm0WT2wxGw6sO3PEeovHrCW+i5rTNuj3rUgTq9djq0kQ8Ik7VrXEbvMplhtCYc+Qw+lRkrl3qzlbdSWIgReiIl6T5zLZ1SmWIE/qOReCmvzFtpwPRYWptTQKaSpwurJsK4vz8jO0ljT5aMtOixtjFqqDY1Fy0UoIMXogMcpPEuF6EbtAPXQDNzW6uq98uVgUYTaf5PaN5RP2+8eX7HvdzAYifVGNhCKfDCxLx7NDsDGNjMDJFRdr3XNeUgqGdm0jtneNT9qkHg655/3aZ2rw+WGU4F3bGXHc80RZtqONCfcuxEgeff49Rs8rVFgrNm6LPxXKaSztfVwk0uzzcpBZ7RXX2/iH3m31t77RhtP7LEjHbEx9fZiu2FywYsuNxIJ6YW1dG3M27MiOs/+MtM21dBdoY9SdDhDjuYQE95OCxZk6V8J0ZKi5LfZuL61Y+sCjNv/p2yy4916ri0jzoG9JXdo9SzmV07q05obKi07MV5/WCwifvjRsTF6TEjwtSESsnEWBdZPC7l3sudUvTybS3UO+Met09HK0IoEjNnKu3JO+FAiuYiFcnK5R5whpLuOeKyBn7zyRe/LjN8dyZFe6URL3/jciIPThcOiO3oFRIh89r1DhueBFQ+wQInZuvnjfKZrSbDvWazYte9nLbMv7P2A73vE+yyYvtnxuwcalqYedyE7kS3Z8sCAJYNas1a3go9kUeaTzXyg4LdgRHAQI4bDlb2Fjw77VDx6ywZ132fKX/sEGD91lQU9avIhU445ymaECF7kqAK4ksnUCJN2T9s02AWyYxj+3TYA45s5B3/7v2WP2pbkVO5Ik1tVIoyctna0c3AhildghUkYQjCxcuVS13GYfHDGTM6UxEkCQlaVfOyBm3KnEPorRe6P3IUXmayD7jYg0TZ0jn9Th2cpYocJzxYuG2NFnhtJqUmk5fBQZMumLLrphx8JrbrLxD/y0td76TsvqLavFDauHYnORVSotcyglN2FnwSSzLVksDb6cyLtgUGKRtHO+HhRLM4bkE2zwDfaGZ5mmyLWnUcZ3vmkLX/qChY89aM3ektXz1H0UeiBu8t+DXk/EirApzVzV5OqX/TEzCZD7+137X3Mz9pnleevnW2yo+uqJ2JmvYELZkTokjW3dOX4zLnHUroxKAIukIPaayLXOPInu4J4LPFmfiewgxFFN/cWk4TYaDWu1WieFT42X3XSstPQK64GNYWNfA9x8oho9pgg+bEHzr4tU1K1FICKOqSlrXrrXwuVZm52ft3S+a9uKuk3XWpYnqfWToUUi+yDFUi2iwBB8gcACnGiYWRgrn3LlMk7lgo2/GpI6ckE9sEFv2YLlnjX6mdUKlXN8Uszbsp789aF1haHM6wU+TML7XEvS3etB3SIR+FeWFu23jh60L8zPWZK2dH1CowdH6auhgASr8lFOeutJyCF08MOe+SEjo5wyRXbTWNveNT5mHT6UQjj35M5NXqcjc096HLnf76tWJEBOJXWugY1OkpQBrR0zjCd1rnnNnXJVqPDD4EVD7MMssbRILWLPc7V3KeByIvo0tCTLbZmtCCanrL1nUgQTWzjTteYxab2LPTcZWdRi9zJQLywJMr6And5tz6vOi7kC0wQaLzTH1glD/cTx9mxDAqehUUW0MrTaMLWwWZPA6ljW0FEjlFoQqWTrBwQcHyKpBTWNCGL72krX/vD4Efvc7IwtdgtrW8cC9qPHKIRaDyE7YYoGXpIpcwDcYesF9P5QBB5KiEUi9poE1s3jbXtnu2PNSNedUMKdve4hNRzx4yA4T96e+EbJD1IEXIMoOZ5K9hsN5B34/HPE5u7LhAMbuQwVNi7K1vMiQKzOWnOdXR1YuWblCW88BllhNWnimDj6Og6vvtnG3/thm3jbO623e6/NpKyBl3bPpKNIPecFmtqF7SzYpDNp5LxsxctXUSKJKoFUaPQwTAp16NwSkSFrS2p5asHKCcufftzS+75j6T13SkAdsnY6cAIqYbOwdUIqAdeLVYeqm291+/Z7J47Z5+eXbKlfVz6a1g8GlsRY+pWmCsE/PnLC0tNIvKTgIiJIlpUdjt5L7te525xN5amLtMpNHSGykszWCk/s3gFIO0kSR4KYL9iaYdQPxOhJcyPD53eUxL327stBOV8MZamw8fCi0dixzzoyUf92LwvpSKNnSWAk5mDXRGy7YdG25tbtVptsWTfs2mxv1vq9RWmZEgzSluNY2hEmCJE9cZV08Wxw7XTXf2goXfa6gZRsgKlCl5BMOI06YrmapBV6J3ufB+2a1cbrlqd965+Ys1qm351JK5rS3kXCEOV6QCnZQHm6c7Bkfzh3zD43t2gnuizF7FhUl5BsZhKE0iLZ/Gx1ywNW7COAqB+U9NKqLueeiVxdgquvkVVet6hVs5smWva2dkN5TnWfUJTy3LXrie9UQHwQHseZmRnr9XquXk8lydGwp4vnhQZ5npubsyeffNJWVlacgEJzH7Wz0779aKRCheeCFw2x09jLfxgQ9I/GH+k3Tv9Y597ASMBOhOoLxdYxC3ZOuhd8esdPWDC35N4GjcXorI3J5Jd4ICW6kXP8gW91lA7q6OvkvTO4NUF5tIYywtBBDmtQOekop8ScZgvhqSMPGVV0pIluaUsQBZaeWLRgsWthJF8TY2btujiWfVeUvsu+r49y6pL6YUthHdwvPo5BaUq/q3qzAmNA6evW97pmf7RwxD4zN2vzK9LG2YBHZFI0VPYaq9V5J0Bko4p0L4pRQaSiOFguWdYhUGphYXF5Q78Dm2pG9obxtr2x1VLdqlwqb2ll5/6ZAaHhPElDgk4oCrSDwWBgjz76qH31q191x1Sa7tjYmLXbbUeETuC7h1mC81OvjcILBoA/f/Tnp4Y/W1yn3huNYxSU4f7777fPfe5zdvDgQbvkkktscnLSlZkwnuRPTXf0t8+3rx9/DjgfTXs0XIXNjxcNsatVig1FCm5dtJxIwk2iuuu6v+oCESO7LC6HDatP7rJt43tsotewcGbBkuU5S4Nly+OGjnUpzxrqinCc2Zt93EORvoYFSZy7z77Vnb1HoD+cwZV9hQ50FieiDZg8ZaTAq/U1afDwOBO4chwzuUj3M/kd8PnU8aY1201rpBIxS/NigkWRe89Skf5yZ5vTnCNp+oG0aSidrzOxfDHMVQ6lhYadqr6SELttz0J28kpj49N27KleFAO7s9uzXzsR2mNLZgsruQ2TVAMIacNxJkJPLR8ob12lgSBhqwfFlzE/oGphdYwTEDwDKiJGEObWXoxt2B63pN63a1WXP9YctxtEuIxOevqNYCj1/TMDbRyyZsUIwOzCb9Li2uzsrP32b/+2fec737F7773X+b/44ottx44djsD4DSlCkp7MuAY82XH0JOjj5poPP0qWnmy989d93B7+HvD3fJjROLiHln7XXXfZ5z//eZufn7c3v/nNjti5D/Dj8+DDk09fNuDzTf3gj+sIDDCaN58ucVR4aWBzPWm1ZSYox6T/tkSScaDOfck+a7z7zVZ/yy22tHWbpUnbppKaTacimWxogzCxYUuKtMhsoGF9utizmLXycXM10nVC2V/PitBtgyDi1KgjxfyBxKnRiaVdz8/Z4qOP2PDhh2zL8rzVkxXdF5WzfzGf7NO/Fp/ig4Q1Ohg0ePEos5Y08Cgfc9+UTeuZ7hfWE8fdsTy0v5tdsANzx+340oL1EpEDyxgbsYXNusXNpsX1mpusZvXLmuEIhcJKe9cDOTlJzbMpD+cEpAQJeVLDTIGD1Lvdrj3++OO2sLDgrmFnP3DggD3xxBMuLGTnNV0cID4cYZeWlpwpB3/8hgiJ15Mj6XoC9EsQiYfw3IdYuY9/zn0aYDQd4vfh8M85/lnJw5G4m+xRr3v8xp+Pg3TIl09reXn55JwCjuuUgXPi5ejnGlhC6f14eIFQ4aWD59BjXxxguM9qmU7KRGRkw0bLhpdfau33vdt2vuu9Vt91jSUL6iQrSzYtjbhWD2x5uGxZJNKrSxCoo4TSVBs55o610ND6gTUvYRZZnmjEgNYNZ0C0GNV7KzZ4+mkbaPgefu/bFhw7KDW079a5Sw45FZovUKFGD9XB06CvypD2prKEffTkhiUanSxKs79n0LW/mF22T8+s2PGVBZsfdm2YM3pRRCIyJlMxE0FqvO27yjlnBvfJg45uYluCSIxjLZFSE+HEfblzReMBmUG2kBYk58mR4+LiojNhQHaXXnqp7d2712nwDz/8sCNUT6aeWAmPXwgd0sNkA2keO3bM2egJQ9ysK6e8hB1NDxw+fNieeuopFwaB4oWB98NvCBtwDZMQaSJwDh065PLsSZo0mBfAEQ6C5hpkDHnj9+jRo85xn2vE50ncCxfSJ23uk6/9+/e7fFIen29fF/glfIWXDjbEN0/XCxSENzVrQxUMbtFIvifHW5Pt4ZI1pNUNPv91W/7sX1px5BFrTo1Z3wbWS/tOM1Xzt2CoTp3qPKpZEmHmOHf10IHWA2NJx32Qe34st+YlW2zHvl1Wj+tW9OnMgfIj7bHesmhyl0XXXmvRDa+wfOclltfarrzibBUcsw4TlQMJCHXsvrRdCalUmn2vlduXewv2NzML9pXjQ3u6K6KIpb0qzYJN0dDYY5EbpMU/VuCkmKeULvfOAkxageqq1aspHbTORfvx8Un7/+zcY2+Y7Lj7A8xbzhhz9rg8qFdftxAU5/fcc4/94R/+oSOzD3/4w24C8gtf+IJt3brV/uk//ad2zTXXOL8QIGQG2X3zm990xHz11Vc7wkW7JxxEOz4+7sK8+tWvtu3btzuCJzzE+7QE6QMPPGB33323I3QIEuGwZcsWe/nLX26vec1rTgoKn79HHnnE+cf2j4kFTRoT0e7du10Y0iJfxPcP//AP9vGPf9wmJibsR3/0R12ZEAZ+MhXBdfPNN9srXvEKp91TJgCxI8zuuOMOlz/SoSzkZefOnfb617/errjiChcH4F6FlxZePDb2NYIXmVwzzkQK6ge5OpxatrRQkXZnzBq7dko770szOmYrc4vW6iY2HjWc6YM3PMOmhrJB3bLewIoLvCyyXtSl60rb5I3UibY1Om03YUl52K++VqtbLAIezs9YHy0w1TC8M2XR2ITIN5TWnbuXsVghxMZkonU3acoSRWrl4UFmf3x8xj4/Oy9Sl7AIpcU1Si3bcS0OHs1Vd5A99n1vEjoHsROWEU5cRJZKIEbZwF6t+r51YtJ21SVdI0QkZcHXOeJahSdor9WidWNX/8Y3vuGI8r3vfa9t27bNmWYgYQj0hhtucERGWNyRI0fsK1/5in3ta19zWjB+OaJhnzhxwh577DHnBxAXRE94BMJnP/tZFxYS9cQN+ULa5GXXrl02xYtxIl0EwUMPPWR/+7d/69I6fvy4GzVwHaHCPYQKAmh6etrFRV4gZoia0QMCx6/0gay5jwbPqATy96MY8o8ww+HfCyPyRnwIDQi+0+m4egPkxZ9X2PzYdMTudBrxkNq/I3ZIrQkvFaHb/jbftt3qu8blL7WVowsWzXStJT/s+NgXkRfSplipUmAKqcF4Fw6BGNZZQluxNSclhNrS0lQISBaCD9Qx+WiH5V3rn1gwW+yrszdE7NKImw33cWwmU2sae/RDTAW81IRZprDHNGT/6+Nd+/SxZTuwxHa7Sk+8LlHg0oa43V42HCFeLkPwaIlo8efU+hRKabEoMg0za4vYXydSf/3ElE2rXllBA9aur5eA9CAltE+02dtvv90tEbzlllvsta99rdOeMUNAthDcK1/5SncE5AfyfvDBBx1pYrZAC0ajvemmm+yiiy5yZAdRQsR79uxx5E6amHYgdoTKm970JnvHO95hr3rVq5xWD0GzkgUBwKQtwsCTLYIAsn/b295mb3nLW9woAS0fAiafhGEFDKSLdv/d737XkTXaNnknb6QDMSNcCMM9yJ0jAoVRy1/+5V+6MpLOO9/5TqfVky7lxVRFnigPAoHyMKpgpECdVNj82FTETpMVhZRUFQXqtGiQ0hOHELsIrhbZgvTGaGLMJnfsskbUsd7xOVs8fszqrbpc01J15CGdYHUYeyGR5iKxUMTcrFtnomN1kTV70CfqmO6lH47yE9bkhxed+iqYtDvRn0Wdhvu6lMu3BMQy3Cz2ZkL2cZXpT0/M2l/PLNpTy3wXtm5BXfUUKnyi2hLnuk//YVt3wqPUqx0VnxQoayAEiF0jBbbuHcuG9sbJaXvt5ISNSyawhQLc7gTUqvdzAcKDlNBUIWBWwHzpS19y5+9617sccUF2XtuFvCBayBdAohA2RAfxQo4f+tCH3AoUCPeyyy5zWjeCAls44fjtw0HgkC1pXXXVVW6UAPGTDnFiMnnZy17mRgoIlttuu83ZuBEC73//+929yy+/3OUJUkUDpzxcJy2I/c4773QkjxD44Ac/6NK78sor3X3iYkRBPoiHtCkHYb7//e/bG9/4RkfqmHeoCy9kWG1DHokHAYFgpC4rYn/p4MKqpOcbIo4oLdySv1BEyGIO3ogskiGcY26dy2BZDV3kt+dl1v6RH7X2+99tK9deaWlnwjpZbOMDlh1mljPXdIH7ACtzkjgRsYjMpC1jM2eJJI/JLVMUKWTDxAJMMO26NWqJJcefsO4937L0e3eZHT2skcbQ+uz9kpa287vk/48XV+zPF5ft4aRnKdsYtyKFZSmhCFwCj86OJh2RXgYBy0HSvMzVEBmI6NYEjYqcWUeilbeEx3TOt7sREE7YPgdARDhIFkLCNAHJYZqAsHBcx0HQaOLYzSFcSI1wACHgJw8JA0Fyjh80acgeDRpgkkGrx1zCiOCf/JN/Yj/+4z/utF5vb0cIENabOXw6mGsIj19GA15TpgzEhxYOEWNnh3wxBTEaYHSBcILsiRMSxkHIb3jDG9zEKVo45hni8qYgwlx33XUuHYgf8wtAyLBsEvMPIxzukUfiqUj9pYM19tgXCdTwTUTGN5VZaser7in8NSYiZw31YGg7wqZNYssuYst277GpH32HXfLh91o2PmaDmXkblxI71R6zfqETp7JeOBQSJphHGHUE7J0rkmWtvlt2KO3dGso3tm6WwUgjLqRx161njfnjFj7ysGX3PGD9Y0dtoDCNIrWn+4v2V0sn7GMLS7Z/ENowqkmADa3XEkmos3fCjrMPN+M608ZKU1q86i8blh8mCSKRPR+hJs1z1AXauKMNRx4sdSzMrcSUk+xwxA4xnTMiAX/Y1iEkyBNArGjl3GNiEO0VsgKQM8SOhovpAm3bTzQCHxekR3wQqo8bkkdLB5AzBAogZUiRl6D++3//7/Zf/+t/dcff+I3fsM985jPOTALBQ8IIA0+8kDZxOmG5KlSoY4THT/7kT9oHPvABp40TlvuQOfnDjEI4H8aHJ078ItAAfjDHUFby8R//43+0//Af/oP9l//yX+w//+f/bH/yJ3/ihCBhyBcgngovLWwuYodU0DBpyHQMJhHVgXk71U3+qVPEIjGTZpyHK3KF9bZdau23/aRNffCXrXf1DXZYAuBoEtnT0U57YHrajrS2WJZPWXM4YfWsY0lUt+VmYL1GYnncc8vMa3FLpNyytNa01KUl4ggGIsTUMuUldW+KliaIs7kWWwekkZsU5QPe2LbRmiN17hjTSyaHSpw3LQ9Eas0Ji8cnVEZ14IMPWfiN2612x1ctnHnEvimN8A9X+vb3J+bs0OyyJctKQZKjSBRvV3kXuWF7Z7KZS6wmSlVHrIARE6gMYTn5nEjr1OjBZfAskG7t6JwG1aoFdrEI62LV1fhAcQxEfhKU7iWwc/P6SZSCoCRmJh8hU4gNm/nv//7vO6L99V//dfurv/orp0njH2JHAPjlhxAkjjggWE+cnjQhZj/56DVsSJGVLb/5m7/pVuAwCiBdNOTXve51TutG2wcICNIiDIKGuDyxA4748atp0KbJC+lwnXD4geD5DXy5icfnjTkGrkPohKcMaOmQPEKFczR7ysAIgZEJ2jxhK2J/6WGTEbucI6WRTiVX/pBbXd2hqyLJWPzOEseWRRPbbexNb7Lxj/ysPf3G99g3L3253Xvd6+0bl99q37rk1XbvnqvsyekdNtNqWl8qKOs7iLBgb3UxFcsLeXM0hXNxpMXyP8xBsKPzfW7nNtfKRTgSSE4zj+UUnzONiNTZWMsRo8pUsEmO8h9o5FFq1H0L5o6YPfqAzd97p93zxOP2nWPH7cDikhXDXAKoZiH29zBySyOJx+VdcbOo02nU1JXIxU2iOjuW/vPG6ppACXAiLMhFaU1j7lHE5c6Pur7GqCAuT7IQL3ZlzA+YWrgOeX/5y192tmaOvL2JvRryQ8vG/ozdHdAGiAftlWucQ4oenlwhUb9eHHs7k7QQOrZ17OU/8RM/4bRtbNpcw6/Po5+sRasm7x6ck3/iZzSAsCBOiJg8cJ/RA3FwzhFHngFh/dJH7x+SRgiQT5Zokq+PfOQjbjTwUz/1U+74cz/3c+7a9ddf7/x74VHhpQP13pceWKcepbyRWXO26DBftHD3Fpu/9b32nbf8vP39Te+zL7/iLfaNa3/MvvCyd9rf3vh6++x1N9h39l1iRya2SZseVxwtKeYNSzJpo7m0/1xD+AK9V3Af06jpNwIEeznXz81qEKyGGU5LxwzyrCCr/ZL9WCwWGRBnX67LxJiETVMaZDOyfG7WTtxzt50Qua1Iw817KyZOt3pbAkD33UofxR0oj0x0nhPPlQ8kyHJplWNRbE2RjykJt12xk1BrjwyCA5AnpM0qFAiOSU9Ww7BSBTv4rbfe6o7YsFnqCMmisUOkEKMnWo7YndFwITmIkiOEz6Qm5McyREwp2LEZFeCHJZUQO2lgy4dUvYDxWj9p+u0AMIMwsvDmHtKAnCH0T33qU/bFL37R+SEs+QP4wT+/fbkB5zjukX/iI33yiHAgTeoCWzz2exxmKkYH2ODR2Kkz8oqr8NLBS5LY6Tto1axAGfCB6WZoR4u6fXp53P6qdYN9bd+b7OvbpLXvfZXdccXr7PM3vEXk/i77wg3vtG9f8lrbP32VLda3WFqISNVh+HB2mA6dkKihDefMGNYs132ILoCER0n6DHDErs4b1USD6vhuXYr+O22LTBOHtOw8YjJYCfGmqbghF7GndaXFl6WG0vCOPm35zKwVItggU9qRAsaKnU3sFY5oikJhy5nOdYKLVS6zUKSzrVa3jkiFFhZKkNQYAaxRSkBg3pwBIbH0EK1937597kWeX/iFX7Bf+qVfci8o/fIv/7L9yq/8ivuNNs2kI8TMRCaESnhXfwLXvve97znixw6P3R7CZbUN5MnyR8wlkC6OsAgIiBxTh18njoNYIXRvPiFv1157rRsVsIQRYQGBE470vv71r7vrpInpBsImX4QnLS8EPJnzG9MRwgbzC/nDH2TN6hzi+Pa3v+1MVJhgSIs02VTs937v99wohjIinMhnRewvLWy6dexrAR+1GErzZRuBYazOm3XsM4dS+5P7lu3u+Zp1Rdq9omF5o2XdRsfmO9tsdmKfzYzts8XWtCWsD88GIvK+RUlqNXFnXZKiIa6ts7WkxSxAdKYOtuYSu0o7lvZ6Djjdsq5RRKdtjbGO+9AGpiNHAuJMjEjEmcYD8WVNwgQTQGRDETcvBZE+unHcrtsjWy+zxye32gmd92P5k3bu3kjNJBRQFItyUy+FJNV1gCpVxKTc2Njygv3I3ovs5tWljqWyjgEMP/woQ5wN+EdLhVghKwgR4kQ7ZRKU+2iskBb+0Ew5h7wha0iQ5X8QGkTMChHO0dohQMw5EDovO0GKmFcQDBA0pA1B+wlbBATnLCPkBSniQvOHZHn7FGGCIOI5eTMQ+fAmJNIgHFo0aWCjJ7/MC9x3333OrMMIxGv9ntgRCkzeQuyMSNDGiYOwmIuIHweBk0/esOXlKOqMJZCYYrydHYKv8NLBS5LYnR2cj83lXTuRt+1vjxT2v+7p2hO9ljiZZWyh1UWq5T7pIitpt4muLTbbdqI1aUuNWGRat2F90tqD0FpDDcelNbdEMCxTNN6+FPm775RGIk5pyRFLXs4BKJYNuJrj6rxjbQuYmcV+znXIHUaUQCpY9pNLo5cQgS4TDRMg7VoqP1HT8i1Tdt/Oq+z7U1vtWKOmkiptkX4eK2+Kj5e1ED68lRuwMf26wI0vROyJ7R0O7b1799j1KkNTVzEfkaISXzOpQ24QKoSFbRoyg0QhRa8pexL0xMU5pAq5YtbANAMRQq6QJCtn8INZh6WTXIfUIUzWnuMfLRlTBqtUvJkGBwEjDMgHa8aJn7gxhbDKheto1+SD9BEmCBjSgWghWEgdx+Qm9nhMTMQNsd94442O2AmPUKJM5JmVL2jrrHNnQpR7mGKIg/z7yWK/FJM8YZ7ixSVGINSTN+NUeOlgU+0Vs2aoxFk+tKO9FfvC0cz+8EDLvrckjSaoW61IRcqZ5a0mpmxryWFeYbuBpUamY8/GBgt22dwJu2S+b2968Jv2sgN32Y7eYdvZPWzNIZ99jq0bi/hrIp6wr1+JSLe+mviZ0VPGGpPjNrVzmzsa5pVVAmMpIi9ZiTnF6XxoIrR4iJ04tH5T4wJp7M0+2vu4Hdg2YR+7+A326e177LFGaIOccmkU0VZg/a8l6uySOkNp/6E07PVAIQFIPhuqn9eL9P7V9dfY60VUbJJAhbNefq3E7gF5MhkKgUFMEBWERjqQFSToCR5tHAJEu0Ur54jWCnH/xV/8hXtbE1LlDU20bTRdwqH9+5eaIFhPgIRHS8cRB9che+8PswxpslKG64D8YhYhboQH5I0QwryDY1kmR+8XTRtih8TJF4TNub+PkOI+11kuiXAAlJ0yIDDIH0fmCBBICB3qiTyRtvdPWREKFV4aeEkSuxRbOz4w+8qhJfv9+4/b3cFeG4w1rOgNpXFn7sPSPRFmk+1/pY03hyJ6y2wllqvrvvr+eKqOLoK8+bHv2KueusOumHvQrpy937YvHrcgCWwYtixzyxUTp8XyEe1zYaXIrb11yqZ3a2g/3rYskkYtQmFVjPsMoMjRrYBRHjPs6YozkCAaKk8sq4zTjh2Pp+zO6TH7+N7X2Fd3XmTH2zULM40ChuxBI0EjrT2Spp+J6B2xs15/HcDinyJLrVnr24c74/Z/XnKxXdeRvl5konPlVaOfwmmiqwHOAkgNhxYMoaI5Q3gQEyTFPUwfgN/cw0FekL0nPggYgv3zP/9zZ6LgZSPs8lzHbo5/CJB4iQ9yBF5gkA7kzciB+AlHnjxRcg8Q9lTSRDBg0iEeCBeS9WG88CAefnPEj4/Pl5Nyc06agPC+nNznnhdm/jfx+LohvL+O8+lW2Px4ST7p2WFutx0b2scOFPatZMIWsY9mfYtC6drN2L0QVBdhZuGiiLxr881UfkQ4oujmUGQ/aErjb9iJWmT379pj377kSnt4xzY7Ol63RbT6kCVsmfHhDHZWbBR0TBjNOwFxeopI9Z/8C0Us6oW6rX8uCH9WAzBhyg6UccOCViSiVlrpsohzaGGtbv32uB2WOxRGthjEbn29RS0JAcXXHVq23LdMBMYeNN7Msy4g7yIR0Y5tlWY5FtcsENHnbuJYaWW50vyBIp8WnqgBJOYJHpLiOiQ1eh9wHwc54jCpQHCEgaA5ehAfmjcvOeEPEI9Pg/DED8FzHy0bbdkTLPeJm3vkxaeBg2gBQsCH8/kYzYMnceLAry+PB3lBGHhB4p0Px33yTPpo9Ago0iLP5IN7xOkd/iu8dLD5nrZIJM+HOqgDwDVq4IkzN7AcMbMlXb79RG5/8tTAvrJUWH/LViwwlvWlratTxE1puIEInN0gpc0mIvsuW9426pbWGhYFDYsLNgpTOor36Ni0Pbzrcrt/n8h91yV2fGybpRH+eGtU2pk6o3ujU/lIdY6jexcsZ5RT9ysJTxdd2g0JGdavo2GxJLHAlq7OycQAtnF4LC0PGZtrKY6wkDaYtW1e2voTk9vt4W077FhnzBIEhDN/SFNkslgJ5SJYlwcJLoXW/fWB08rlKPOlrY6Nh9KcXf2L6iXgNGbRkYKuBjgLIKtT7eieqLgHUXpS45lx9ATmyXOUhLkPkWMDHyU4f058hOWIX+IGHIkPf6NpjBK1D+uJnfR8eML5PHGNvHr/3PPpe/+u/clxH4zmY/Qa5/436SFMPOGD0fSoR44ePk4Pfo+GBVwb9efPT71eYeNic02e0vCG6mAZJK7G74wgiQ2KFasFXVsaxvbVE4X95v7Mbp/X0FlaZaROQLOPpO3y0o94T3SnzuheAGrpfsPZp9Xd3PtNOuW9IMtjEUAIeTSt25LWPzEp4m/Z1IrZ9pW+sdN7EA2UF+UgyUT2oQ3R6MTgvBkbqoPzspDbC12J0l9a2yetvnXcwro6o1wYNSUURChDdWaRo7JAIfkjxV1CRyQaSSrFxVZbjvbY3eN77VM7d9kXdm63QwgY5Y+XhaTSK28KV1dcGo3wRitx+Zenni/IERPMNRF3pzW0/+/0Xrtc6VBmKozRQrchYck8AaOEVVJaCzyJjRIh4ByS8QTnAQF7EgaQHiYJJiaxubN9APe9mWKU9AD3/DWf9ui5/+3Jc/QaeYJI/W/AOXGO5p1ro+UZ9e/h/QCOp4YBPm4fP7+9P/JGHr0/T8in1hm/qYvRMhPOC0QPH4cPPxpHhY2HZ1rJZoDIhUnBWjhu/VrTltlQqxDJDmq2lG63v15q2v/8/mF79NiStUTVdWnBOFa/POPUuaUR43gXiOYrhffZxxHnSFPVuFTbZYemXi6t/RX2xPQ+OxE3LBGRqXtYUmdfdWl9qw7NlrjUS8qjfvOGrChaYkLCRj5EGyoOmdBoQ5kplLGspjFCQ2TVUDwK00xYbZPaQjOzR7YEds903R5vj9t8MK10sbO6yM87qIdEtVDEqQh9UkKN3DExCwnoPrts4o/W5iptfeAJyDv/25MYYCkiK154Q5OVJ5g+PGmhPf+wgAhHyZDz5xPf8wEjBW8CouyUz+cJkuc35A1OJWRP1KOgHonTCwaAPy88iK/CxsbmInaVJmiG0k5FjGqrEQv9wsyWirZ95mhov/tIYl9ZrtuCtEhWuvjdDPlSUCCtWiq1FQNcYrncWniRrW/VBWwpmrAnJ66w7158i9217wZ7amyHLRd8NDu2XNprrE7BvjXuIxgQubRbtglw5M4SRGnR9ahhjaCh++qsIuyB6HIYSuMXYaZyeazhPx/arjOmUFkllJbDmj0+0bJv7hyzr++YtIfGt9gixF5oyO9yeCGglMLUxuqJvaW9w7arBJigIHY2AQvFfzVJMPbmWU9ANF5j9Vorx1Gi4tzbuyFeCA5i8iQ1Sl5rAQQ3Gob4cFzHQYgXGr7cgDLx25M9eeUeJM8kKxPEo/nnnp/YHa0P6op4uM4kMKuTKOdoWhU2LjYVsUMbubRDFqA0stTaac3m07b9fTe0338qt/sOZ9ZtTVk0MW5xXQ20LkLgLU+ce41/1bGfihz4AW2d44jDJJNjUpEkmWt07MFdl9vdl7zcHtpxrc20t4uY5S/sn+wQntiD0gBdpoGdXOQf1lsWuJeJ1DHzzJJsaHnGlgfSMOU1dpOxhTVsqDBmy7W2PT623e6c2mPf3LLH7pncakebbRs61fgCgmJodDFRT+3NYxM2TuZ0MeKGKg2qYyTk9tJ5hnOfNyCiU50nWAgKB7n51S6jmizPgvuQ1SjRnQs+bo/RuCBTn/6FBOnTvsgDaXPu8wUoI3XAvIO38VMXo7Z5/Ixe83XJkXCMdIizwosDm4rY1RItS3vShBdEfgNbGdbtS8fr9n8/MbRvz0rb4EMSUh8zEV8uVfKkE7Fmcv6IbdgtNVSUo26Vp57l3BeXRO68HJRL+58ZG7OH9lxnD+672Q5uu9K66hBmK6ppxYdTR0EgkFfXEYmnpk7YqlvYkl/Fl7tOqk4looiwS2fSwiStwkSCKAksEtkv1ur28OQO++b05faNLVfb/Z3L7Fi8zW3Z6yaK7QIPl1VfExot3dCMrSE+8d9AhQLZRwyrkuii9LtO8CSLg4xw/tyTnKtvOa7xG3LCcY6D/Li/VuDXa7KkQXhPrF54P5f41gOj5R81y5Afn1+fT/LNfT+y8H64RzycUz/+OvBCwpe5wsbH5iJ2tERpt2i0c6KRLywX9rEDud11sBDxmo21Mb+oAzjbd0k47uid2rG6v3tt/1nNF/YVfqC7cp1OoxuNvG/1pKc4Cjs2ucse3ftye2zPy+zo5E7rxjUXN3EWOopSpKyThs4QIM2aRR1p6yL3XCTPzo6Qv7P584YpM7YsmcwblhZNW4g79tj4Vvv6tn12+/bL7Lvjl9uheI8N8vFyJBBIkLh9Ay4MKMdYVLOrG23bUlPS2LlGzC4qqlsZI5p1br0AyXgH6XhASN5BSJ7I/T3OIUHwXOziPg7iBD5d4oQIcS8ERvPBEe0b8uY61yi/n9T19QW8f0jem144jpK4F4j+N47zChsbm+4FpZyPPRepfXZxYL+33+xbB5vWHtRtTEx5orZoebslIqqz8tFRzOkK76hHN/yWtXSA8qQ8jKJoICwSq3e7lkosrHQmxBax7Zubt5uf+Ja95rEv2PWH77LLFo5ZkEgDF/G6b6rSoaDEemzN6XHrTE1Za8sOCzTsTTK2O9DQWf0vKsrVN2moMYhGGwv1mu0f79jd0zvsK9sutrsn99nhujT1vK6RylCjgiWNPLrKM2ujL8xkHrLk2mZgv7Jr3H5+erfVI3RzCZaAd241QpKAagzN+hqQNFSH60V/nqAAz+jkczoFnqAgLMjLk5UnaEjQmyjOBk9snsSJZzRdT3oQ6YWEF1LkifQxu5AnygdpYx/HkT/u+fLzG3/kl+0KMLkQB2/P8kYrYfHDHAUbj7GzpMdzEYgVLjw2FbHTzVmnfs9ybr+7f9k+/zTD0pptC9uWdXM7Oli2ySkRnohyKNL23Zh+6frm6pFT7jKgpXJOdvjVwyg0gNV9Df2lIbNmm/ECb4V28p5dOfOEveLJ++xVj99pt+7/nEXJ0E3YsjSQmPnQRdGsW3vblI1vn7ZmZ1pp8KGNvoTK0PgQdRDVbVBr2qzcTBzZ/vakfXP7tfaIyP1+CYOnm5PWV/ncxjRZqrwMjZeW3D7tbhr2/AOz0Ts0HPrPe3fY7smm8j2kFnRHIxU51uFHqkxW9NRU9POh10JUACLy4JonYf/75LNcBf7RcE9dpngmMAHJHi6QJmHYZdGT3/j4mNK6MHV+KsiDLzt5g7zZsoCdMXG8gctv/5aq1+ixnbMFAbtkciQse9Hz8RL8Ew/bLvDWLhuw8RIU1y608Krw3LCpiL0vLvn2bGH/4/4T9tUTIpV626KwbwsrcxYMxqxVjNlgaWBpMXDLB0WbrjO7VSlBaVN0dnDFFcShxdPSUOjsqx1+tN9zCj83Bl1H5N2xptNca71Vv/W+be+esCufnrFbHvmufeDe/5/VhwOnsUO5kExGWu2GdbZvsfEd26whkma9epH2rMhTR0hZo2kLzY4daDXtgNK5b3y3/d3et9hxachHG4X1YUoI3Nl6dGTiUuH46LXbimC94KMqi/csYFb6ybFJ+52LdtvM+MA6EljjjkRrqmsN7SF2PRu2y+Hdq9NE8byAZunND95+jIOA2BSLFTE8W0gYrdQTH8/Am2nWQupou+wI+elPf9rtzwKxs48Mr/GzGdjb3/52t05+LXGtNyiDB4TNpmD/8A//4HaVZHsF8urLTB1QP9QVv1kS+qu/+qtuPxo0+09+8pP2N3/zN679+a9D8RFwyJ29aNZaXxVeOLxoXlAqUmkjLEtc1fcgVfQTpglxS0lm3366b//hjtKmvrIo7XkpseGc3Lw06sXMsuWhpV1pWH1pyn0NWxXQfR9DLutqaLoisl3JLZXLpPUXc9LCFb5YECvpWjAQZ6ZonKUujG3d5SfABh46bTxQrkJp8EGh9PRroTVmS+2WbSuWpLX2bYsEwZRGDEHeVOeq2fT4pI1NbpXmPm5hNCZBxIochRQTYq+fi1r2cHuHfX3LpfaFndfZV7ZfYY+OTdiiCCmBxHkzNSdHI//UxyUelMP1QRE2LOoOrZ2wsoJ1+5lNNCdEDBJUadder/L9rATTjdLW6yKDpkRXrDrRIN+tz5f8UpmcvNG1teFM5OEJjHtDBKVIev/+J90uiJ/85F/ZHXd8w21fe8cdpTt06GlH7mwfgF9Ij7Bei4fsOF8LUSE82P+crzaxCRj7zUB8aPCYKfggNS9CXWjS83UCWJrITpRo3Owu6fe5gczJK4TOb8oNsXNEML35zW92eec+ZeRDI9QLdUb87HzJC17UJbjQZazw3FC27hcB0KT5dBtasWOHTCw7XLEwT4yvW94zN7RP3DUjUk9scUUdWLeT5cyGi+rIKzXH/mlXJJ2IfdFuExV91RVDxS2XD0X0CuecBjJDEfvwRGoDxd2fH9hgXtqLjsO5vvUXBqWTkEgVNlImolRH5ZNtf2NRP2aIhbhhh0Tej01dZidqW0yDBav3MclIWNRFMGOx1ZuRfKoTUSacNO9+MG77Ozvtm9v22Gd27RGp77Y7tu2yRyembUUSZeg6Fpr5qpNgKWldhOhE3vqBLzRF0vjY9jflgyL12Ia9vmUqw1RU2E3jLXv5lEY3kjNN/eEVK0QfuaGBrWZVv9aOsxGHv8cHPCD3Rx97TJrpt+2B7z/gSO2RRx9xju1z7777LkdSkDIkhfPhIaxRUjwXfHgvDDzxQYbED55LfOsF8oMjbUYQX/nKV1yZMbtA6IxKIHGED3vKIOTYaRK7OvvQs50xGj3lIA5fR5xzxJ5OHF4YVtj4eNE8qQK1z714lFvSlxYi9o3SgeUi6oeOJvbX31uxLzyOViVtW5p9mkgDF3fypSCIybEOmrUo11EMffssTsGwnruVMyn7qwxE8BIM/aW+9ea71ptdse5M1/onehIeAwkRCQ2RfChBwe6J7L8eBhr2i+bY6fHJsZ02M77TurWOy1cQJGZj6pATIuFGZrHIOg8Ub9C343HTvt/ZZbdvvcr++qJr7TMXXWrf3b7VjnVqlriJyTKbDs/6cX4QpSpbK7ZBp24D1V9e1K2r0YcehF3VatrLJ8dsR/38NSUIxhPmKOHHUeyI7LFHH7UjR49aQyTGbpiY1SCjmn4zEYiNGa3aE/JoHKf+XisgP9LwhMo513w+LzQoByYT9mfnS02QNPnxIxT2ycFU9J73vOfk5/74hivHt771rc52jv/T4YUqU4UfHi8aYkcHdTsSZhpOJituI6t+WLOHZ3P71Lfm7G++tWSHhltF7CJiyF0uF7kXrPrjrRjsz5gtREylHnkuKAwTYdgQpBEX0saLgYRFV3GvYNpJLJ8fWiLXn5M2Ly1+qONwIdXIQGkPRTAiwFrUtLQ9ZY/svc72X3ydHdm5z+bHxy1pN6WtN6yQy5o1K+odO95s2wMTY/YVkfjf7N0nUr/Mbt9+uT0wvsdO1KekxdclaJ47CT1fBBpFMC/BJmh5rS0C0XC+Fdl0ntpr22N2Y7tlY+to+vGAUCAmHOenIxhWb7D/+srysgis1KKTZOhkHWSLaYL7TB5CfKNxQGRnIrPTwZMkE6VeEyY9JiDZYZHjCwGfD8wumF+w//ObsiJ4IHUmPj2RQ+4/8iM/4ogeEwwfxaZMhPlhhFyFjYcXDbHTHbNMrJ11rdGu24qI84GVhv3ZA0P71PcW7eg8Q0gRpMjcROpiIjkF4jVU97qjOr0zD6xq7GeFwrog6vTq+EGIrVhO4UMJiCiLpcVKQ5PDxJMtYMcfWne257T43qwIfimVcNFQNhc51Vs2s/Nqe2zvVXb39p12/9i4HW2NWTqxw4aTu+x4Z5sda0zYnVOX2N/svto+fsnl9leXXmRf27XDnm6NS8NXp+vV5ZQ+5qMLjFSjo3yIiQg5pzJryBHVzV4lMnuz8n2JyKBcQ7S+8MTkiX0U/E41kkBDRSuP4pKgIXPvl3NMDEweMpkI8REfgMC8WyuIj8lR/+FsTBl8fYlP0GHOgNifi6BYb1BOvqZEPny5KP+VV17pPnSNGQYBhFDyZadM2NjR8P1k6oUA6XhXYf3xoiF26R8WB+zGJyINInti0Lb/dvuS/fF9kT0VXGRRY8waC0ctSNVxnXq/6mg3zq6ihqyjt0SXN84E3Xe3nS1Hx9Iv4djEK1b6kci+BuEzEuAjquI9Q5sXoQ8XBtab61r3RM+WRfi9eUmYZbOnhrF9U1F+XULnvrxpT8Rb7aHJffal6b328alt9okd19tndt5k35i+0r2A1IOk2MFRGnNzmNhY36zNHgVny/r5QFxWZNBT5vsqi7i9qZHTj+zeYzdKaLVFCNKrS7/nCaeScJalbgLzcRGZX34ISdTUQNiil9+QVa1emkuwt/NFI48fhlTQjCHJn/3Zn7V//s//uf3Lf/kv7aMf/aj9i3/xL9yn6NB6X0gwOQq5k09s/pSPusCOzooXfiMkR+HrgPqC8NHazzeea71XeO54ERE7r2+L3mtjdiJt2ie+fcK++qTZzAz27IY1OyLBlRn5VMN1/V+Np1we4oBgcNfWzIryJ/KwTFqMXJ6zTh36khaphknjRPfjg9CBRgpsVRAxZcooQeSXLvatN7NoK0dmrbd/xrK7j9nc/qN2YLlrD0m5/U43sH/oxvapaNz+Yuce+5g0vtt2XWGPjF1qy8F2i/vS0t18XGJZY2jDhtLX0+LjHRccrfLlHbY3iIvM2vnQXttq2C1jbdvaFMtLi5fut+p5/TFqIqDe0Sy73Z6bND144IAtisyShOWhgdNIX/6KVzjtNEUDVXOA4DHHIAg49/F4+/haASlCgKweYSISbZgjaXLOfR//hQZlYbIUcqdM1Bl5IV8s9yTfpwpH8ktd+tUxYPT++cBzqe8KPzxeNMTO8J828XS/Zn95X2JfeGxox1Z0PaKDdi0dDC3obFk1nahx4lxDViOXo72WK0ZKd5Lxz4ZQrDDiCsUDtWdyqeJIYQ2lF0krjCKIHeKV1yGarUhlZWD58sDSuXlLjjxi/YWnbJh3bUl+nyjq9s20Zl9uTNidWy+yB3dcZjNjEzaI0TxjayQ1qyexZBNvnrJjZSByF6mxr/r57Xs/gIaIGyMWq2JajcBuiGv2M9svsstrGr20QpWfPeHPT1OCoE5H7NjOH37oIfdd0BxS0vV6o+5esnnVq15pl152mZs8LVb3nMcMw0oR/0k8Hy/kdqoWeyYQzhMTYQgPOHo7NwT6QgBi9mvOqSu0b4id6z5P5J18+3KMloX8E85fOx84Ne7RPFRYX7x4iF1kujIs7O6jgf3lvQN7bJ5J0NQ6tUVr2oJlYWTJ+A63IVcYBavOcbscxM7EF6ROJ6YxnaVBqbExZ1prRCKH2GK5UCTmlqsrziJUBxHRs0KHxezsCAnZsgVBIc3RROxhUrjtACLjoxki56lFS+uzEg4rCi+iqTXsmIj86PRuWx7fY/18qzO5hOG8/A1E4oHK1BS5d6w1aFs9q5n+26C5NhJaO1QPdK7yvwCBUpjyFmA7gEhknkuwNOqF3bplh721MWlTqo/Feu7eIwgxR60zIBrvPCAhCAtTg/toda/rbMSNpkZtjaazdWMuueKKy22LtHYmVL3dnZeLDh8+fHJpoo/Xk925MCoMwCgZjhLmhQZpko8aH4vROUROPim7d4B6GNXcOefaqEAqw63/swQ+Xe98fVZYf2yIF5TYnpYXWfgHHKfo1B31h6tD/XlwNrNPfa9nX3wss6VUhBlkVg+6jsDzqG1pVpeGOzoU9g201NOVxGq85e/y/umdm2oNyk5QXlKnlXPnDmqQYmiWKTIiINkcx9eQAo0e6j0Lx5ctmly2+rY5q+3ZL+32qDT6OTdH0JveacNrrrXw+pdZIYGU9SjEogSHNHydpmrw+KtlSoO3UZVurtEJe5qr2KfgZKZcGZ/5dQ4oUkYHfFEpUrwxZgTMTiTg5phjq6Xq6JYYH4vaKoK4tdGyn961W1p7ZHFNwhaBmQYSX0pVdbFeGCVIf+6ehYBW+tBDD9o3vvENW1pS/UpTZ+kj67Pf+c532sX7LnZle+KJJ212dsYRcGm+6dq+ffvcvifeHu5JcS0Egz/8o/0zYUucXksGpAPBn44cuU44v29Lv99z4fEXqy5LYUH8mEdSd395ecmZnMg3IxTi9WlgS3eml17flleWdb/rhBbr+ct4y/JMT2+xiy++2JljSJ8w/kic/jfl8OVieejjjz/uygrhE9/VV1/tbPW8oOTLlqq9cO7rBXBO/rwfwG/mQYibPB44cMCOHDniTGNHjx51zpVFecCvn9wF/vn4c0Yg+KEu/D3yTX0QnjJxxATFPfKIv1OfL3GMxg34TT6Zi6HMOC8kuYcDPgxxgNE4PIiHfFAunjfKBArIhcKG2FJgabBg7Vpb2q1UUuUGMzJ7d1OPmDZiHfcnZp+8f94+dttx+/7yNmm0k/K0JA89q0Wh1QcaevYCGzYh4NWInweYaHUvL2GGwXDOBCLE7ghdhJ+JfTMRX8zHB3I1uFiCBUu+SL1xwmzyiIXTRyzeMmP1iXmLOsdtaimxbP+srRzNLGhfZuNXv8Hql77SVqKOLfYT6w1XJBhKbdK1IdeYOLorLnmXhVMw2rD8uUKWwc6GHEJpWqj2xu6U8cqiDVIRTiu2qNXRCKRtzUXR+tic7daI5d31afvI1m12y9YxCdVCz4hNovjEt/4xnFklk+cL34koC53Hd2SvVbKHye/8zu/Y9773vZOdDzJgtcqv/MqvuHM61f/8n//TbrvtNhcPHZzOztI+Xo2HqEgDooAs1wpI5NFHH3XaP+mQNwQK8WEG8nn1ROLLQudmKSLLLskbI8qdO3bYdddd5wTNYDiw+XnIb9aRwoLOlxSGxkzeiY/VN/jn/re+9S1HGqTH3BMN4+DBQ/blL33JhslQRD5tQwkc5hquvfZa27N3r6V8TOYsoJ4oHytrIHYEFkSO+YplkjjyCigT5aAOqH/ywTXgzT/8Jr5Dhw65OoPAIXSO+Pf1R7qsNqIeiZ9RFy9QkTbl5j6OeHnegJU/Ph22TXjsscdO1jn3brnlFrfMEz+E5dkD0gPUKdcZsQDyiuBBWeDIvAnzJ+QFR9yE5Uh7wT9xkD7XfNk5IlyIh2eOH+qRsr3pTW+6YBPsG4LY+5kaCN/nXLXTkiE2yOJjE3Wp40wY3ra/b39w56x97ftLdjjbZVlrTC1oyQJH7CLYrCVlkxdo+muhtHMCenQfrFY+CrdXgOJUQxDLW8CSx1ydV44lmBmvk/LCUX1gwVjP4qlFi6dnLRo/ataatbwxr3HwsjUXVsyeXrDkhOJrXWSNi2+y2kWvtGF7p/XZSEXaPnu80IDytHybMFPDKHB8bWm1E2DTHoVrVKcU2dmdacQuz6eBwhRqlEG9UZpa0qENAo0WJEX5kHc7V12muZ7NwHaFQ3vT9Fb78Z277E1jbdtGYkVm/Vhl1vPBAh/x7M6U1nME5aHsHOlEvnPSidB8eOX9t3/7t10HxA8Ex+qP973vffbud7/7ZKf/7Gc/6/Y8gVh8h6Kz/+Iv/qLb24U4nysw//C6/te+9jWXBmlDQpDeu971rpNaGfnyRMCRZZkf+9jHnDCio7PW/rrrrrWPfOQjdt3119niwqL9/d//vSMp8gtpQi5xXAop0qJsrEEnD7/3e7/nCL4USmjWJeFAfK12y5mlyBskQ/qUtV4/9zp7T8jEQ3zUJen/2I/9mFv77okdECeO+AF5JBwkigbN/MfXv/5153iRbJQcqQNID3InDtLw5Iswuvnmm91KI78xGX7IjydRfhOec9oCAhx/xE9boJ4gUp63B359XRIPpO6JnbhoL3/7t3/rhA9pkbebbrrJfuEXfuFkPKQLCD8K/7wpF88axQMhzjXSQCDzeUaWyV4IPDt3LxAgZldh1BkExauZSdeyoRqlLswvZ3b3Y8v27ce7dqIvKY9mmCO5pR3rmGepziQINKRdN4jIg5q08ViSnVrij8irXDKpigukKUlTZzdFizRyaM9aMH3Aarsfs8ZFj1hDx2jbASsmjljWnLNhNLRF01C82bXBFg0Xx+dsMThoi9khS6KuiF4E2W5asyUtGZuxXF0N3WlENP5aaTJR6yVxWlhZVfpLt5IokICRIJAGjeMzfK7hIvTUSJ91dOe8Jq44gr4NpaX31ADZNM3YiCxoWTQsrFGkFncCe9eWbfbhLTvs1c22bS0TVfrqoNLSRbfuA+C8MLZeoC3g6IDAd2aABoipAK2PzoejU27dutXt1eI7HJ0cLRrTC52NeiQOOhsaKUTzwwBi8HZ66pf0OacDjw61SdPnn7zgD82X/OOXa335IT933vltR05f/epXbXb2xMm9bbgPOeOXMnqi9umVxF8SEOXmeqw8YZ6hfgiD1kl8zWbL+TmXIw7qibgpD78pB+n5I6B8wD8XnpfPC5oq+/X80R/9kSPKJ5980sVDGMpAHZI3nyYgjxA7dUo9fUkjDwQhgg7/XPd+OY6m558BcRMvphRGCAi+URAGQYWQp2yEwz/5IjztClKnnJSLNkLefTw8h9E8e/g64D5p8IIY9U94npd/bpThQuHZOXyB8Gy9CZMDw/vyNXveL3r06KLd/VTPnlpsWT+acJomG7uEIrAQm7aGmCkarn6XVbxOUNrsT+PeWmXmMhO5ZpA7jUSdNhpY0VmwYNus1fYctdbFB62+92Gz7ffbcOwh6zcOWFKfsyIW+auxZNKKEyZd2yLUBoR6XJ3wsGTUispaNgqIWidShKWB1WvWoCGK7DudMRsbn7CWOir3C/Imgqe82GULOpx3aP66zqv1riGeelx1LLDpSMMqpJHnDXWUWtv4nPZAgrUb9W1rO7L3bdlpP7l3l9062badipSyu49oKH/YcfVX2nrp1hPkj05LnXBOB0QbpNPzspHvfHR6Oit2ZByd1YOdCBlG05EhJPwTDo0fO+8PAwiATurqTx0VMiJeT7jkh9/kw3d0D65DmGikvMLPcsx77rnHPidN8eFHHnFlY32+I5uhhNEqmXlCJT7SJE7ICCFBuqSZrBIl9npIC6WALYRJk3rDP37P5TyB459z0iJdykP8o/Akz3X8+XwhoD7/+c87cxVlcWXVkXghcJaLovnzfNCEET6UxZeJI3XJKqZPfOITro58vRKPB+mRBybL2aCMdkCbwQ/P17+3gB/qwJfH5xf4fFP3vMVMHj35ky/ImfbCCOR0IK+jeSLfCAPyStkoL8+b9whGRzvnGxti8jQvRHwB2rYqmV2+ROwBH/mMGjaXxnb7vUfti48W9vRwWoSo4STskvVE/ggAedffvEAa8rBgnucPFxN/8tgKZ09HmEBjEjxxX8OMFSvqKxZNH7baDrltR6ShH5SG/pQlzSMi8HkJJQka3ljNpVF1RexLEgRZqWnQmDL3IY+2Neo7pEFvVcOjoYqwSN81QFb4MEkpDVsNlknCSGEzEbe7pwbqGukqyTpNns6HI+tqyG7t/RlcJA2/KTdU+KLW0KAErVYkEvat3Szs1qkt9nNT0/aa8aZtkXbPBCukzqoghAqdhecVUy8ufZfsusB3ODoaR+C1KobdrmxyEAH22de//vWuc3u/ABJEe6ST03EBdQ+BEYa3RiGt5wLiwVYOaZA+HZh0eAuVYbYnDf9suE8Z0OLYnIv88hsCHww0iltcsGPHj9HyTxI3WveYBPluER8rXSAYNPgbb7zRjUogHgiFMjAiueiivc5NTkza0uKS2k/ZB6gJiGXvRRfZ5ZddZnv3XuTMRmdzxEn+PZFRBsqJKYHJUwQTZeL6qYILzRZT0xe/+EVno+d5IfjwQ7l4PsxxvOIVr3CmFuZEuEbdsXUw7Yl0iZtwPCfMOZAr5WcCmOfn0wfUA9eYd/F2duIhbeYWvCmHMgAfzoPfEDNCBLs42jXx8YxIh3jIO6M/BBLx+HuE5TdH0uAaGj87jZJvhAxlINytt97q8jNaX+cTG4LYC/bO5Ws/kIOIgi1vxToixobdf7ywT3/3qN11pG7d2taS8DMRqzT2WOQSKVwQNqXF85amwouw1gd6ADD76iSpm9FFS68rry0N49szzvzS2PWUiP2AFWNHLG0dtrQxY2ncVX7oqk0R35iFQ3XWRQ0TeXOT/clDaWIIsFSNQqRfi7eoHOowvKdPwyMplc1teavfZcPROQTOfd2D7Eun+NQQneN81dHI0P4ZcZzJUV2RCLsRaVjK3ums0I+GNtUJ7XVbJu1DE1vsrSKRcepcwpQVOc4pf5heMnUgVuyweqgUKqtV9zxB3ked7zjY1O+44w67++67HbnR6ejEEAUdB3OMD+87EEeIAYHg44FcIQoIBeKjY+NvLZ0O8iIuiJr0CQPxojVC7JCAx2h8hEOT9cTOM0aIo4niDyK75NJL7PrrrreXi7xf+cpX2Q0vu0EjjsscIVBGyBXiRQNE+4MUcZDONVdf4/LxwPe/7wQGKWd6RrtEmMwn3HrrG09Ovp7NER/lwo7vSQvyJA0c9QU8qfu6xi8mLuY0IFhAWMoKsTGZyd40CCefZ0ZTaLKMtDinXMTnzTU+Dp478SN4sJ/zvEgfcB3tGpMWbxf767QLhB6OeiGP3vk84wDPhGfDc/XXSAN//hxBRJshPa7jyBsOEA5/1BujFdLnHuUg3+zJQ959/Ocb69QVnx8CkbGqG04XGangIgpVvfXSwL731IrdMxvbAnuziHoCtPtCD11EV4j4i6KlymqKoBoluawTiImtcJWIzpQxNmKvQeonpJUftmLbE5bvetCM4/hBGzaOWC9YsKHymCtfYcjKkY7FmQQPLyx1l2mFioptX4lXml7et2g4a+nSfhsuP6GeqCF+JA1fBK4ISgKWv0z1A5GyyyQftahJc68x7GyVrsFkWaftXGus41xD51x3x9M5dYag3bG0PW4T9Y5NSDC2aqltHQvsVpH6z05ut7e22jamrEhv1nNhH3a35seG5En5qek5sT8PeV1v0IEgBTqq72AMldGs6EDcw0EGaJJ0HsIA3/EAnQlCQ9ujo/mw3tbOOUS2Vvi4fVqAPI7m03defnPOPbQ37yCajuqel9qAK8PVV9lb3/JWt1HXT/3UT9n73//j9va3vcOt4GFilmWcCA8fF6MNCJ+yXX/DdRIq1zuSLJcNkwdpkyobJhm0Vvyh7a/FYSIh357EqCPqzZd5lJz8dTRT6hOzCdfII/4QwAilD37wg/a6173OCSaI3gtAngmmI54TxE9ZETA+DeqKuO66q9x+GcL0IF3uQewIdRz1g8YNeMZo8sCTsC+TLwvnCF1s8uQbPz4O7xAsxEPa3MPhjzz6Iw4S9/681s8Ih+fihcKFwvr3yB8CIUJWFSMFVhSiB6qKk65g84Pc7nnymB3styyPRUZFT3dF6rHoXw0mj6S1JaL7RJWLGplj6yo713ogirBrKkes/qgPpKEvmo3PuElS2/6YBbvV0MaesmE8b2lN5ECDCseVhQm1+Ha5+D4ZiNgX1WhmdY9VJCojRF0kkl+UZ8aG/Setu/KIiFvDaNUDJXCNT/7cR6/VIHzn4uju84+2L2GGFo85xr2cJRdJk69D6uNj1oDkT+cmOhIE4xbVJ2253bDueGjbJpv29vEt9rPNKfuRuG47lEYWqtzKA2+WSuTon9JTwvVCacRNZyoqzTPr12h9hxntCHQaiAP7JaTgOxkaGdoeBECdeeeBJgxRQf7E6cMxAYqGR7xcfy7wIwUfHw6Q79H0eVY4QFnw7x3PkmWJlOXiSy62j/z0R9wqDswmXMsy4izLTxykSRifBuekyzkfZ/Fk40x3aof4A1zjN8oCeTibIy5MV4xG/FI9wpMfHx/gugd54x71yV74aPfkBaIH1DuEznMiDfz6MuC4Rnwuj0oLwfKOd7zDheM6aXMkT2jUCHeuEZY68XWMPRtzDvmmXgiD9sxaeQ8fhnuEIW2eP6uQiJdw5Bs/lAFwDT+Y35gQBeTf3/flB5iRGK0QPyCct68z0iH9C4UNQezQFE717LR2uB3z8+zy0J44smQrvL3ZqFmtUKMJRIi1SBqrtPUgtpzteQfSJofqCLz1uQbwGJ5pps9g9LrbigBijzOLayKDetfC5pKFYyfE3ccs3HLYoqnDltUWnC4b1pXHlrTCeFpCpmNSxi3tDSwbrFieLEloLZaTqI4A1SGl++YizSJYlDw6YllyQE7nmTQgNYxCDYYJUcjdNwjMM4QepolzNDpeZkkUBg161Ln969H8YzmOGuE4x28cHVb1J3q3paY69JTZlRPj9oHWhL1dI46pFG0zU04Hyo/ST6XJFLyIJA1L4Qhb1hXkj3M/1g2+83Ckw2Oz9KtZfGeHDNBG0cYB/k7tPHQ8NDqG/mVnLLVoiAI7MLZyr12uBZAB9Y5/NE3S9CThHeTGcRTkyxMS5EH+0WYhvFtuea0bcSCcEpHKUG25zGuZJ859Hkmb9LhG+f1vnrnL12paTL46f8ofeeQ6x7M5Xwfkk7yRJnGQV5+Ou690AWX0+ULjZQXL2KqA9QIT8xQaO9dGCZM64jd+SI+4qBeO1An2d4jax4MfnhcTmT6fxEneuI9pilEMzxphzjWEjV866v0TP3nA8RtB4HcI5TfhEBKMLKhfHKSMJu7naagH/OLIM3UDaEvkkd+kQ94gdv9sKcOFwjp3xx8OfUwe0m75gj0clOeJrQyW7LP31+zh5CqRPGtkurasm2muRpXElq4wESmtoC0SbA5FkNIsRTBrQSB/YYSxRwkWciJxtPKw1heRD8uXLodKY7HuZEXembdw7+MWX3mXxVd818LdT5q11OCz7SLeKSnNakgs3xGRB90Va+rBTqhBjMtFEjp8hCMPtzlytLxL5CLo2IaFOrK1Hclb90kbHv+K5bN3Wm04J+JUp5LrY9yJuxbUNbyNa9YIIRO0G5GejgFHN/HMo3zGFUONZArFoTzwAlU9UV1pxDNsq0G2YptU+Tr9wubGurY17dlPLmX2jzXqubVW2ITqM9MIhH7cyjqqEzVIhIE6FF3K9SuSRFBIgDD8Vy504fyBDkMH9MRAp2GYi72WYS6/cYDOSeenc7FiaGpqQv6utokJ/1k3ZV3lmT0xY/fed49IESPTM9ocICy/6bz+NyBeyIx8QBj8pvNzxJE29zn6fPhwdHji49yRWhBqtHG5vfrm10hIsM4eW7tGWiwQcM/x2XVKmpADR58ev0lfxdTzIm4EDbtc8q4D9nEJ/xStsqy3c4G4ybeHJzvI0tc9NcJ7FbxrwbOfn5u3A/ufsu7yihN2flmtt+lzDZBPX7/UEb+pV8rh641zzDIIYkgRAcA17kG+ELW/Rp4oP+eYYRi54Y965sjzoc1A8B4ILA/KAxmjZXMdR3lJmzkB4uA38aFUEBf2f/9cuUcYygHZM3HKRL3PE0DgQOwXGs88wRcQfOWI1gJPcORr//00skePRraM9quHzxuOmSorlxAoREA0KlZwMMnKC0Rsb7vW0qCNl81zFas/3deWFLeel34qzVpPQmPO8jE1jMmDFkwetqBzwoJmV2mWnbRMVE4dCy1bLVdyQprS6p0AcmEYIvIvOypaj/LsyqKG7cQIl3qWLR2wdOkJC9LjVgu7EnJ0VHVaEbybXFaMbGvgGg0zn+54epfXpeUoBOStAYcNa2p8aoD1vjSWbmrLQWpztYGNDfv2msa4vWdi2m4RqexwdSiic8QtclIe1e0UJ9dHwO9VB92XlL8+4HnTUSgn50xuPfLII66DUufco9OhreMgePz6zjR6pPPS+Xbs3OE6bLsDgaoO9XdxYcEeV6fmIx08o9E4QPl8nw3u+449SvajbpQY+e2Bfx8nB0gY0iP/5dJEPWGFHQ0/itE0PEq/z/zmnDS8H85d+1sjTo0f8PvM+Qqsq+fTE+E5UAb5h+wQuCx1BD4OD85H0zn1PnVCWF9f3INgaQsIRX/Ng/bAyA2hQD1zD+ft4wChMloWfqOFQ8ikQ7tC46dNof2PLk9EAGCu4ejTJS7KyW/s9LRPPxojLvKP5u/r4ELidE/qgkODfP1dbYg6DPLQjvcjOzK34nZQzNUwc7c0UMCbc/pzsmGsXlxj+0U7K9jACweUXpFqOKiRQJ6FIlxdwma+9ZjZ9H4LtjxuNvaUWWPOilDE7F5UUiMJF5QqNugyTnUJ94/fPFgmr9z68mfB5xmQYZ9pPYpk0ZLuQRv2H5eQOCDtXNp/qNGAtGbeqk2oixDt8txA8CgEAxqL85oNgqYNMml7PTVsltnFKxoF9O0tSc3e2xqzV491bFtNmqYrvAhI+SxE7Hwedi3pnQ/QYahHtDQc5wyLIWuOEDXk4TsqoFPhPLl58kC7Y7JxfGRVBwTxlDSsg6tx+04KfKf1xOLjeT4YjYN0yIO/xtGfk6YXGhcavrznglu1xfBaWUaDZh09Zh8+fkJ/xdbfWTWLeFA+6pTjqc8HjJ57oqaevH+eqzfh+HyOCksI9LLLLnP1ynU0ZwgX2zh+fJ36dDDDQMZ+1Q1xY/6B2NGyIXf8Eh9CBQHghYTPvwfX0da5Rv7wj2DAjY4SLhQ2BLGXSxZVSfpPW2FV4GMzmR2cn7dEHe5Z/LcOcMQuXdlp+UDEXu68xZBWjYjtAaSV27ajZjv2i+Afs2LygLT3BTdCMLRYPdjQNCzDjAJWG5d72DpHe0+TVOT+XDpo17L+Aest3Gf9pe9bvZixluolSBo2HKjTkAZvFa0BEW/uahQwkLKfRhr2phrmDtRAFTyLMuuI+G+MQ/tIe8zerA5wia7XT5KJBJ0cv7CSPUsWXQB40gN0EOyq2MQhCToJ9xmmQ+yj2hB1TweFpOl4vsNzJAxD9enprY5c4ri0dz8tUn/k4YdPDu99Z+VIGB+Pv75eIO4yH6UwGY2f9DwJbVxQP+UzcnZmTEsQoEbS5D1WmSYmJ50GDLjm63S0rP58tI45h9j9Kheu42gL/i1Oj9G6QhBAxrQTrpEWczIQLmGIC/84AKFjXmEUAGg3EDqT7aTt4wKEQUBA7v73aNoICFbh+Pxyj2WcELsv14XEhiD2OIhhd0cgHFbEld8/nNnRPl/Cz6XPP7sxPF/wXPVYOFO8ejCcMvsHwaOR1/WgO/MWTLMC5pgFkyL4trT1OpOdasx5S07k7oa4LjLnqEyGoZyzx0sGsa8++LUgjDQKyGctWXjEenP3WbayXwS9bIG0ID7QnSmvbt+aNaAm7X6gf8fDgXWVpWbekKCIbCUYWi1O7eaoYR9sTtibpjt2cVC4j2hIqpWSNcL8gt28/PkCtMuTnQOtitUWaETUJQQMvO3Sdzz806nQ0jx5jLYZPnRNh73sskuttUo23GclA6stOJLeKHwezgd8fskrbhSU83ylez7A6h5IlzIx+c+8xqjGTlkgzbUC/zxHhLZ/hi5u1Qt2cz8ZCvDr68ubUSB43+8gdEgXQqa+vV8cE/IQO+fET5pM3DIKJN+0MUw7jBQQwJhhiIc4fbqAtkMatFHSQCjhaJ9+Yv9C49kt6oUCNnM9P09ZC/3CHpRg7ItgsKO7T9FB/usF7D1KkDajros8cb9dDlir3lmwcEIPaXLO4vFFZ1MPMFTLi9vmlrdcc14+ashJQtMwcIqBT+dxDrGXGjsN2qVwTrD3TBSq0WYnRO5P2tLxB6w7/7BkjbRVllxauUJhLcjbDctiaTlqhEN1hFRaOvupt4uh3ZAF9tONcfvQ2KSNx9JmJTDSvC+5Jk1XIwS0dYQpu2q6RTwvEMdQVrQgOh+dx3dKtPVXvvKVJ5c4ct3fo4P6a4THRODeslWHw559xZVXKjxvEOq56Flxnc568OCBZxGGhyeW9Qbxno7UyfuoezGAN6FRwED5HNxp+fLcKpniRkH5R+v21LJyD3L19eP9umcqIeL9++v8hpjRtBHghPMjNzRzJj9H00BBGNWyAe0KweAFCqtjeImNeIiP0QLaP5o79wnHdeLnGvfJH9f9tgm+jV5obBBih7Ke4Y/5rtmjM7pWkzZWpC6T7pX19QKauZsdVAWIuSC2AAarDS1oLVkkUq9NScK3Zi2MeWmIxiMyd3YJNRZjglTXpLkHjujphC66kxVKY+DNTLcr4xqRQTZuTTL2/mXrzjxoy7N36cbj1qzPWyhSHvYg9nM3lJVYpBG3bCpoWy1PbTk5YXG+bG+ste3n2tvsHfG4bVem1SUtjfW3GYv8Y/1CgCoPXhitHi4k6AgQAUTL+mE0JDQgzDBoZXRgOg8dClJmrTKmGn4z9OaIQyNDyxoOhhpud929NpOVY+MalGDrLYkI+z0vvxCHJ6AXojMCCGPUvRjgs0mdUW36W55rROvr8UxlObWe8QdZcvRavn8m/jq/fThPrh4QKWTsTUBo2oz6WFVFOB8/7YN17tjg+U1amE7Q0H1eiYtVV7Q70kMYMIHKKhqEiwdtEGKH1P3ELsJlx44drt2+EFhHtnwecMSuB6X6HGhYd3SuZ0/Px5azzI69S7KywawbIGhH7jQkho06Yc91aetBc9FqkzNWF7HHtVmnQfMlpCAvlz4ZX0AKFnVk0hQSxGxBnGjtq51R50WqxqcH7cwbawR7xRRKJwrZjEsNeDgjjfsBSwf3WjbUkHGotBPyffpO8iz0pI1mTfeGalgvrJP37CY97p8eH7e3t1u2p6YGzl42abnsLghXt2RQuiHxq6gcUsw/bhXRhYPvvAxtIXY6ER2Ua3Qurn/5y192+63/5m/+pv3u7/6u2x3x13/9193xt37rt9x1tk79zd/4Dftv/+2/2f/4H//dXWNrVjQ1p4UpndKUE9gjjzzq4vUd9lyEtB4gDZ/OKEjzfKa7LnD5LvPu5wkYBXmSpX4hOT/ROXrdl5mjJ2lfXn/kOoLd+yU8Ap20vB8fjns+fogUYkf7hvTxTzyM+iBfLywg9VEzDH5ZmonG70HbwM7OhKqPH4HACi2EhW+PvDRH2yEtD16wIg/A5/dCosztCw3VdSLNHHIf9Ht2Yn7Z5nsawjGhyhpjEeRzWbJ1TsBYInbqmyTCgAbJ8hGRXHPF4s68xWOzFociduuX5hZ2eFQeC1uSXJiX663yq/7Q+GggpaQok9BDlwqudLheXnsWThZn9J7KnElbT0XuAVv2arQSHLZ+90HrLu+XFp9YPR57VhBOS3OSnMtDie3dptVVh2xyUDQyu741bj/ZmbA3N5q2W6RucWJJkDjd3FnUXZ3oqGpgTpki0QV4eXbtomn9QGd8+tDTTptO9fzpWBxZcUEH54UYXl+H+HFsPsULMrx6zl4yHNldkHM+SvHdu75r35P/hx562A2Z6ZSMBPxHsBmSo9FzHXhCoVOej45J/KTl0xvF+Upz3eCauwh5tU/y5iv5LTenK/PNG9OskPFEyvOjzKcSu6+HU4E/T+w44vfEDkbDjdYVfjCBsFzSCxzimpmdcZo1bQhgmkH7xjxHeAQCZOw3+sIf4bG3Q+ycQ/QIKoQCI0H8efMMbYf7xEOaCBc0fkBeLzQ2BLGzIIXvfcYizhPSNPcvsOQxE9lgy1Zj0D91gVXf6wS1hUKae55JO1Q1YJkJIvaz1rC/0bUwXrGE7Wx1nZWWGW+4ooUjueNIpK5hXY6tT2SjuNwr/TRw5bdI1Zh5W1Nk6QgT5yjXu5FTtOFV5xqo/lNWt17dmYASS7vHbDD3oCUnvmPB4gPWVLo1zDbUjRJPlXk1Q8kqCQbi5q+07wGCKFuyK4OhfWisbe9qidTd6KQQYbMDDDbmmpJcnSglGy58ecRhkuHf+YLvuKMO0GHuf+A+kW9X1xhCu8uOOOr1cksB6ssThgfnox3dlUK/2XiNjsc9Z4bRP0gd8xf2YTqqf7PVhVqN49lxrR98nsn/qfDl2rCgSqiX1aopdx+taeSrPiDNt8w/W/g+s/WCLw+EifPlH31eo88RMkYbxkGgOG/m8GQ8+mwIix+WXELOF+/bZ01GY4qSEWl3uWuPP/a4ZeqbmF8w3yHYfb78ROmo1k2cEPUVV14hQTGme5h9yi1+0fYphzcDkjfyg3/SR/OnvY2W6UJiQ7Seoeq/pUoK1cmeXmnaIwtNtZaBSLKl2pXEjfVgYZ51QiwGc89PcSeSKrzh6QiRz8OFcg1pubXUeux4KA3AWW3UaCxj98VJ54pcDZlRRj50r9SH8sdwDkIvBhA78eu3kwxUM42Qo3eAh44jdez8kLnOI7RpNWpFw/p1ToKlJyw58nc2PPxJi1cOanAxI0HYk3+SwD6uvGJKUcOj8c20+5Y1BvYqNdyfiev2gXpgu2KRmITXgEnSIrYoVz3TsNUgkSFqtxJoygpOl/XTfcvU5/Z8gIbvHR3TY3b2uN119106K78OhOAr+2DhvvGZF6Xmxz78dCo6GfXP0Xd6yAFi4ZNwnFMS+ln5iTg0QL6VimAr91FB66fDjuJ8dUxf1lEi8fD5P19prwfc/kSrpMg3A/g4jL+GI+d8aJzncaqQouy+bJTTg+u+XnheCHeeLdeIB5KnviBOwhGvD0N8ro8qWr4edcP1N7jvGLAMM1b74TOBjz78sPuNjRyTCto98RKWt2T9G7LES5vjpUiyfu2119jkVLnzJOl2u8v2wPfvV94GThnALMN14iJOvzcM8XB9tIwXCs+u8RcILhM0cGmcy4PElvqSzJAkWinbBOi6asf5XQ/U66EePloElR65l4BqaNrDrkYKXeu1pB2M6z5JJ0Pj9YJOs+UePMvIMYmoKbGGzoKTHVO/VxvrM3/lnpXt1WurPs6OHywva/0HQ164+Lr1Vu63evi0TbTmbbzZtVbQtbqETFN5mJAGtUXC4WaR4c+3p+1ntu22ncr/oBYaO9vQEVoJ2ww8Q6QvFGj8uNGOvrRU7rlxlKEzhKz7vA/AcWJi3G1Fu0PaFZNTO3b44w6ncfmjP2dlA6scsHcyCYYWxTnX0a4gDq5zzmQr9nfWNTuikINgfN4qPIPROsHkQB1SlwhST8qMfvwaccCzZVITv/6547xg5r6vb8Jht/bLBbnHc8Q0Qj/0hIzzwoC48Ee/5o1PllsSH8KfTxHOLy447dpv6EVYBAVmG3bO9BOugOJxH6KmrU1IY2fkSDwImBnljXaKSZA4AWnRjphw9cLnhcKGIHaKH8Q160s1nlke2onlviNzlqmpN7sOvZ6VlCR9kbM0c2zKyJCksDGRdKPBXhZ9W1mcd58XazWkzSkP7F2DfT3MEovSxBrKC/t58Ip+pkbksNoQ3KZdqxqEx9qzThjC4vhdBlTz1T/qAo1E1Lx0ly3N3mGLx79pvRPfs7D/mI3ZMZsIF6yZzVuxNGOXLx2xD6qd/ujkmG1HQZXgYt+Q8UICqq/IKVNz/er0ucB3Rt8hPeiYwE+aOhur/PClIToNG0r9H//0/7CP/l//l/3bf/tv7V//639tv/qrv3pG96/+1b+yj370o/Zrv/Zr9p/+03+yf//v/739u3/371y4f/yP/7Hbpxwtn3QAQ2y0OYbXXCefPk+jz/OlDv/8PCBGBKXXgOmrON4/YAdNiBB40h4F9YuwhWCJkyPCAbs1pEk83CcsxI7JBMGAH+CfE2HhCTobYXbt2mnbJdibzdL8RrKzM7P24EMPubkXhA5pEx4bOsROOqcCPwgT0nWmFV1jnoe5H8r28MMPOZOOzwfCwa+keSGxIYhd+pgqP7LuMLIjC0Ob4Q0l9vnmYakqywcmty59K3C28mFPUnwowozUaCRE0nRoHWm6l0xutytqu2xqqWEpZChC74eZM1+k0ogLNSjp6dZgjT2rdeSHxgR4sK6RrR6Bb+RrgSP0k4UkjFyBc81Jd+hMAwmb45bzEtOBO23hya/Z0uFvW7L4fQu6j1iq4/LsPRbO3mvN4UGrsS4+SW04u2jjeWyNtLSaYyHKERQvAE5XH3SgsgOWb/gxmdnRcJaO7upUbYEOdtWVV9u2rVtti4iENcf+k3hncvhBe4N46MD+Om+t0pkZMqMxQhyAFQ4MrwHXyBNp++dZ4QfbNCTG8j6crycIDls2BMg7CIBnTJ1C/l4wcPQk7dsAzx/B7m3XXOeI9s4zxA+aMeCc+zhA/+HdkZZGqExgbtu23dndeUFtaXnZvvud77iRoM8/7Ys3khEaxOHz5W6v+oG0iYu0nfkujmz2xAn7tuKakbDgPo64fDvz7faFajcbgtj5RBtZmZdgP7yU2+JAFRpC7EzvQezeFLMelVS4fcRr1nITp1LLLWkUeujHbWc9th+97BX2S5e9zd7ZernVUpF+qsaoB542IsvqksoQrDTfvJ9YMWQ5o/K02gDIHQ0Dif7MKp7yXgmundvx1wFSL0/0jzrCcM9KFnWEdMXy3oyl809Y98g9tvD0HTZ/7Ju2PPdt6y9+1x6av9M++8QX7FuH7rSsYM+Z2GpqszPZii3EKoUEaSDBdqHhG7vvWKf+npsrPyDMCgZAffKxCDrWVSJiJrHwX3amZ4bzZ3JokTgPrpEWQ2X2FeFNQ+KDXBjiY45BU4SUSMPnyx8rlKAeqTcP3rJkRIVW68mYkRBaLR+25nlSh9Qp4Ua1d47cIwy2b76SxYonnptPB0EBAaM5IxggTv9M/DMFKC2880LM2Madf7UhJngZ/T3yyMMuX4QnD8TLHkL8BrQ3J3iUpnuLfBVXXnWVUxIgdSXgRpEPqmz49WVi5EIeEXQlD7wwihPYMBo7j2Sum9mxldy6uToib5qqYtxn8sBIJT9fFIUeRMhEqB52sqyHNGu7p3J7w2Vb7b37LrEP73iZfWT3rXbT1DW2PdpmUT+wbJiVyy+ZVOGDw2q8LkeMJIiTf3q47qUMHqjOcWTbNTr323k8s+MP/twpYXD8oH7UESB0t5YlVkOtWyRBEwZ9ywdHrTf/iC3N3Gsri/fZcPCQHe8/ZrcfvsP+7OHP2Tdm77d4QiQVKd+q1kGNCWP9di9cXVj4xu47oquz1TJDrrwB+uST+93wHT9ltRSO2C8VEfsX1fj491pB/HTAUUAG2ODpiJyTLzok/hAsTKKSPnni6PNboYSvU//sqMuXv/zl7sg1nh/1ypLCr33ta24pKiY27kGinpjxg/aNTR7yRwh8/etfd3MdkC5+EBQIYD7CwaiNdLnOcbQ9+bz4j4pccullbrTm3gKXI82lpWXXpnzeiY/R26hwcHHqnv+Nv92KhxEJHxjnjXLeqvUrqPCPY16HuBBIPi8vFDYEsUNWGBpOrAxtrq+OHjVLwnT2aggNrF/HGqih6FFLEzSrd0Xq0Ql73yu32QdesctunKjZxdLn3zB5tf2j7bfam8evs53ppIWLqWXdoVvuGMTSCCI9+IYapyS4y5kyycM8+WGMkQeLFlGCa2d2/t8zIJwPSwMWsQc0aoZ90kQ1wojq6hyRhEyxJIEzZ5mEVJqcUAmGtpgu2udn77XfefIL9pXFe6Wpr9ikCt2R0ERIZeyxfoEx2nmoJ377a0yYsSQNco9Ur3R4Ogkdcvee3bZt6zbVbyno3VYBqx3qbI40cGhn/jdHwKQfKxgY4pOG79zY2Nl4DEKBoNzzrPAD8PUJqEte5oF8ITjuQcyAeQs+5P25z33OETwT45A45M2acAQpWjr3b7/9dmdf98+deDjnYx2QJul4QQw581yBf84lSoExOTXpzCJuFDFgdUxpLqGL8VxpXzx/8ot/F1LPvzx/pl0Sb61W7h1DW0nSxO0578P4EQpChFEg+X0mnjL8hcaF79mnhTqh/i72hracqDJrLepVNaLrmZzqZf2qBi0QbbtrrXhgF08V9v5rJuxnb95qb9gd2jZpwEU6sE5etw/k19lPT95ir5261raGU1YMyp0DAxGqNSW5G4rLKY5lA9ATLB/iScdF3Vu9fW4QYCTcs0ANIeR4kWugX2xIhlYk7UF5cOuHI4aTTPhG1sxq1o7qIvOe/e2Ju+zf3PVn9tXlR2yYrlhHdYrPZO1K77qBxk6jpx695oWj3lhL/uT+VTOM6gDbKPcYAl9yyaU2OTnh1iQDOpMnaMKeyQE6M53Yk4F3dHg6NpNdnPv8sHwNOzv58XH4tCo8A+oKUDfUE9rvG97wBvfBamzWEBwOEmUi9eMf/7j9wR/8gf3pn/6pffKTn7RPf/rT9qlPfco+8YlP2Mc+9jH3G9KnjSAUeB6e1P3HpAHXaD/4Oz15lqMCQBgImXcVULpK23xpemOtud/ml3iIgzL534BoS+GRO42d+RlvonGjZo0OCEN+ERAQP2F93RDns/N2YbAxiF0Vzpa0yyLOHmu+3UNRZbjKUYd6jsxOKOjbvffDOfGU9eziCcebVjQzmwhW7F037LZffvtOe+VWEeFgzoJ83vJ6ZkM1hLH52N7YutLed8lr7aZd19hkPA63Gh9LSlkLKZLl9SYft3t+/MGRpHcnE+d4LkdYIuKU3x7lNV6I4tuoSd7VlUSu1ERZGVqkGkGEHYtqU7bST5ypZaw+5r7C9L3uE/Ybd3/avnH8IVsYdC1OC5G/i9LFvBo7CTzryvkCefbaFuAcIkVbxgbKxCnXIAU/ceWbKx2HNcpey6Yjnsnx7D0pEx+O64CwmA7QBP0SOsARswEapde+/D0P31nX2nFHO7o/4rh+uvBrifN8YS1pk29PYNSNn6Pg7U02aMPExTWeJdf9um4mUrG733bbbe5r/phpeEuY545AJW2eEeccefYf/vCHnfDleXPfO56Nf5bA1aX+ua2yVd18jGd6eovt21faxnkhDVA6wkHEkDXpAJQFf/7M8yo3OKMs23fsdIrASSVA93kpEWHBnI3fxoC8+Tbn83qhsTGIXayUisye6DXt0IpIPVnSNZFsJ1YHDiyG2GFTXplBRT6T4740uqg+tFaxaC0RWF2CIm7XzMaHEhhyRdPyRWmBjbr91Cun7X97Zd2u7uTW4G3M5pR169tE18pDOLDlqYaNiyh/PLna/s/4TfbT47fazs4lNqgx8SLyWVqxGrbEOLA6JJNIQLGihzw0m+VLSypXjPkAe/Y5HEQc4lTeUGHCINEDSnWel9fdPvC8VDSmxtm0JIvl+GygGpM0B7JdSJPPsq7lncB6tcy6+bLyM7BesGx3LT1ov//wp+xTh2+zp5P9uo593ozdrZeUzrC/ojGqwmrEMiz6NuDNWjZwL9vouoAOQgeiA/glYTR8OgraGqsout2eLS0u28pKz66+6hq74YaXW6c95vzQX/jSVWlrLzvfWuCJgE4IwXhSYmjPskdWMyBEcCxfwxzABB4dFL9eA/QCCcLiOv4pE/Ad2B+57/0THkLA3ET8EBxhIT1PJqPwaayVFEinrJ+ShDgSvx/Z4NYCHw9x4LB9j4YlX1wjXzxD6pB6xQGeKd8r/Wf/7J/ZO9/5TmeewB9E7evWhyEd4uI3z4X6IS3qCgJ9y1veYh/84AfdOffxh6NeCc858NcA+Su/7aBrIvNpaex79l5kLT3nxaVF931gVtuQJyZ8ff58Hnz7LEEbYR6L+5HV4poUgV0Kt0/lYAln4OzslIlRAdo/8RAH+eGc8pzu+Z5vRB/96Ef/zer5C4YiG1g/qNsXHy3suweGNkjVUbBha6jTEPNkuR64I+2zN3IqMmiqAy73nNkk4LuPsahRDxMTRYPPzK0s2sVbc3vbdR37kWva9po9gTUjJurKV/Ih5VjtONIDySGCJLNmULMt9XGrtZo2L8J7el5aJR+pVlrsHRaL/LJaaInyBym31S7qXXWyYWJprHsNEa8TTGd3bpShs9Nj1Y/KWG7W5Ylt1FE/ODqi/DE/Qaek4aqzDJOBzS4u2EANry5hN9matC3FhLR/jQLUEFn2SfAoQ7CUk1s9jUwiHUdXCDwfECeN3jsIwhMRWjIdHXJAA6Kz3Hzzq+2mm171rCGu7yz+91qBX+9/9EjHRqAA/zIT2hzaJ0siSQcSwi95pTNzxB8rIdD6eHPRd2zvAOXzZcSezHWECIRC/Ew4Ep48nAqukfZagF8ICTMWYag/TA3kC9MIafo8nQ0QJiSM4KFsaNrkD7KGYBFExD9a96PlBcRBOEZDfk9yT8Q8O+983eC4R91jp3/d615nb3vb29x3RzF9+JHZaBqj5x7E6Uh1pN4ga+CVCcrERCwbflEv3iYOfP58WsQVRfSDsn69Py8wyS/1Shlvuukm9yypH+Igz8Rxal1dKASSNmtTCc4jinTRZrOO/dptA/vj76zY0gBmFBk1Wtbuz9swm7QEdZQdqs4CKo9513ReElL/o7aKxpa0fVVs2rAtzaFtrR22t904be++cafpYHtbXbUIJGrbMr4rykPkoxMaxmUiUBZOBSLtXILmSDFnX5fW+zfHvmPf6D9qTzcWrdnXw1cyK3X5Udh4JbP2sb4Fi33rYw0fU74bCJtzV7OaFXS8+usMUBnzNTQSiRwJFmlrmYSk0g+bEo4DNfqlxHY1t9kNe6629+x9tX1k4nU22R53WyT3aIhqlC0JqppGCIWE0nw8sI7V9e8HiWc9cLIzqvGz1JA1zH6DJTQ4SAXHfQiADsaR+5yfq8OMEscouOaPkDYTeLyg5LUrOjGCxaftNEHFQaeGPFntAbiGfRW/kDXw5AB8OmjfbA0MYfp8Q37MH0B8gHBc93klrI/nbIBk8MfRL9X08SCgIB5PyGuB39IWTZQ4GdVAhuTTExbwx1GQZ+8oJ+VGQ6bOeLbkjWvUpy8v5OuFOSY36hKhxDMgHl+fp0tvFPgjXtIF/hxlgREY7YvnByFT99QN6fh6Ibyvc46E93nw16kTlADMdFwjT1ynjqkj0qM9cSQ+n3efpwuFjUHsWdcOdZv2a7f37M/u6lpPFWMiyqDeslZv1obFFkvdx5zLIe+ZwGOvi/zzQsN2KDLu66I6ai+2+mJm106v2JtvTOw9N22xmy4as8lQHUJp87ZOXnSsYN8QHhS7fkHu9PEGBKeY+Zi2RhZzxaJ9d3DAPtG9x744d58tZidEx4mbzpSeYEFXmuTMsgV9acHs4cLKE2qYNfPnwNqJffX8LIgLaSoD1UU6lGBSgGZdGrni1igCs1Wr3rGbJi6zX9z+JvuRi2+yHc2dJp3G7eaI0aEucg9Ui714aK2wqTvr0zDpDMB3UjoPxE4H8p0BcN93JkCHBJA98J3qXMDfmfz6e+BMHY9OSh5w5BP/EBH55tpovNzDvycE7vv4fVr4Hy0nfjyheBLAAX6vhRAgGwB5e/j0fFye5M4FLyQgcODzDLjHb68Fn6tOSdOXFxAeRz36MpMWdQWx+3i5R1jue239uYI4fFl8vMTp64F8eedRauiltu/L4O8TDvDbl5G8cd2H80LA+/PlxN9a6n49sTFMMfp3dDm0f3h0YA8ckyQvVJnMNosYa8OuOLFdmkkc054Z8FZ9qAeDht1QwyFIShy57an17C1XRvbB122zm/e2bCoU9Yus2eErz2ORmh4KD1VJ67Hqyajjsc5dpO6+mpeoQcj7WK1tO5tTbj3rQNr5IVuyhWDFIhF3Ez1ZD3aQDixReJdnMWXAR1yVp3MBUv/BrnIK5IHqORfcZKqKUcM26GyEEgg0LkYPIvo069txjYYODhZtotmx3dG0TRaUQA1SWU01DAmz1FoScCFvATvzz/MHDZ28+A7CbzoA4BqdavS+vw645zsdYbzfs2H0vo/XOx//6eDvQw6ckxakTX49aQNfhlH/HP19wH0IYLSD4x/4e8CTCvd8mmsB/kb9Ujc48vFc40JIkB/IkLz5OLhG+TmnHBxPh9HrCGPCkDZlIxyCGRJnlINDGHmhDjxR+jr1ZHmm9EaBPxwYLa8Py5F0OPr7o3H7vPLbpw+8f18flMP/9uXiyD3yPxrO+73Q2BDELt3HDs0ljtgfOg6h6iHznEWs0Sqxu2+NnovYRUotG7N+MiMy5jVmVbqIdXfYt7ddG9qHXr/VXnVRQ5q6Gjt7BRc0GpG6tNss1oPheqAHHerhiMULCRb2gkG3clvyugYt3VUPcDKL7br6Ntsfrdij6ZLF0vojOnyjJmVf2gZvpQ4U11BhMWugNZ8DooZ1I3a1MFqWxSpDI1S+9E+iRuVVaZR/dnPMpZHPpAt2aGXJpqK27WpM20TYcnlI5YHlhlFvoHKL2JmcXQf4jkej9x2Ahu87mL8P6ODen++QAD/cG712LpzLn4+Ljuk7NfnyndZ3WIjGAyKAyDkC/OI88fs4OJJn7nnwm3SIF4wSAPdwhFsLfP15ovH59un58qwlPp9/wnghRZw47nEEa4kL4YDzdQCI1zvK7uP3fkbz/lzzjz/aBcCvj9fXDUccz4v7XOOcdLhOfvDvw+O47n9zz98nLCYl0uAe8HH4MMDHc6GxIYgds8lTxwd2m4j98TldoPHQfkRK0WBZmqaIXSTP15TOBlWhBVkkUlqR1wWLe327SIT69qta9sHXduzmi2s22dADghl5aHpIqQi74DNyInC3/bkbP0CB0mr1O9NDcg9Gju17nRkkLWysaNiueItFnbYzt6xIO5lNe05Tr2GjXlE4EXuh+JlkJd5z4dzEXt49d0wCa+0lpIqhNDe0btUfZWQ/6iAZWkMNEAtTTyOXE9Lanx6siNTrtrs1ZRP1trtHNbm15CyUX6fGSaMfbewc6Sy+E+L8/dEOTzhPor7T+052Lvi0zgSfHhhNz/8GEAZp06Fxo/nF+Q6OP59XX1Z/9HEBfuMI5+PCH2l4cvB+1oJRv6SN47ePFzea/pngCZCwvp4599eJF03cmzdOB58PyuHry6fPPe+45svq0wSce3DNhzsX8IcjTuqRcx+3LwfX/D2fB+rf59E/C+75NH1+RvPA+alt0IcZDTf6+0JigxC72ePHena7iP2pBVWUKsyxLJUsYhd7imQg9lIzOjPUUIquxfWam/zb3SjsLVc07CduGbfXXhzYZJPwip+K1sHts05y+imZLVkiAnTPACKW5nDytwjR0a6uKmwcqCM7oqzZrtqk7Ywm3L2Z3qIt9VbEAiIfJaVHqjTUuHj4aMrnACm45M6I8u5aPlUXNdQ4JQhZmcO63kx16UYlkD12GuWR77HmrBrStdnuvM11F6xWj2z72IS1opqEgPyuNt6z52vtoJETHx2JDkbj5zeEwZHfEAe/6aB0NN9B/NF30ueL0TjIj8doWt4PeSMvpD3a+Tn6c+/8b/wB4uKcaz5eT3r+uvfnw/vr/t7Z4OtxNIzPJ+fc82mdC/jFAR+e+IHPF47zcwE/vi5InzLjANdOjWu0/IBzMDpyWwtIy8cPfLyUg7i86cdfx3F+al6I59S8kP9RE5O/hl/ANe983D7shUSZsxcYVAn7ObiHjkrs7LmrlcFD4vxk5ZxaSfxeddKWi/aKJb3c2uEWe+WVu+09N4/ZLZcMbaq54lavMDrIQj2IMLGMb34qjGS8hbk0nDSxUNp2mCnFQg1Maevx6y4avM4VPlIWCxHeUIy/LIkw0e/Yrfml9lNTr7L3bn2Z7QnG3RLDQUPDwrrypDDx8OwjjbXj3ITukfe7rkyNVt1qnaabOM0kGDE3mQRfVkOMmdXUZ7GjJ8myfWfhQfvjA7fbJw/faUeSebc2n7X1a5Ajzwl0Au/oQP6a72h0MDqfJ3DaBff4jTsf8OmM5sl3SK+t+/z5Dk0Hxz/XuIc/wH1PrMTpiQn4o0/Dg9/EBUaJ4bnC54e0fXifn7UAv4TFkScELEeu+zyvNS7Sx43GifNl8454/TngN84/C+9/LcAfaXhzmI/LX/fP5XTxcc2n69MGnI8+/9E4fH37POIHv7QN7/+FwIbQ2PkI7refLuwrT2Z2dBnNggey+iByaZxR072kFBeqrIgKV2XldWuEkdWDvlpCV/JAnS1uOnLepXBvvqRpH7yxbW+6smbTDUlqPaPMmo7InWbuhIH+ko7LBQ9R14jHPSR+6Zp+6/HIjx6oHBO0airKk4hAniKRfEt3ttfGbGs8ZrkSOjZYsQUWO8aZy3MtlYSXhq/QLt3yc3mrSfKHrIg9y4PSd43h9M4FOc31H3BqXOQ6jBr6ydhDpEFDXY3bNTjmDbC/S/AQcz8Y2vFkyY5p5MGWxFvrKlOt44QYZQ1pqMmQtXuSCIV1FQUhQyaI4bTnyLnkgWdMpwAccVzzzncMjr7zrDd83L4jeufzxXV/bzQPkLbPo/fj73s/Phz+TsWoPw9/7dTr58Lp4vF4LvF5v94/+Sfvvn7AWuI61Q+/iePU+gG+3vy9Ufhwp14/G0b9j8aNG21THt7/6HX/Gzdabh/HaDw+bv/b+x+9dqGxIYg9SDP7/MGGffNgYgvdvtVEcqxUQTLWpBVr0CNNORWXSHNCbXarqhvW0O9asShqGUgjZRlc06akgb7zmrr9/Ksie9ulZtNNc5Ojg7Dl1n/Xir74Rw8iqDuadS/eQOZMzoro9DT0MMqHyDU9SujREbt7Rs6rOqp+YGWM4vIh1vKa7QqnbHtz2roiydnhsi2nC9KQly0KNRopJHQU2GnATjEjPqXPpCQXJNy472xDOjubQzCc/Hfquf8dlBPDbhAkrQK46zp16ZMO5hYmiIcaqYiio0YsEk/syMqcHViYsbrqY09nUt7a8q8y56lFIvZi2LNcxM66d7b/jfvKOaP1H/xOwQ+AesWd2hlO1+E8zmcH8fkBo3kaTY9rntxGr9M+/W+OZyINrp8K/I365fx0aa8FPsyoWw8Qz2iZ1jNuD+I7tV59Ot49HxA37nQgbn/PpzOarr/m4/C/RzHqD3CO37O15wuB05f4QkMVwEeFyy8mqTJWHZrxqopqgziShigi6okgpWXWGyvWGx61bh9G2WKNoGET6Ql707W5vftVHbvxypaNj+WWJT3LBn2rKx6oNZZmydL2dYNGEoXUeHYaLuqBXTy+wz588avt/ePX2xVL45Yvsoyer7jIrxiVlSiYRDivqUwNNhJSuQI3pJBbS1sY9XPq+el+n8mP6jsQ8/MBbhT6TL+xwedRak+rLm8/eq99fP/XbHFl1ppDaempSL3VsHRq0gZFZONJYBOqy0C8n02sxlmhQoUXHBuC2DVYsiRhcoVfypLToMU+DGmc039pyXm9ZUHcsWAgds4WrT4WiUxFnsPYJqxnN16S2s+/YcLedHlkWxpdBeo5JbwR152VgO9EByxKd1rx+oDlg6Jqaa/st2g2JT3+tdFe+4Vdb7APXfRGu6J5uQW9mvgfBlRBnKFeBM/oIxtYkabl+CPizcDzYz8+LSB3ZYU5DZZyOpMTde3ymNpKMG/fWHjI/tfjt9kXn/ymzfSPS3OXXi8NvascJ4GGQrlU9DTUiEjau5fAFSpUeMGxIYidF5L67KuC5iiSKfdCecZu6cgds0XMJBBrUFPL47alze3ilYZ14q7dstfsf79ll926u247457VpKk7DTiuWVGLyhdJM2mkbrWNV1mfP9hwiPle5Ui/lL88tNqwble19tmPX/kW+7Er32n7apdawIc6stXJy4aItI7xI7MBH9BOhipbOdlzwfjRp0NVa+SASag00UgAaQRS1CSo4iU7kByyP3js8/aXh75lB5M5N8/QUoHrEkKszU/Z7CEfaDTEyKlChQobARvCxj7MAvv8w12750hmfWmAaJAZVm1pj7E0W2d95sWgrC/embdaM7a0NmHpSmitoG+vucTsZ24at3de1rKpiJBiK8w2Qb20rzt7Mnyei8AkGCBXLqwHFJUzIUkoMZnLqICZWrTvTnPCtre2WjNq2P7lpy0VubsNyRAskLuOLDl0yw4VzK2RR2O+ECAtwS2dFKk7W78bGslptMTnCLERkrMTadcO9Retn2S2tTlpuxtTUuoRaBIAGoEwGe2mGi7kiKNChQpnxIYg9oE0679/sGv3HytE8iIUkQprV0R1IoyhiB1tMrBargF/uFRqyL26tUXYr7w0tA/d3LL3XNG0HXXsxSKliK0ARP5BLI4Veco/vBUG6Mi8uAH1rw8JMQ8ANzIhG5GWCF6yyRKRNm+cbgs6trM9aUv1oQqaW3dxyfoDjSbgUY0klKnVeDhCqu7nhQECSZo26+wRpmQl1CVe4ApVj+xUif09qcc20+cN1RPSz0O7tDVt01Gbp+K2XOB9ADKO8K1QocILjw1B7H2N/j/9wJI9OIOyK4oMeP1dBO+IHY1dRA/hSDsM6rklvZ5NJKm9+tKOffjVY/buq2q2r6VI2OCqVpcWCV2ZwpWEXgux4qNSiqT0F1KP1omESKPcZgA2l0bOZmENCRWxJJp4Kwlsqt62LVNbbCLXCGJ52Xq9FXH8UISoPDF77rRj8qPfZPOCkTuJYXqB0Zn1Jx8iedbx67IbTYjY2Ssm01DkRLZsx3oLFmeJ7e5M2Fij6QRCqnBs+YCZpkKFCi88NgSxs0fW3967YA/PYrOtOzKGzNEoWQfuVp5LA8/ZsySrWUf0fMs+s5977Zj96BWxSF2snxbyJ/25rlOp0Clap3imLhU0LlIRL9qptPSAVSjOWLMuSERmbtsB3uZkq1+lwwb/LIdEg2e4IDFiu8JJ29mask6joTKmtjRcsi774CjPCDL+OZ51ppAy7meBe2C9uFPxsdSzJkLni+xE796SRcDIIUhVpaU2rxM+GoKdaXHluO1fOOqsLtsn2H6gIw2/pmxJXFa8XqHChsDG0NhFHH9z34o9ckLkzdYBkA1UIe03FnXy8lHeahmffmstZXb9vkn7xbdstfdcmdsOtuYd8AJNw4Ys1AhWREwSC2L1WiCRII2fLXeZSA3Z+ldkBuGvFwcxMuin7KY3dB+4rdVr5ZYDboShfIknh2juw9CmGmO2a+s2a4zVrJt2RZJLbiMhXvlHO3aZUv483M9V98zJGeCJ/yR+4MIqFMlqXDXlsxPFNih4s1OCSWmz8Rm7UrpJXrYcVpl4k7YxzKSpZ5YEqS3mi/ZYb9FatZbtbW636WDMYkw3zBmUUa+iFBhccdeefbNChQrnCRtiP/aVhZ79o7+O7AsHRSgsB8x7FveWbAtEEm+xot20XldD/UHfbtq7Yv/7LU17z8vbtqUtLd3lXlpxPhTxd6WiT+gn+vgqmQC0YH5BXOXZuoH40HgDnOI/9aUEfz+DPJPUCRXI8VBv1u448oB9+slv2TfnH7aZcMXSBoYihdB/7Pbsd8PGXQg2NiQr3x6VyIOEBZcSA5FV//6cO3nAx65LfxIxuoRFnGNpbnG/yasCMspYDSis5t/9JGL9ZsJ5qFEPb5jGDY2KGBbFtiecth/f/Sr7uSveYK+cvtqSvOUEWU3hIp5dnlhPSRVR3cZzjZLYcLMjV82xVqhwXrEhNPblfmIfvzez/Yvq/FJ1i6RrAZ9IE4kMGhPWHwytka7YKy8q7COvH7P3XluzbSJBt4cHBCUtE3t8yMs2ccsRV0nrq84RGOfllfUE8WHSOB2pA3dFfyBmljNC1mwQNqZ87p7aZfu277OtW6etplHL7PyMDfpiP4hX2rKbmBRR5hhsROZhoRGMhETNVm360pLh30LnhdLmu6cFG33JBXXViUYPvF3q7CZuxYoiE7kz44CJiElotyrG59uT+UkncAunEQ9yIhRJ53FdOcpsSaONJB1KcCXWbLRsa2en1XKNlrDRqwyYcdjdMtI5T8glQzZWk6tQocL5wYYg9mOD1D7zcG6HZvpWaIgvZreoMSlCkKYuJTYN+nbz3tR+/qaGvev6pu3uJCIZvo7E6pe6IzX4yW3HG2885sAG3yuG4mpRssgOzoT4xkSG2N0vnthuV7R32vRYyzr1loUq8/LSkmWDrhvBFHWRozT3gHXwTBAXkUhZxCzSZGvjoFaTcIPESzKFQUOReCipEDgnQZetOp2H/kg9YTNS/jyPnzw6+Hosw0ZK1y1FRXiEEsB6Titp355embWldGA7O9O2szlmcVazXOROXiD1mhNAuXVjafIqh3JYoUKF84gNQexPDzP74uOBHTrStRwyqzcsEEkEIvww69kVl0T2j25u2U9IU989nur6iiOjoM4+7SK5VVKPIDqIbYMBE8oQU9HqKhM+kItjOWFdBIiN+lJpu1dtkZvaYxe3dtqkRiqNUEJL5Rqm7C6Xi4xVUIXLpI2zCRkaOradUuEuCdrp46tETVpcLtl6laQRgqojnGNY1jd64O1ZUBiCSdvn49axRgYIJEYRzmQWZjbIB3Z8uGBz3SULlcftnQkbr4ncmaBW3t3ySeUjC3JbihJrKFGJmjL6ChUqnBdsEGJP7e/uT+zpEyKdWtNyObbGbWfLdv2ewn7qNQ378etbdtG4yIxveGaZNPWGpRAf2qk4xk1WOrV94xE7JhrymCaJZUkm7VrkxjJHbCGp7osp47Qmgm9Lc99tN2y/yl6x9zq7bHqfbQnHrT6MrZbG1gzbGpA0rBcNFasiZCVOxoc0EBpo8qz4z6UlS8tX1OxhszqUIZFSy9Y5H6nm49ywLrr0mbFK7NjlManIoeWzkTEmHOa5WUQDwfeGfZtdXLClpGcT45O2tT1pzVyjCbJKNPLLW6oNnbgVQBUqVDhv2BCTp99d6Nk//V/Ldt/RtjXG2jbsda2+MGc3XRzbz9y61d5z7bLtGWcJXkeOb0dqqC+2kKIvEmOdOtwihsxFbhIKjkk2GpxCLc19dVuBUMSOmcIpzMxxlhYWFUi5R+NWgCTKbM56tr93zB44sd8ePn7AHpp9wu5detCSnK2IUxuKzIdQpiduR7S8zMWIABLWP8XHP0YO7mE7XkXTR3OPy/u6gR93chLlaADhaSGrfSRgVAb2t0mVnlvfyH32pFawaBhZo1+z9139Vvt/Xv2jdmPrEmvwCUKlFzTkUeGshjTQeYUKFc4bNgSx33l0yf5ff5nbvYfq6vNDi4p5aaux/cobdtqPvSy2XY0nRA4i/HCn208mFptDDY7HdVJDXecHq0VivtS+wYiDGoa8lS23E6RYEMHk9WVIkRyziZg4WWSoYvT1Q9fRrLNQBB4mtpL37Xi+YEeKw3ZsadaeOHZQZH/QHl88aocH87aguhvWA/cRjcYgsSjNLSMtOYQJL0Q54ndEXWarwBZ+LmJnZCBBxDYJsS6ELM1EkMprydGrb9s6AWs2EUzbT25/jf1vV73NXr7jaj3PpsXY59He2evYCZYKFSqcL2wMjf3prv3zvwvtu492rRXM2HX7zD74mn32c9e2bGdHnJIdExnULI22SFMtw0DozsIAPQaZIyk+n7Feb5SuO5RvODOXpk0W3eZhq+TuyiSGZOUMPNmQvzqCAJeunjA0iUMp9iL5rGtDlXk5S2wu6drRfNGeTk7Yoe6cHV2Zs4Vh1+479qgd780rft62Tdmx3gZ8QYmlLWjbInvEitsGwRO7I3WcxyqxM8ogjLPN65rCuBUyGaJA4wB5cuvg9VCiLZOWz8zbtm7TfvKat9pPX/9uu2bsCmskLWsxHKlWxVSocN6xIYj9gaOZ/dKfLtk9B5bsFZdm7hul779+yq5pDqShN20gNbBuPfcdhyyURs7mJEliYSyCEVdA64lO8qAm8th4vAFvs906IofP7QUiyUAE7zRhCaxMzpk7mD/gZSpIX0SOoOINUB4Qmjwsi2m8jnoM0Yto+eQdu+n08oEtJ31bGa7YQPEcGBy1E/my9bOhLfaXba6/JLdsC4PyjdckTe1IMmcPDA+UEsc5peHhK1FpUu8JWyAwKkLb9ksomSPAI5O4hHemFh0xrA8zu7S2xz646032kcvebVdvvV6CK7AO3om3QoUK5w0bgtgfXyrsf3z6STsws2Sve9k2e9erdtmVk4E1M4i9Zgnb9RYDq6MV8qUkEUouEuFLRji0Xv0SOUZupO85aaOAChYlOkJzpAYJQuCO2EWQEWqskMqXrrFEPaVcQbnmnPCrFOpcnWUpZ0T5OHMJQ7YuGCjlfiLSH/RE/D2Ret96+s0ukzPJoj3YP6zs5KrnzNn/k2z1qN+ZpAoa/0q4aMt5TwIjcXMcyjXL2i1LdTfH1KNUUeElXAoJF5d3XR8fNu21k9fZB696u9108Y0STnUJXlbFVKhQ4XxiQxD7EbHEk48dskG3Z3t3bbV9u6ZPkmAAjUCAzn5RUcK6g+EELSDLpd1LCMj1ROyQ+FD1noj0jwTHNV7qORLnO5+s7kklWBP5yVI+AM08gK7FfNxZQkzaejLIrBN1bN+EhPT2fbZvfLuN8XEOlqRWqFDhvGJDEDtvmg+YORQpNDTKb0qBxX6OtQHWyfmAchiKE3SzwvpBI4dCxOz2heEnJqCgHAHB957z20Wq58EvwXkt/fsD4HN//WIozT10Iw3p9m5g0pSW3i7qxo6RTtXnEWLOqVChwnnDhiD2gTQ+TMyskeboJvF0zb1tCR9gdmFpYFRpe+sJlimmSapWoErmv3tpiSlVLnHkYUjASvtmWaabB8AhCPR/lNjR+Nm22C1nXH1MmGj8Gn5H6kOdtHSxeowVKpxXbAhi7y4vWKPRcG9jis9LiMgZ7kPyfA0eUh/lkQrPH1Q19XuyXiFt7Op6CNjdWYbJ/YwdHvU8Sj/lYRTEw4rTOvv8MsySV6+g458gbgWT3AZ8f6xChU2HDUHs2bAr4i5fVy+ZgAnDQMTON0ETR/p80b/C+sM/fMjXQRfcVgSMmlZ/5zET0+VPD7fmXcgxqgs8L75d65T6EfYuDTuZBdLo2eqATcTK51yhQoXzhQ1B7G7NiM8FRzq+HJojH7lGY4fYT+GWCs8TVLUnaLRpd/S17J8H4K2jZ13wv9DsyzOU9YFcIE2frQfci0zEhebP5LcEgFv/Xm+Uz7dChQrnDRtDY89SDdHLzl5qgIHbSwVkbJylI/uSsz1uhfWFJ3Z/cCq3O4e03RW3lNFt7yuUT8D/feZ5OJMNzw5iF4G7DdmIy72limDQOdf4zmv1HCtUOK/YGJOnaWYxW86q8zOhB/jtCQacbq/zCs8fXuMGpbmFSdNSE/f3eCKclY8AOveUXh65h1iOCIcZx8lm3ZHjeRZs2obgZn8cHapHWaHC+cWGIHZe3gH0d+8Aphg2xEJbr4h9/QFxn7SRq3rLlTDC6tE3DPfZu1Nbyam/FZ442F6YVTO8OOZ+6xauTKX6gFKFChcCG4LYfQYq6t4YOA1nrxlOyVcAwozG489Lg1uFChXOJzZEP4MEKlLfOPDP44d5LgysfJjROGhoFalXqHBhUPW1ChUqVNhkqIi9QoUKFTYZKmKvUKFChU2GitgrVKhQYZOhIvYKFSpU2GSoiL1ChQoVNhkqYq9QoUKFTYaK2CtUqFBhk6Ei9goVKlTYZKiIvUKFChU2GSpir1ChQoVNhorYK1SoUGGToSL2ChUqVNhkqIi9QoUKFTYZKmKvUKFChU2GitgrVKhQYZOhIvYKFSpU2GSoiL1ChQoVNhkqYq9QoUKFTYaK2CtUqFBhU8Hs/w/lyhPeQY/0gwAAAABJRU5ErkJggg==;" vertex="1" parent="1">
          <mxGeometry x="461.5" y="220" width="117" height="61.63" as="geometry" />
        </mxCell>
        <mxCell id="yg_PSwLpjxKoN4KXuRmd-9" value="" style="shape=image;verticalLabelPosition=bottom;labelBackgroundColor=default;verticalAlign=top;aspect=fixed;imageAspect=0;image=data:image/png,iVBORw0KGgoAAAANSUhEUgAAAaEAAACxCAYAAABtCQLtAAAAAXNSR0IArs4c6QAAAARnQU1BAACxjwv8YQUAAAAJcEhZcwAADsMAAA7DAcdvqGQAADhoSURBVHhe7Z0JnBxVtf9/tXTPvmUySSaZ7CQhe0iAICj7quhTweUpgjz1uaIffepfHjzc8LmBCvrc0QcqT0FEBNnCFgghK9lXkpB9X2bJTE8vVfU/v+quUOn0TCYhme7JnK9eurvq1q1btybnV+fec28ZsVjMg6IoiqLkATPzqSiKoijdjoqQoiiKkjdUhBRFUZS8oSKkKIqi5A0VIUVRFCVvqAgpiqIoeUNFSFEURckbKkKKoihK3lARUhRFUfKGipCiKIqSN1SEFEVRlLyhIqQoiqLkDRUhRVEUJW+oCCmKoih5Q0VIURRFyRsqQoqiKEreUBFSFEVR8oaKkKIoipI3VIQURVGUvGHEYjEv813pKp4H13XgJhMwnHaYlgUjWi6STk030nkURVGUo6IidBwkYq3YvuB5vP7MvRhcsgkNE6bDHn8drIZJMCIlmVyKoijK0VAROgYO7tqK3SvnYs+KWdi/YZmk5Zg0OIYRpw0AasfB7j8Z1tALYA2aAqOsJnOUoiiK0hEqQkfBSyXQLOLTvHEp9qxaiB3LZ6NpwxJ4TgIoqsTU0eUYUhtDKt4CM1oLc9BU2EPPhTVwKsza0TAr+0kraxedoihKLlSEOiDVHkPi4D60bFuHLfNfwJbZD6Nt10aYtg2rqDydxwWmjIxiWP8Ikg63yH8SewC7HFa/abBHXYrI8HNhVDbALKmS7VH/OEVRFCWNilAWnpOCE2vBrtWLsHn2Y9i1aAbaG3fDEAExDnk06c83RMjOiBCRjQw69GKSLQmrcoyI0dWwx1wCq+9IGJFi2W1JHvWOFEVRVIRCOMkEmraswaqH7sa+NQuQaG2C4yR9YTKtiOQ4XDhyi1AGL0VFE8+pCF4kCrOsHla9eEcjLpU0HUa0NJNRURSl96LzhEI4iTiat23E7uUvo2nrWqTibSI7pghQkew9Rs/FsKV1i+G5Hry2Rjh71iL52pOIz/kRYjNuQWL5Y3Bb9mYyK4qi9E5UhEJ4riPeT4sfjGBFi2Gy6yy9J/N5rIgAUbysMkkiSO0H4Gybh+SSPyOx4B7E5/0cyVWPwj2wRbKqQ6ooSu9DRegwRDA47nPCo9koMJJM8aiifYBIFZwd85B4+QeIPfdtJBY9AGfLfLhNO+Al29OHKIqi9AJ6hwjRyxAvp3C8DRE5uwIoaYDXug/xhT9D7B+fR3z2r5HavACubIOTVO9IUZRTnl4gQmLIY81wd6yH196S/l0Q0NtiskUgLTixA0iseRCxp29G+zPfQXLN83DbDqgQKYpySnNKR8c1bVqLbUteQnzTPNQX70fFgGGwB0yE1W88rL4jjljVIN7ShE2zH8fyP9yG9ub9sEvEW+lEBDqNjjsmKEZSmNOe1sjiKpjVg6WOY2EPPR/2sOnpSa+KoiinGKecCLnJdjRuXicCtAy7V8zF9qVzgMZ1GD80hX61tbBrhsKoHQ6rbiSs2rEwqobCqhkGo6IP4m2t2DzrMSy779ZuFqGAzFiUK2LkxPyABqv/RNhDzoJVPxlm39N98dQVGBRFOVU4ZUSIUW3tjTvRvHElNs9/HjsWPo32/VvhGhFU11Ri3NAI+lZaMLxWeMmDviE3y4bA5NydIefAHjQRCRRhy5J5WPHAnWhv2Q8rWiYld6cIZSPnTjWLNJkwq06DNfwCRMZcCLNGvLjyfrpYqqIoPZ4eL0Ke5yLZvBfbFs/Ghmfvx+4lz8hGMdtFpaIzpgiFh4piC+OGpUXIND3IpvSIjMl4hTbf87BK+yFVPg7b26qwbuEriB1slOO5skHHnHwRIrw9UlsvKfWUutomIqddg8iEa0Q4J6UnvZp2+mIURVF6GD1ehBItjZh958exb82rcFIJ/z0/XF7HoGEW4+2IUJQXmyERElsevuJgZQPLRsorxtb9JtZtbkE8kYJ5lF6v7hGhDCK2rKfUXoQoIuJjwxowDZFxH4I99Czx6mpUiBRF6XH0eKtF0WnZtQWxxt3yXYTDLhJbzIVC0wpyVIXNrGwA8Xo8Jy4OR4s/abXglJkCw+viXKNkAl7zPqQ2zUF8zo8Rm/E1JJY+DPfANrngHv1MoShKL6PHixC73BhAYJdWppfX8Y3wsRriIL8IV0F7E5l6WiVAtBZ089ydS5Ba9RjiC3+PxPxfI7ns73B2rfVXfVAURSl0Cl6EUm1NSB08IF/imS3ZBKJzrMLTk+G1unL3IpkVGKrh7noViYX3ID7rx4gvuA+pDTPh7nsdXrw1fYiiKEoBUpAi5LkuUu1tiB/Yjv2LZ6B50aNwti+G27QNXntTemkbJ5XJ3dvJiK9dCc+ugHNwG5Ir7kP8yZvR/tLPkNwwC27LLvGMRMS1q05RlAKjAAMTPLTt3YaNs5/C5uf/iLLUJjTUAXW1VTDLGoDKYf4rEazBU2EPGIV4Wzue+8a1aNq0EqZ15EvjGDxQ0VlgQgZuTyY9bN3nYN3WJOIpD1YhBSZ0GQYwSPLHkAwY0SjMukmInn4NImMuhsGX6ymKohQIBSVCu1cuxPYFT+PA2rlo2bUVrXu3oK7SxYh6C3XVFjyzFEZRJVBUAaO0AlZFHyS9Ssx68gU0H2gUm3ukY9f7RIiw4nKR/qTXJBAtg1lZD7N2EOyGS2CPuBBW3Yh0VkVRlDySdxFiJFrswG5sn/MYtr46E3tXL0Bs7yaYkSiskkr0qynC8AE26qpMOKIehhhXj3N7UnzXj4ckKjBnrYcWsbdHSlBvFaGAzAW4CansQWnsBIzaiSJEk2E1TINdPx0mly/S144ripInctntbsVNJdG8bT2W/PG72PzCQ0i27kNRdX9ESqvheaY/GVVySUorx6H38xT1A4r7w7MYXp33yyhQ2GaSggCGImmvxvVILvo94i/+EPEF/4vk2qfg7H0NXlxESlEUpZvpRustxjDHwLgn2zz/Ndg27LJSWFwBoEsD6BkDq3SRTFsFr5CIx5Bcfh9ij38B7TPvQmr9S3Cb+T6jmGSl6CuKopx8uk2EGNHmxZszv7I4pCXi5ejinN2DId6RKR6layG18SnEn/s62p+4BYnFf4Pbslu2F2T/oqIopxgnX4TcBHYsnYP1j9yN3X+7Be3PfQ+JVx9Eat18eI0ZY8fuIl981LPpPij4bHcbSDlwDu5BauscxBf8ArEnv4z2ub+Hs3ud3BK9J4qinDxOWmBCsrUJe15biqbX5mD78vkw961BQ3kLBtT3Acr6wiytg1Vdj1RJLfbuasSixx5Ee+tBWJGiTAn+ggDoV2NhRD0DEyz/dxjqViLpYe7qOFpibk5F7d2BCV0lc6EMYHBa/WcBo88oWAMnwB40FVb9dFj9R4tevXFvFEVRTgQnXIQYaNC6cz12LX4RG+Y8g33LnkcidhD9+lXhtKFVGFDNPC1i7Nr8/Fw0dE9LCVZu8Y4w/CpC+YAXLQ3Ee5RsksYbBHv4VYic9lbYg6fDrBggjcXFYRVFUd48uez2myIuHtDaf96LOT/9AvYueRpmtAiRyuDdN3zENuWJugooGgCzeACsaDUMS41a4ZBR6EwAgygzUqvuR+zxzyD52gx48kChKIpyojjhIuSmUnCScT/AyioqE28leCePPGEf5oHIbw1CKHyMqKTi9KRXl0sl5XAjFUVRjpMTLkKBkTK4ZEx2t0225qg96wHwYYH3UR8aFEU58ZwEERJoq3x7laUyKjo9FL1xiqKcHE6OCCmKoihKF1ARUhRFUfKGipCiKIqSN1SEFEVRlLyhIqQoiqLkDRUhRVEUJW+oCCmKoih5Q0VIURRFyRsqQoqiKEreUBFSFEVR8oaKkKIoipI3VIQURVGUvKEipCiKouQNFSFFURQlb6gIKYqiKHlDRUhRFEXJGypCiqIoSt5QEVIURVHyhoqQkjc8z9PUi5OiEBUhJS+oEVIUhagIKYrSO3EceK3N8Bp3w2uSdLAJSCUzO5XuQkVIUZS8kNMbZlddWxO8A1vh7dsIb/+WY0ib5Zj18NqbM4XlwHPhxZrhHtgCZ/OrcFbNQOrVv0l6BM7yx+G8Phfuvtf9OhwTImhItMOLt8FLxNK/lS5hxGKxE9ov0rpvB1b8+YdY++gvEa3sK1sMpFygT4WFkfU2BvSx+HcGntQ0eK887Gp0sGJjEvGUB0u2BThyXL8aCyPkuLoqy/8dxpC8iaSHuavjaIm5ORWV564oNjFuWAR9Ky2YksnNccXcnpSytu5zsG7rkXXJBcueMjKKYf1tJE/ZvzlpBLddUhOKL/0+ouOugVFWk9l3/Gh3nEIM/iMOk4wjNe/vIggPi2eyHYhWycau/K1IOSIwaNuGyFW3wpp8bWb74XjNe5Fa+hScpQ8CTRvgpQ6m/77NMtnZBtiVMGsmwDz9StjTr4VRUpk2NB3Bc4r35B7YJiK4Q0RIyrOLYfZtgFHVH0ZRqRyvz/qdoa2jKEpeOEKAfMQTSog30bpTvCHxSPa9Bm/3EkmLj5IW+Z/urjUdejHOxleR+OftSL3yQ3g754sgicjFWuRJVuoRFyGKiQfTshvuznlwFt6DxCO3wdmyTA5MZUrIIpmAu2UFEo9+G4m/fhKJJ25C8pn/h+RTX0LiwRuR+Put4mnNkuuJZw5QcqEipChKYeF7DuL9WBEY5fUwBp8HY8j5R09Dz4c5/FIYFQ3pckK4W5bDefUhuGufEI/ldaC8AdakD8K+5D8Rece3YL/j27Av+zqsKdfDqBwMb+9qyfsknAUPwt29IVNKCPF+nA2vIPnCHXBWPAx32wp4jSJ+rSJm+3fB3TQf7qpHkZr1M/G6HoHnUIjU+8+Fdeutt34j8/2EkIwdxJ7ls7Fv7QJYdEXFTWb3V0mRiT4VJspL3tA9PgixV6a13cOeRtfvbmMXXQD3lUn+GjmurNj0f4fh8Txm214HiZRHh/wIeO4i20BdtYVSqYN/zsy+MNzuSlnNMQ/7m4+sSy5YNrsXq8vNnF18pwZsMHkS9OKwR1wGq24cjGhJZl/+4FN0OPU0enr9TwQ5r9tN+d6Ft32e/ONOwmw4D/a098MccrZ8nyppWudp8FRYDRNglFamyxOj4bU1IzX/zyIGfxEDdQBm/6mwJ1wL+4xrYY2Tv+nh02ENngJz0Bkw+oyUv+8K8Y5a4bVwnGkjjKpBMPuNgWFH0mUKzmYRtfn3itD8Q85VB3P0FbBHXSH1fAvMAXL+khp4sQPwdq2Uc7bDkH83ZnlfMSr63J+NtojSYwgbbY4pufLUEIwtBds7I3x8dv5c+5iyyZWHqStk52f9mUhXywmX0dXUGbnyB+lodHZMrn1MXcVzxXOwTJh9R8Aef4GIxoWwJ1509HTGlTBqQ56QiJqzYSHc15+D1yweTdVAWFNvgH3eDTCHTkyP2WQwokUiRqfDPucjsM77rHhUA0XANsPd8JIIo4hJBs+RMlc+AWf1DPGoRKDGvhuRS7+IyJWSLvscIld9FfbFt8Accbnsr4O3Zw2cJY/CS8YyJShhVISUHoPjiMebSKC9vR179+7Fjh07sHv3bjQ1NSEej/v7Owt44P5UKnUo8XdAuGyWxe/h/QE8jvuYhymZTB4SkqPBfDw+FovhwIED2LVrF3bu3InGxka/TO7rrP7cxzw8Z1fT0crkNTIfr4XXzhTUpTNYZnZ78voCoeHvoMzO2vNoiB/D/xw3HsdtXntePJqt4tGMgjXyXSJUV8MoY8BDbozScljDxKsa814Y5UPgblsJd+uidDVc+RvbuV6EZbGU3QSj32QRtA/D7DPEP9bHjmbETIRuyJlwD7wmIvgPeO2NmQxKGI2Oy6DRcR0hjZDn6DgatubmZqxevRoLFy7E5s2bsX37drS0tCASiaC+vh6nnXYazjjjDIwfPx7V1dWHlc/jmff111/3j6OB5P6+ffv6+YuKijB//nzMmzfPF7ZoNIohQ4bgrW99K0aOHIni4mLfwFI4eP4lS5b44sd8o0aNwtlnn40RI0b4+XJdF8/Pc27atAlLly7F8uXLsW3bNl9ISU1NDYYNG4YJEyZg6tSp/vXYtn3ENfD4ZcuW+aLblfYz5Y+6oqICZ555pl9mdnmtra1Yv369fz0bN27EwYMHYVkW+vfvj0mTJvmJdWM52cfu2bMHr732mt8m3Me2YFsxtbW14aWXXsKiRYv8aywpKfHb85xzzvH3l5aWHiqPZR1Gsh3Jl/+C1Py7/e/2Gf8uXsangEhRJsMxIB6Lu3s9Eg99Cu6mObBGX47IJd+AOWySNI6VydQBiXY46+cj+ffPw92+WoTmRkTed5ff5Z9a+ixSs74vntVO8ao+jcjFHxOPqix9XAiv/SCSz96N1Oz/gVFTjaL33w9z4DgRqTe69RT5G1ARSqMi1BHSCHkSocBA0Zg98cQTeOWVV3yR2L9/v28w+YRNA1leXo66ujrf0J533nl4+9vfjilTpvjH8jwsZ82aNfjd737nG3E+nVMUaJw/+tGP+gL01FNPYeXKlb5YUQD69OmDwYMH48Mf/jDe+c53+l7LT37yE99g03sJ8lHIGhoacM011+Bd73oXysreMEY8L89Pg/3Xv/7VP8+GDRv8sigk9IgIxYvCyfrznB/84Ad9AaysrDzMWP/f//0ffvnLX/qeS1dh2bfccgsuueSSw8piezz55JOYOXPmoTalt8J9FK6BAwf66f3vfz/e9ra3HSEczz33HH7729/610aBZlu8973vxVVXXYV//OMffnuuW7fOFyQ+KFDMhg4diuuvvx4XX3yxf8+Ce3MYJ1CEvNhBOKtfQPLpr4gntA32Wz6FyFXf8rvd5MSZXB3A+UQtB5Ca+we4O1fBHH427Okfkn8NJpIz70VqgQhLaSXst90Ce+LFvveTDVsr9cJvkXrpJ0A0Jee+W4TwPBjFRwpWb0YDEzJwO3tVNDAhGzZY9wcm0DhRKOj93HvvvfjjH//oCwiNHgUo6N5hHho6PnHT0+HTOY0bPSMaOj7ZE+5jGbNmzcKWLVt8j4hixPP85S9/8QWOZdA7oMDQ06ERpcHnk/zs2bPxs5/9zPcc+PQf5KOg8JwUFYoRn/QDw8rPrVu3+uXfc889vsGnB8S8PDfrz0Qx5TbmpRCy/H79+mH48OG+yAblPfroo74QUQS7mljmRRdd5Hs1LIeCwbZgOffdd58vjMzH87Ndmfbt2+d7RmxvihMFmddGMSEsh+3x+9//3r8/bE+2A0WT7UJxYrnsZgy3J9uJ7UkxomcUlHUYmcAEd/tc/7tRPw3WiDPFUtmZDMdAWzOclc/D2z5fDH+9CMBVsEaezZNmMnQC88jfuVk7EuaQs2DWnw6zpEL+HYhtWP0ivC2zYFT2hzXxGphV/dJPsTlwt66U65kv5cVhDb8EZt+hMI7HqzuFyd1yilIA0LD94Q9/wEMPPeR/JzTKNIo0YuzCogdE4xgYMz7V02uaMWOGb+gDKEYUE3YbER7DMv/0pz/5XWQdeRf0wu644w78+te/PuS55ILddA8//LB/zuAJnwaYovfjH//YN8CE9ae3RC+DIsPPsPdEWPdHHnnEN9xh6C3R86Knkp14bdkGnb/pwdAbIqwXRYUCxOumV0aYj2WzLhQ/HhPw9NNP4ze/+Y3vAVIwg3OwHSnyvB7C4ynQ999/v+9lZdclgEL8/PMiDJk26hiWKwLMh6BO83WCE/dXXuATpVkjgl59ZOh2Z7B+RnU/ESARoj6D5I9IRNiwYMh3o36ibB+bFqCOJqPywTTF1RPicilyXHGlfB6HmJ7iqAgpBQf/8dOAUxweeOCBQwJE2K3D7qrvfve7uPPOO/Gxj33MF6TA4yH0aBYsWOB7Sx1B0eETPz0FGlQadxrS4Gk/gB7T4sWL/af9zvLRg6BRp3DQ2yAUHo6NBOMmhN7CW97yFnz1q1/F3XffjZtvvhlnnXWWvy8My6FRD44j48aNw7/8y7/4XWvs0mK64oorfE9nzJgx/thWGNZx2rRpGDRIDKjANmW7/PnPf/bH1QJYJ3alsS6f+9znMH369MOuj8fQi6RHE65P+DvrSyHmPaMg0nPiw0L4vhB6R/SyeI/Cx2djmCKcZpE4Hkl4SXmYSMm95OfRkhvqF+dqBsk2ceRbgFIR+tLazI43gR2BffZ7Ef3wPYhcdhtQVSf1zGFG5dq4OoO3fwO8Nvn7tYrEc6o9LMxbSaMipBQk7GKjoWRAQkBVVZVvgD/+8Y/j8ssv940vjSfHYmj4AuixUFzCxj8XFAt6IV/+8pf9p/0f/OAH/phG+Amdedjlx3wcW+G4EvNx3Cn7SZ7npbAFUWD0ytilx+MDKAqf/vSnce211+Lcc8/1x1woLOFuPMLrzjbUPJbidfvtt+M73/mOnyjGn/jEJ3yDn10fekAc8xo7dqz/m17Qiy++6NcxgMfx/J/85Cfxvve9z8/P8lifQIh4HIWYXYXsOsxF0E4U6a985Su+5/i9733Pv0fZUIjYNoFY54TeRbwF7qZ5SM74OZJP/AgJP/34iJTk5z9/iMTjP4SzdZUIT/rhw3PEu22Ta+VnSSUMdqedAIxIMczyOhhlIiodBTiIALprX4a7fZkIT4l4TONhVNUfX7fiKY6KkFKQ8KmeT/4UnOuuu84PDnj3u9/tiw4j0tgVROGhsWSAQdDNRmgM6ZnQ2+lMhChql156qR9UcNlll/lixk96BmGDznz0OrifIsjPK6+80je4QXcU4bnC52R3IfNyMJ6iQ+G6+uqrffGpra31u714Lo5f0VsJn5PdevQ8Algmu93o9fGag0RxpGdBsQt7fvQYP/CBD/gBDvTcCL26F154wRf4AOZj4AHL4nWye5PtzjYOe1Yci2OXXLiLMxsez/MFwQy8Z/zNexW+Nor10R4Q5AC/K8vbvwbO8gfgLP0znGXyuewvuRP3L/6LH7EWlOp5jnhRB6lGYunE+HeTAHjJuNRpBpwlD8DbtQBGTT2s8e+CUVyeyaGEURFSChIa18mTJ/tP5TfddBM+//nP+4LE6Dd2KwWD7jTAfFIPP1XTuHX6lJ2BBpddY4xIY7cRjSiNL7eHu5EGDBjgixPHTCg6zMfxHApJWISyYdg2xeezn/2sX/8vfelLfvcZxZN1ZhcfAxV4LdldhxTS7HEqXlfYcDMPx1c4bkavMfDAKB4MG6dXw7oTGn7myRYrCiHFMny9rB+3hbvkKIjslgt7ptkw4OCCCy7wP9kuFD+2J9stLEKsd2ddpYfgIRxLEc8DRaX+xNJcCUVlMKJlQFR+h8dnGOHmynmCNutM9E4EUrx7YAecRY8gNfd/xYt71o+aM0deBOv0C9NjSsoRqAgpBQcNLY0YvQQacs7lmThxov/UzmgsBh5wrIiD60wMB+7sCT0g+8mbxpqCE4bbKDJhceGTPL0VhiGHofeV3QUWhmVRBBiZdvrpp/vGmVFoDG/++9//7g/iM0KN9eccoHD9Ois3EKMVK1b44dCc3xSGngw9MIp44CFSPHKJHcWH7Ry+3qDe4eulZ8nzsf4kV/04v4hjU2HovVGsO7uenLAtLBGV2rGwJl8H64wbYU35aO50xg2wpt4Ie+r1fpdXcCYKkmHK9fPcftsefv9PKPEY3B0r4Mz7E1LP3gl3y0xpyBKY466FNfED4g31F2ur5jYX2ipKwUJDS6PJAX6GOf/Hf/yH33XGwfNvfvOb/tgM581kR8J1FRpgPvVnezPZYsX9NMzZZOfLJhALdj1RaL7+9a/jIx/5iJ84tsP6M7jiscce84MvjlYeCYw5RYWh6yw3DAWU42VsJ9Y7KJOeEAUk+xy52oDCReEIixC9LB7PcjqCnlMQiRcQtMExw6CConJ/PTf7bdchcsENHafzJV10IyIXfxzmwNFSkUzXLD2Pklq5gfLJwAamY4WBDlxFm5+5roPXF2+Fs24ekk/chuSs78nvnf7acfaZN0ndPgtreHrOmpIbFSGlIKGxpbBwIJ0BAf/93//thzvT+LI7juMazMMun2zPpSOyn8b5O3tbLoJ8XckbhvnXrl3rBw8wiIBiwzk6rD8Tu6VY/1zRdp1BIWA4+Msvv+wP8ofhuBkDDdgmYSgEHXVRZl8X2zIcfk14PL0h1pt01BbH2kYd4fkTpOMwuJI2u+M4GZTzazpMkocpFChgMJy6iGHRFryYCDBf23AMeCI8zrbVcNbMgbNpuT951RfHEG7TdqSe+SWSz94K5/VnZEtEhPN82FffAfucD8HsO4wVSWdWcqIipBQcNGT0gBiNxQmi7L6ip0ADyKd0juN85jOfwfe//33fwN9www1HzLU50RzP0zxDrP/2t7/5id2IFFCWw/EkjtdQmOgJ8TvHYI5mwMPtwrk+FLgAei1sF3bDsTvuzZIrqIOiGYw7nXxo7B2In8HGT286VkS4/O45CliLeJoth8+7OioJ8XAW/xXJGd+Gs+RBePI73KPHJYGc2X9Cavkf4G5bBLPPWNhv+QLsS74Aa8xFMKoH0NXM5FY6QkVIKUgYRkwviPNsgq42ChDDjRmgwMH+G2+8Ee95z3v8eS3B2EchwYF8jv0w+CCAYkNPhWHa//Zv/+Z/Z7QcI+06E6FgH+cicZ4PJ9EG7UIvigEAnDPFwI2g6zBcXtBVln0OCk224FBs6PVke04MYujedu5clI+KLddbN9L3kLwD6/3UZbhQafNuuJtegLvxRRGwHeJVlR+qkndgJ5zlTyK1+H7JtxXWaZeK5/NZ2NOv91d4MIry/7qTnoKKkFKQ0HBTgMKGkOMUF154oR/mzIAFdhfRO2Lk1vFEx51MaMS5UCmXvgnDRUo5XsNghWBlAs69oeHPJlswGCbNEGuOjwXdYoTlMCCAZbOsYGkjtkFQBrvX2H65vJtsweE2jv+EvR6KD6PcgnDv7HJOFm9GhoxoMcwBp8Eo6ZN+U+u+1SIme1n5TI6O8RIxuFtXwYvtE2+qAUb/SUBFjRQqJlOOd16bBWfZ32T/dlgNb4V9/pdhn/UBmLUDMyUoXUVFSClIOAOfXVjhMGVGcXE+S3isgmNDnP8SNpj8Ti8hl2E/2QRGn0KQa1UAGnEujcPtwT6O8VAIwnkpCqx/eNvcuXP9hVAZ6BAWDX5n5BvXp+MiqwzZplgx4i4QaLYdF0jNDrBg+7Ke4bZi2zH8Pdz27O6kyNFjI9nXVZBEojDrhsKomQCjuB/cvZvhrH1FVLYLr9tuOwBnzUxpjHj6hXR9R6YFkZNQm/bCef1JuDsXwOx/NuzL/xPWsKn++ZRjR0VIKTgoIjTMTGFjx+3ZM/ZpQBminB16zPEXzsoPuqy6G563o9UFAihYFFGKLVP4WjmHiJ5UUAaFloEZXBg0LLiEXhE9LgrUfffd5y8HxEjCf/3Xf/XHzDiGROHmfCi+TiHwwAhFiseG24/lcbwpXH8GOvA1Eyd77O3EYvirJJhDz4PRZxi8XYvhLLoPbuMuKncmz5F4sVY4mxen3wHUuhlmv+HiUWVCz10H7ro58HaukTJHwJr0PpgDx4LzmJTjQ0VIKTgYNkxjlx2hRUP8+OOPY9WqVb6nQYPMrqk5c+YcYfDZncQIMnoD+YDjL7nGT1j3Z5999tCSPr/61a/8qLlsYWHUG5fK4WrVgbfHyabZYkvo6VA46CFxLI1BHMzLFQ44n4oeFMWGc3+48kPYG2I7ctyKnhO9H67/xvlLYQHkPeBacBx7Yzh3d+DP74ENT7wWL9YG72ATvOYDXUvJ0N+CXQRr3AUwBkyShorA3bUaqed+JJ7Mq+x3zGR6A57HWfoIUrPuFBe1EUb1eBGxc3yPyocitGEmvP07xDsaD2vEOfIHK/WMywMT69lRapfkyL3rCR5kN6MipBQkNJiM8grP5KcxpkHl3CB2O/GJP1hhO9w9Rdi9RcGih0Gyx1c6o6t5c+ULvBmOv7D7K3veDD0MLgbKuv/0pz/1X4fART9zweg6vvOHAkOvsDPPKnsibQDH1pjYHpzsyxUNuAZdICYsk+fnmnh33XWXn+hRhRdiZTAF5x4xqi8cSn4sbXrMGCJCqQS8HYuQnP0/Igp3dS3N/DHcLYvkPmT+HgzT92SscZfDGPIWcVEPwln1BFJzfonU3Hvl+0wRlVfhrl8g4vMkUrN/g9SCe6SMeUCkL6wJ18AcNv1QV5vnxOHuX+FHynkiUs7Kh5B6+adIvSTnZspRp6TUKfXK78R7Wudfk3I4KkJKQcJBcC6Vw/GTMBQiPqn/6Ec/8o0lPQR2M1Gwwl1FfNrn4pw0pAnxHigO9DbCYsVt4S4w0lG+bLif4ygd5eMYDN/0yhSGHhq9Gxp7LvLJibisJ6P+6G0EoktjHwQBBATnophQEHjNDHDgEj1cKJTiwpUlWBbXmGMdSCAWLJPHsJuOqykEwsXrfeaZZ/xw+AcffPAw7zGY/MooxPAacB1df672ZJ7w9uw8R8CJoW5SBGMPnM3Pi+fyHSSf/S6Sz3//6OnpH8LdOFuOD3s5BqzRF8Oedi2MutFi9aJwlt2P5IzbJd2B5Iu/EqH4BRJPyTle+B7cbQtg9pkAc8RFsKa+8w0viNcXbxXl3i+N1ib5uLjqt5F8/OtIPvVN+f4tOf+RKfXk7Ug9e4fkX3O4l6b4qAgpBQmX0+FioRSi4IVqNJo00vykyDBxsJzrsvGdPXwlAvdzqRiOX3A8hAuUBt1i3EcPgMfxO8ukQQwbRRrZcD7+5vHhbkHC7UxBPu4PPgMYes2VqSkyzMfzsWwmlsmxGW7nBFPOF2LYebBcDqPduPApV/jm8SyX+SkuFISvfe1rvjfIF8jRi/nFL37he1X8TYH+4he/6Ldf4I0F9WIdOZeIi4xSiHj+8PXxmnh+bqeIfehDH/LnMTEghPvCbcXrYJ2C8lkOt2UTtGeQL2j/DuHbJKUsL2qKQySpvBpGRReS5EO5CG+U4zOHe2lGSZl4Q1cgctGXYfQ9HUYZl2tKwjuwEu7mZ+BunQnEtsn5IjD7joM54QOIXPVlWP3HyMGZe0rvit6oKeeQe2kUWbnrkZVEvSXJ+ehNSRsqh6Ov987A7fp671xII+Th9d40ePRgOEDPyaoM1+bL0uhJ0Diyi4iv8OZAO70NGjZ21fHto3xC59M+BSp4eufTPcc+2D3Hcvn0T2+C83ToHQRCxXk4HGdifkaHsRuMc3A4IZYCEHgPrAu71dgVyLJ4ztGjR/vvOuIaccxHDyAYu+KYC8d4GMVG6OnRa+EK4Ewsm11gFBKWyeuiBxKs1M0ADHpN9ARZX14X68zzcD+vkedjYn3YzcZFUnm9bCteK0UgaHeOHbE+nIvFMTWuC8cxJYoFBYfjP6wDP1k3nis4lud69dVX/TE3Xg/PyevnQwAFksLHPEwcW/rnP//pdy2yXmxPXjeFl+11hBhxzGX/FnhN0k5JrvZ9lH+E2UgVjQGjYNQMkiOzjpX605Px9m8S0VkunskqEaFtcp6YKGWRuK91MOvHwGqYIEIloluW/RI6OT4Rl+OWi5fWJCfKZXFywHazS2AwwKG8Vs6lC5mGURHKoCLUEdIIeRAhQiNGaJzZ7UaDTiNGj4LGmV4DP2k4CcdOOLhOY8cFRwNhITyOxj08J4bHcdHNQKiYaORpWFkW68i8zMcuv7BHwf0ca6GxD66FXgENMPMH5RGWSTFlMAIDBLidXWrBNdBzY7msN8WPkXX0BIPFVYN6MPFY/mZQA1cQ5zWxTB5LQaJAU0S4YCrHpXjdNPRss4CgXrwGHs+2Zf34m9fI8/J6KZQsj3UL3y8ez+hD3heWH+xj1x3bkw8EhPlYN963oD1ZT14vr5vdp0FdDsNNidPB1/Vz39H/TpjjsFK4dE/mPuVGxORgM7zWff4Ykd91x2Oict/4jqAy8V4689TkGjjmlKPmOUnXT3LT4Pn16uqRvQMVoQzcriKUC2mEPIkQyWmksgjKCuelF0PPgZ4Tu/NoVDsi28B2xPHkI129hux84XIoQBQdeiAMueZ3iiA9pGCOEUWXBp7Xy0m97EajwJLsOpHw+Vg+8wReVZijHZtNOH9Xrl3p3XT2uKAoeYcGLUhhcm0P/2aXG0WIA+0MZGAwAJ/c2W0UJnw8CcrIlcLk2h+kbI62PdgX/h1sC6BHwe5GTkRldyGXBGKXGr0cCg8FiN1vnPPD7i+GZvMYiktHhM9F8WFZgWiE9+UivD87hcm1P0iKQlSElB7DsRgwdglxzIjGlQP3HKjnmmv0Iugd0VMKure6i3D9u3INAawjx2soEvRwbrvtNv81EIyw+/nPf+5/cqXx4G2vhKLEa+8qx1s3RXmzWLfeeus3Mt9PCMnYQexZPhv71i6A5c8iNvzur5IiE30qTJSXvPEPg//++ffe2u5hT6Prd7exiy6A+8okf40cV1bMfunMjgw8nsds2+sgkWIf8pHw3EW2gbpqC6VSB/+cmX1huJ0Pjc0xD/ubj6xLLlg2uxery82cXXynBmww8R68OOwRl8GqGwcjWviLM9IAc8yBEWAcG+EYCoMWODGUIsTxG453cAyERr7Qu414LQww4PVwvIeBBgzhpugwEIKJHhHn/HBMi8EOjIILrq8QKfQ2V7oH9YSUUxYOxnNwPXgRHl91wCgtvgzu5ptv9sOc6R0x0i0IGAinQiCoCz0bDvwzsa7sXrz99tvxrW99y3+vUBDuzbwMemBEWyBA6tkohYx6Qhm4XT2hXLDBep4nFEAjHMyv4YA9DTPHhrikDcOSObhPYWIoM7ezi45RZsGcnkAEwulk0dG5KDqMXuPrG/gWWXp0HPfha86Zh6HUFFuGss+cOdOPbnvHO97he03H0iXX3QTXp/RuVIQycLuKUC7YYD1XhALoSVCIuMIAu7FonDnOwmV0OF+Gg/4MZGDIMsWInwytZoBDeHC/I2E6EYnnYcg3w5kZZMD137jWHOfxcL25Rx55xF8lgkLDEOnx48f7k2E5oZdh3VxFm/NyOLfn2muv9VebYLmFSiHXTek+NEQ7A7driHYupBHyGKJ9MuC5adzZFcdVpznXhYJDEaA40RPiGAwnu1K0ODmU7y/iNs5vYdgz81GQmPg9EBLSkXENrpmfPBfnzDDxO0WE0W5MHNOhONJbYz05j4fixHPRQ+MKCpwUytUMWEdG/DEvJ9QyXJsraN90001+/kLuilMRUoiKUAYVoY6QRjjFRIjGj9Fx9CbYFcdgBQoSu7wCmIcRdkEKos0YAECPit1f7N7j5FQGB1CYKF48jt1/zJsNxY6eFRODI4IJrOwS5EoNDJ6goDAxD4WHKQgr53mvuuoqf4yLqw1QjChKXHGb3XO33norzj//fH/8i6sXFLIAERUhhagIZVAR6ghphFNMhEhgAOmFsNuLngfn3rDrixFm7I7LBcWIIkOviMLDYACOM1EMAuEJxCgbikngAVFk2O1GD4yfHPfJ9e4jlk1vjEEV7Gaj50MhZD0CWN//+q//8gWLrw3ncj+sl4qQ0hNQEcqgItQR0ginoAgFhA0hu8GCgAUadnonXAaIqxKE3zJ6smFIOb0ehmHT4+Faawwy4DaKHQnaj/V/5ZVX/AVQ+dpzBiQwMKHQBYioCClERSiDilBHSCOcwiIUEDaI9CjYTUch4kA/vSR6S+z2YpcaEz0YejRvBo7Z0KsKPCvOW6KAUHjo/XCyLRdPpVcTkN1u9K64hA9XSuAL64LXP6gIKT0FFaEMKkIdIY3QC0Qom6B+9IAYRce5RAyR5vgNBYmGn55TEFgQpOC44DMwtPwMAhiCAAOOJdHbCVa5ZgAEF16lJxR0t3XFUPNcTLnGoQoZFSGFqAhlUBHqCGmEXihCJDCSFJcgUICeB8duGFjASDaGUgdh3dzGfBQu5uXxwXgRRYVjSBQYRtgFUXacWEoviONIzMO8FClyLG3Ec/WENs1GhUhREcqgItQR0gi9VIQCOjKUgTBRlJj4O/CI6CHxOHonTIH3w0g7ChO72Lgtl/fSE8XkzaBCdOLoiX87uey2oigh+A87nALouXC9tuD9O3yPD8dw+FZUdq3xNdv8zm2cZ8Q8nEDKsR8KUiBAHZWvKL0BFSFFOUayRePNJkXpzagIKYqiKHlDRUhRFEXJGypCSl7gYLQmTUzKiSNX+xZ6UhFSFEVR8oaKkKIoipI3VIQURVGUvKEipCiKouQNFSFFURQlb6gIKYqiKHnj5IgQJ4H7E8E1/PLUQO+joignh5MgQmmD5bmepPRriTtEbVsPQJ4mPN5HfuoSM4qinFhOuAiZtg0rUgRDSnbirWK3guWlxYAdJjpq1HoEXkJSO+Sm8ubKBn1yUBTlxHHCRaiorAqj33EDzrnpLvSdfDncRBzJ5t3wkjHZKwbMc+XBugmI74TbvhNOohGecxSPSelGMiKTagFiW4FIBPbYD6Hk7T9HZNRlMErK0/sVRVFOACf8fUIBydYm7HltKZpem4Pty+fD3LcGDeUtGFDfByjrC7O0DlZ1PVIltdi7qxGLHnsQ7a0HfS8qQN8n1F1kLtQVr8dp9Z1Uo88oWAMnwB40FVb9dFj9R8Ow37g3iqIoJ4KTJkKHEMO2Y/mraF07ExWJLaga0ACzeiTMymGw+g6FU1Tqi9WcO25ErHEv7JKKQ910KkInG16gNIYb99vciJQApX1g1cq9GXwhIiMvhFU3Mt3QiqIoJ4GTL0IZ/O44JwGjuCqzJU0qHsOeVfMw585PINa0X0SoXEWoW5BGCMbrLPl/UQ3MugmwRlyCyJhLYJbXSaOkXzOtKIpysshlt08KRqQYRlFl5lcWh4w9DWO3aKLiJUWNW+UvwIE97AoUXfxNFF/1HUSnvBdmRT8VIEVRuoVuEyFfaXJ066SX87bgplJItbaJs9SWM9+RME9X8ilpMm2VCTgwikoQmXA9St5+F4ov+ALskW+DWVmf7pJjaKOiKEo3kHdrY9oRVA4aicnX3YwhF16DSFkt4o27kGxrFC1yJbGKTGkjatBb4uB5fDfQvguG0y5P9Vn9dEqGjFC74vUk9kubSXtVj0TkjBtRdP5XUHTmRxEZfQWsvqNElDTqTVGU7qfbxoS6wu6VC7F9wdM4sHYuWnZtReveLairdDGi3kJdtQXPLE136RVV+KHCVlkNkmY1Zj35ApoPNMLM8QTfO8eEWHG5SFcE2hEBipb5Xo5ZOwh2wyWwRzDgYEQ6q6IoSh4pKBFK46Ft7zZsnP0UNj//R5SlNqGhDqirrYJZ1gAwqm7gNFj1U2DXjRSxSOG5b1yLpk0rYVrRTBlv0PtESCpFz5CCbBowolGYdZMQPV28zDEXi3gfHhiiKIqSTwpQhGhDXTiJdjixRjStmg3baUPV0DEwqhrS3UYWV2Sw5dNGvHm/iND7VITo+dAD4goHSMIq7gdzyAWwx1wu3s8UEZ9qGGwfDbdWFKWAENNbeBiiCHZxKYpqBqLPlMtQecY7xfuZArNqkB/izUg7CpBCMqKSaoaRaoFVPgiR8dej6Mrvovhtn0NkxFthVvRPTzRVAVIUpcAoSBEKY5dWwS6vkS8dzdanYQ1Sb4HXSpcuE3CQbITZfyqi0z6Gord+EUVnXg97xAUwa4eL51iWPkRRFKUAKXgROhqe5yIVa0GqrRmuE8887R+rIAX5PfYFZr4XIpl6OjERn33iDZowB0yGPfZqFE27EdGz/h2Rie/OLLFzZNekoihKodHjRcg0LVT0H4yS6n7y3YabiouOcFwkPfBzVDniawoYReY5MDjWFKmAIWUeq4yddCiOvC4usROJwqishT30HBSd80WUXPY9RCe9B2bNoIwIK4qi9Ax6vAhFyitx7hd/jqmf+hFqx54rmhKHmxQhyqy84GXE6A342xOR8US0+J3rph30o8iM2tNhDToLVrRE9hdKuFtQf6mP1ybeTwKRkVei5KpfoPTquxE9/WKYZTUiPj3+ViqK0gspyOi44yHR2oL2xp1o3rgSm+c/jx0Ln0b7/q1wjQiqayoxbmg6Os7wWuElD/oeg1k2BGb9NH+laHvgJCTsCmxZMhcrHrgT7S37RYw4ntJx85z86Dg5NwMO5FnBrDoN1vALEBlzoXg8I2CU90uvbqAoitKDOWVEKMBNtqNx8zo0bVqG3SvmYvvSOUDjOowf6qBfbR/YNUPF4xnurw5t1Y6FUTUUVtVgGJV1iMdasXnWY1h2361ob+Ziqm+s6J2LEy9Cma40f5JpTLyeMlj9J8IeIt5Z/WSYfcVT6zvCF1BFUZRTgVNOhMI0bVqLbUteQnzjXNRHdqOi4TTYAybB6jfeN+YGu7FCxFuasGn241j+h9u6WYQoKlKYvwSRfC2uglk9WOo4FvbQ82EPmw6zsp+fU1EU5VTilBahNHJ5Bw/A3bMFRv9hMEo7XjEgLyLEgAO+UoGrVkciMIpqYA88C5FRV8IaeibMUo73qOejKMqpSS8YzRYDXlYNc+h4GCUdvEoiL1DcmFJyFxxYJTWIjnkfSi7/LoovvQWRMRepACmKcsrTO0Kq/HXU7AIy6CI+wSsVympRNO1zKHnX3Sg6999hDxHvR7bBiqgAKYpyyqNxvYch4sDut0664I4PiokkzvHxVzhoglV/NqLnfRUlF/8Xome8H9bgs2BW8X0+xelDFEVRegEqQiE4STVaVuGvNsAFVBlpl9mT+TxWDPmfCBrff+S0wyiugTXobEQmfxDRMz+GorM/g8jYd8KsGSxZ1etRFKX30QsCE7qOk0ygacsarHrobuxbswCJ1iY4ThKek4LJ7rEsMeo0MIErMXgOTLsIXiQKs6xevJ9psEdcKmk6jGhpJqOiKErvRUUoCwqOE2vBrtWLsHn2Y9i1aAbaG3f73hFfRZ4m/ZlbhGQjHUwvJtmSsCrHwB51Newxl8DqOzLd3cZIuOP2rhRFUU4dVIQ6INUeQ+LgPrRsW4ct81/AltkPo23XRvFsbFiZV2G/IUKRjAjJfxJ7ALscVj/xekZdisjwc2FUNsDky+R0UVFFUZTDUBE6Cl4qgeZdW9G8cSn2rFqInctno3HDEvGYEkBRJaaOLseQ2hhS8RaY0VqYXAJo6LmwBk6FWTs6PclUx3sURVFyoiJ0DBwUMdq9ci72rJiF/RuWSVqOSYNjGHHaAKB2HOz+k2ENvQDWoClHrMagKIqiHImK0HGQiLVi+4Ln8foz92JwySY0TJgOe/x1sBom6aKiiqIox4CK0PHgeXBdB24yAcNph2lZMKLlgMmId+16UxRF6SoqQoqiKEre0MmqiqIoSt5QEVIURVHyhoqQoiiKkjdUhBRFUZS8oSKkKIqi5A0VIUVRFCVvqAgpiqIoeUNFSFEURckbKkKKoihK3lARUhRFUfKGipCiKIqSN1SEFEVRlLyhIqQoiqLkCeD/A13M90VBRE7cAAAAAElFTkSuQmCC;" vertex="1" parent="1">
          <mxGeometry x="446.5" y="60" width="147" height="62.4" as="geometry" />
        </mxCell>
        <mxCell id="yg_PSwLpjxKoN4KXuRmd-10" value="" style="shape=image;verticalLabelPosition=bottom;labelBackgroundColor=default;verticalAlign=top;aspect=fixed;imageAspect=0;image=data:image/png,iVBORw0KGgoAAAANSUhEUgAAAQsAAADLCAYAAAB5yrZSAAAAAXNSR0IArs4c6QAAAARnQU1BAACxjwv8YQUAAAAJcEhZcwAADsMAAA7DAcdvqGQAAD66SURBVHhe7Z0HgFxXdYbP9O1VvVmSJVmSm9zBBmwMxmAwJaEnJOCQQBJCIMEhjQCphHQSEsCBmBIMBhtCcbdsYzC2ZcsWlmz1rtUWbW/TJ+e7s3f9NFrtvl3NrjQ795evZ3bmlfvuPee//zn3vjeB4eHhnDjMbuRy+l9OksmkdB0+ILsfuEu2fvebkujtlEAwKvo/s1lWSyQUlLUN9bK6tk7CwaBkc/pplv2zullAQs1zpfr6N0j1la+UcOMcEf3M7u8wexEIBMSRRRkgOTQoHXt2yQ4liT0P3q0k0SXpZNoQSDAYxhLMdln9+0SyGDGPrJIG7/WzYEXUkEbF5VdJ1cteJdHFy/LbOMxqOLKYxUim0nJ062bZ/sM7pG3rszJwrEPivb3a6yKhSMXIVi9iXLLwIJdOKr8oadTpNnMXSGzdeVJ51TUSO3vtyBYOsxGOLGYhhnt7pHX7Vtn76EPSsf05Lc8rSXRLKBqTUKxKvZ2tTux2v2RhkUsnRNIZCdY3SHTVGomtOVdiF1wssdXrJRAKjWzlMFvgyGIWYVBJov35LXL4qcdVUTwrh5/eJJn4oISraiUYjp6UJCwmSxYGhDDplOSScQlU10rFeRdI7LyLJbp6nUTPWiHByuqRDR1KHY4sShzZTEaVRLd0HtwvR559SvY+fL+0PP2ERhpZiVQ3mByDyTX4wJTIwgvdNhcfEIlWKGlskMorXq5qY72E5swVqamT0EhuxKE04ciiRJFRkkj090nPgb1yYPPj8sKPvi+dO7ZJKBKRUEXNyFaTwymThQe51LDJa0RWniOVV79aAusukOq58yVUrXVzpFGScGRRYshllSTicek+ckh2b7xHtt1xmwx3tklAw4xAMJJXEVN0xmKShVZEi9ZD68v70IJFUv3qG6T6JVdLqKEpn9NA9TiUDBxZlBCSqZS079ouO+66U3bfd5ekBvrILyqyyg/qfKc4YheXLEbA/hQ9ViASkmBdg1RddY1UX32dRBa5KddSgiOLEsLz9/1Ytt7xVWnftkWSw2nlhoAEI1H9pjiyflrIwkKPk8um9Y3WuSIm0VXnSPVrbjRKw6E04HRgCaGv5ZB07N4t8d4+CcUqlShYK1Ei8b8SWyAU0RKWTG+PJPftkXRry8iXDqUARxYlhKDG+ayTCMaq89J+nGnQMxmBaIUEYjERVTEOpQPXWyUHJQgXODqcBjiycHBw8AVHFg4ODr7gyMLBwcEXHFk4ODj4giMLBwcHX3Bk4eDg4AuOLBwcHHzBkYWDg4MvOLJwcHDwBUcWDg4OvuDIwsHBwRccWTg4OPiCIwsfGO7ulN69uyTddUySifjIpw6ljHQyIX3tbdK1Z6cM9vaaH1hyGB/u4TcnAY0yoOTQ+twz0vmLzVLR3ytnLVos2cZmic1dIJHmuRLS94G6epGKSpmJB98/+fVbZPNtt8pQW5t5rH+xMa0Pv/Egl05JqLlZal7/Fqm/8R0jn04fuILk8JAMaX8OHmuXQSWJ/pZD0t9+RGriCZm/Yo00nbdBqlaslmC99qfDmHBkUYCMGjK/u3Fs/z45svkJ2XnfD2Vw+zZZpUa0vrlJJBxTg2qU6PKVEtMii5aKKHlU6vfB6loJxCokWFEhgWlwZkcW/pBJJZUchiU50CeJ/n4Z6D4mfS0HpXPvbunYuV069+yR4Y4WySUHZF3jfFk1Z540rT1fKl52jVScf5H5tTWprZeQXr/Di3BkMYJMSkmir8c8LXvfk4/Jtju/JQNqYDh/bVWdrKytkfVKCObxsxnz4Ev1rhQ76jaVEl66XCpWnyvBhYskumiJhOcvkmBNnQTCIUMcgXBYg75T0x+OLE4EDzBOJ1OS0bDCkER/n4YXR6Xr0H45uu0X0r5tm/Tu2SKpwV7tgyoJRKrN07qC2h8ZvbZ1jQ16rfVSpT2b1r4Mz18i1de+VmTDZVI9b4GEa2pOud9mC8qeLHLZrCQSCfMLXtu+/23Zt/FeSQ8PiITUwQNBY1BVkYisrquVdQ0N5u9RjL7nh4O1MXlitRIID7oL1DdIeMFSia44W6Lrz5fowiXqIPPUWCP6ZVD/01GLB+xO4iG75U4W/Dardpj+l5OskkQ2mZTBzg5p37NTWp7bLO3PPyc9+/dKortNCT2hfVgtWdG2pr1NM5ueGW1zSxYra2ulWvvOHB/kMhpeNkgNDxa+9nUS4bdc2afMlUZZk0VCja31+S2y7XvfkgOPPiipoWF1Dr7JqW3kfzAYg6pUdbCmru5EsvDCfK7FHEDJQ//PCAY5BMJ5cgg2zZPoWSslvHKVRCmLzzLqwy/KnSxQDH2tqhr27zE/qNSx9TkZPnxEsqFhyWSDkk7zUOCsNjxbj/Sh/mGIeQycQBZ8yPXyy/EQjPY7P81YeeHlUv3K68yvrJUzypIskK69LYflyVu/KC3PPikDba2SGBgw0jQYPt4JM2o4lfr5hGRRCGN0KA41PJ5qrUYc0GMHKqskWBmToDpjqHGOhJq0qONEzl6jSmSxROYtyocsY6CcyCKTTku3hhLHVCkc27VdBttapO/QPhnuapPk0JDEBxLmNTscV0LWQZ/fTVFy1v8pSVhyGL/uY5KFFxqWoDZCVTUSmjdPKs6/RGrf9DYJqeqATMoNZUkW2Uxa2ne+ID/+2PulY9dOidXPkWBEnc+0xPHNMWWyOA5IX33RfU2+Q43QjF487bqiQsmjUp1HSUNHsRCJtbnzJazSN7JAQxd9n6mukaga86ZvfkWe/sZXlCyOKlmc+Cvop4qZJovaN7xV6rSkCQX7egyB9xw6ID17t0v/kX0y1NMjA129MtDZKanBQS39GuXFzYOLg1ElXX6/1YZxY/TdRJiQLAz0+JmkZIcGJaqE3vyxT6oi1LCkDPMY5UsWOlrdffP7pPPAYYnUzMk77xgoDlmMA0MgqjxSGmOr06B6grUNEl6yVKLzF0pw3gLJavhSOX+BbHrwHtm68T5J9nSrrepwWmTMFFkElDBDeo7MhstkYN2F0nvkoAy3HZSelhbpOXJUevftkLgqiEA4ooSgZMoTzfV9/oeURg5ShHr5IwuFElIuPigR7ZOmj35CosvOzuenygxlThY3KVkcUrJoPqnxTTtZFIKRUp0pl06KpJVAiLkrayQ8b748o+HH3qOtZuZmOjBTZGEEfCQih1TK/6JX1cPhg5IeOKbKXsMzJQZUkwkpgDn99LS5b7LQPsgllCyWLsuTxdKVZUkW5Rd4nenAOdVJzW9rVNVrqVNbDUqmtVUivb0SQn2MbFqqoP7DiYR0t7ZouHFYo7EKiTUukWj9XAlXVOvlqiPSDoaoSv1qZw8cWZQIQqpuTpbVL0mMkKLGFyMfOJzpcGRRIrCh+mxDbrZe2CxEmZOFk7he8EPLYQ15KjQeD5v3AQmSQ3FwUJQ5WZSvI3Dl8EBQC6/JbFZ6Uxk5MpSQx9t6ZOPRdnm2q0tah4fMd1ENGSgRLZBI+bZc+cIpizKAIQbKCDGQIh3KZKU7mZH2eFrahlPm9Zi+tg2lZFt3nzze3iWPHD0mG1uOyU/09fGOTtnS1S2HBgekL50yB4Q4KCFHHmUBl7OYhTDEkH9rkMrmyaFPlUOPEkR3UokhDjEk5eggJSVdShZD6ayZKsX545mcHBpIyOZjvfLQ0Q6551Cb3H+kTR7W9z9v61Li6JWdff2qRAalhxu4VH0QsqA62J/3jkBmF1wYMsvArSlJ/V9cnXcwkzGlS8mhVRXDoYGkHOhPSMtASnoSGUkqIQATiuirtzV4HwsFpTocMuEHhNMZz8iznf1y/+F2+c7eI1oOy92HWzVs6ZTtvf1ydHhYjiUS0q/KI8laEY6jB7LHdyhtuDCkxAE5sLiIkjIEkdaQIiUHlRj29yVkn5Z2JYpBVRUZ3fhUnBanrwyFzI11KIi4KpE9vcPyUEun3K7k8ZXtB+Rbew/JRlUgW7t7pC0el+E0pJQ19ZuOBV4OMwcXhpQYuLEpncuagvRHNRzRcGKPkgLlsFENaUmYkILt85Q4HW7KMQk3UB4hpSHq0zGclKc0dPnBgTa5dcdB+fLO/fK9A4dlU0enHB4akoQShyUs9neKo3TgwpASAY5FWEDkQEJyd29ctvcMy6H+eF45MIIrOxAuGJLI7zbtoAUJNSiAc1NSylKDaZKmSdnZO2QSpd/d2yK37jogt6n6eKz9mHTFEya/4VAacMqiRICMn19ZKVfMbZbXLF4gr12yQK5eOFc2NNfLuU3VMq8yItEQjpcPR4aUPAgB2G8miINzmKL/CyqFoDTCGrdAcBVaeB8JsUVGhjJJ6dQQpSfJg4IcWZQK3F2n5q7TM+hGsnGA5LfTlNQjnslIXyqp0p4ZjpT0J3HErAymmNlIqzMmDXEg/Qc1LCHHQN6AxVccg2lP8hCTwejV6xves39ESSqibzgU5MBnvDchiv5tv6vU7fjM7nu6QRu6G8n8w911eqbddeoT1hl5tc4PyBsM6fVBIMd09IY4+lMZ6VUi6VelAYnwXb6Q98iZxKcJH9RdOBIqoBB8AlHZ76KqSTl/UP+GIGIQgn5VNUIWqAv+9jbXmWZojiwmB6csSkhZ+IV1bPue/1HthBIJC6r6VXGQLzg0mNC/0zKcypqQBaWCErFXGNb9ICKQVwkBqQrnI9cafSWxmf/2zCMCP3BkMTm4BOcsBEafVkegkGgk6cl7CKQxEpUVNbVycXOzvHHZInn3imXyzlVL5B1nL5Y3L18gV85vkEXVMZlTGZEltVFZrmVFbcyUxVVRaYyGpUkLRGHPVYpE4TB5uARnGYIRleeC4eQIh+pQWOZWVBj19JJ5c+XSuQ2yoCIqsQD3gby4nNsWh/KEIwuHURIg1IipYjCqIeD0gsPxcGThMAoXUjiMB0cWDg4OvlDmZOHGUQcHvyhzsnDpOgcHv3BhiIODgy84snBwcPAFRxZlCIIvs3TbU5g25fZ3u0KVlRWs5bS3w9vCilaX6SlPOLKYZbDrJSCAiC3B/EN2IQgcvT+dlo5EXA4PD8me/n7Z2tMtW7q65JnOTtmsBVw6t1kumTtHLmxukg1azm1skLNqamReZaXU8Mvwug1Lw7kXhdeUkggFQuFmNUcosw/uRrISu5HM3Lw18h6H9f5CK047nM3f35HRkr9RjJvH7D0fKAcxN5Hll4DnHT2t772qYl1jvayprTMOzzJxAAFwLEMMI8eGHPIP48nln4hljsX3OXMOe6+J3R9o9Q24q4RrOZ1w94ZMDo4sSogscErrsHmnzD8NK6GfUS1erdPmHTpPCsOqJKi3+TdSfa+fWsfFoQt/6xQyANxQNkpSIzvb76gXd7pyXo5h72qFpKgvdYQ42Bpiok151B7bnM72dGQxOTiyKBGywFE7EgnzOx59qbTEccQRB4QMcNj8P0z7RYQCL94ZOhHGIgurCCaCPYf3blf2pNBmPBuU9ykUiRIIz9poGeQBv3FDVqcDjiwmB5ezKBHghDyfYm/fgBwaGMg/q0JJgudTYOT5hGVQIiM3f9kyU25oiQHSonC3K6+WXLlZrUbLnFhMFlVWyfKaWplTGTtt5OsweZQ5WZSeoRICoBbsCF5qgBwoNoRxKB2UOVmUpsM5OJwOuDDEwcHBFxxZODg4+IIjCwcHB19wZOHg4OALZU4WLiPv4OAXTlk4ODj4QpmThZs6dXDwC6csHBwcfMGRhYODgy84snBwcPAFRxYODg6+4MjCwcHBFxxZODg4+IIjCwcHB19wZOHg4OALjiwcHBx8wZGFg4ODLziycHBw8AVHFg4ODr7gyMLBwcEXHFk4ODj4giMLBwcHXyhzsnBPynJw8IsyJwv38BsHB79wYYiDg4MvOLJwcHDwBUcWDg4OvuDIwsHBwRccWTg4OPiCIwsHBwdfcGRRgij1CV+3uqU0UeZkUVpmm9N/mVxWUtmspPU1k+MT/p3ZgNwooUBAwloiwaB571a5lBbKnCxKx1yzWqrCYZlTUSFzKiukIRqTmmhEKkNh43wA8vCW7EiZbjKhFYPq/BBAYQFJJTfKYDotPamkdMTj0plMyHA6qwboKKNU4JRFiQDnhyjOa2qQi5ub5YKmRlnfUC8r62pkWXWV+a4hFpVaJZDqSFiqtERDQUMkjOY4bkALV5wvhf/GBq58spIbIaW0lmQmo86floF0ypQ+JYVuJYSORFxahofk8NCg7Ojrla1dPfJMZ5c819kjHcPxUUJxOPMRGB4eLh2PKRKymbS079oud998k3QeOCSRmmYsf+Tb44Hsr9QRfU1dnaxraDDOcTrB2XGvkP7f6+LUi78SOoIP6fWhKHqTSRlKpdWJM8ahE9mMDOl7tszodmxvin5HUMD7cDAga5WEVtfWGUfmM0MMWjimVSyA81jVwLmGU0oYShocDxWR0Pf5s+Rh36Em7DFPJ7iWdY0NsrK2VqpDoXHqo+2QGJTI0mXS9NFPSHTpSgno9uUGRxYlRhYWheOxrRWvOCuwDsnfhDGWUHDg/mTKODsOHVcCgVAG1MFx/NX1tbK8ukaSeu1D+lmcbVAOSjyQTV8qlScOPY4lDl55SzgCOKc5t/nreBTW/XTBkcXk4GZDShTWEQsdEkfEYW0xCUU17KiGI5X6WqWlJhSWuRq2LKmqllWqIM5VErxoTpNcOX+uXDlvrjnO4x0d8lhbuzx9rFOe6+qWHb19cmBg0OQbIBAUBKFHKpM1xZCF/uM1/z4P6lNYHEoTjixmMXBYFIV1Xm8hxIgpgcSUPFBONeGINEZj0hSL6rciXYmE9CSSMjgSxiS05Gdh2Ns6/oukZP85zF44sihj4PYQCXLclmyeCwwBQCjekicFh3KFIwsHBwdfcGTh4ODgC2VOFiOa28HBYUKUOVm4CNzBwS9cGOLg4OALjiwcJJfJSC6dkmwyLunhfsmm05IZHpR0YljS+hmL2BwcHFmUE1jiraRgSiqpJKEkEApJqK5OwvMXSGTFKqm+4FJZ9pKXy4Uvf6WsvuBimbdsuVTW1UsuGJB0OikpSARSSSb0cJmRAwMX0s12uOXeJbrc+6TQ+uWUFEzyNqtkENDxQEtAryEQjUmgQkusQoKRqAQi+r6qUoLVNRKsqtair7V1EgxHJJVKSW93l/RRerplaKBXUoODktAyNDxklnMPDgzIsJZsJqUNpcTBOoygnovXQMi8P5PhlntPDo4sSpUsqMdoXXjVkV2dFKUAMUgoLMZXIYiwEgMEUV8roYZmfa2XYEWVkkeFGr1uy372WJ7rw+n5Lr8UK2dIYXhoSI51tOv7jLQdOSTdrS2SiavSiA9KPJE0i7pSyaRyh4YyGVUyqA9tQ0NY5piQF+9OPxxZTA5lThbvU7I4XHpkAQvgcCgInBCCiESUFEKqDJQQ5syRYE2DhBubJVCppKBKge2Kj/wy8oC2STI+JK1trRIfGJTuY+3SrYQy2Ndj1Eg6Pqztpltru+eUnFA+OQhkhIZOFxxZTA5OWZSQsjBnViMNVlWpOmgwuYaQKoRQo5JDdbUSRtQoCgkSBqgbGoKYKXdkqbgSgFbSkgGJ01QiLr29fdJ+tEW6249Kb3+/DHa2m3AmqzLEkUXpYDqGG4dpQEi9qlfJoKVpjvQsXy2h9RdIxfoNEll7noTmL1AlUaehRqUhjECQ0AJjnklX5N4RJbJgSPkqKhENcaJKZFX1jTJfnWzt5ZfL5a+6Xq694UZ57fU3yNUbLpJlTQ3m8YAOpQFHFiUCBHt3X6/s3LVDNv3sYdn4w+/Jxh98T7Y8/pjs37lDers7dWTPSEidNWiSjCOhyoxCz8c5VdkQKqEushqKZI4clMCe7RLY8rSEnnlSYrt3So0qjErd4/TpNIfJwoUhJRKGRNQJt/Z0y47uHoknE6a+zGhUqaKorKmWGn2tamyUmoYmqa2vl5r6JmlobpKKSg1PdN+cSn7zQBpT/yJdgwl18iGPOXZ8SLL9fZJRgsgODkhucEgyQ/rK54mE5IaHzbQtFBbX7XcPDMg2vZ7ItORTJoYLQyYHl+AskQRnnix6ZFdfv3m6FQ5HnTOZ1EiOICchJY9YTY1U19RKnZJFXWO9VNU2SHVDo1TX1mupUWKplYhuZ0hDy4sEMgEgBqMcRt6ziIsp1LgSgL5mlCSyQ4OSHVCy6FWyGNLvkkkaO7+9loCqHvOqh+DJW7t0H0cWpQOnLEpKWRSQxRhgqjLLoitIQK+TtRX1c+ZJ49z5WuZKY/Mcqaytk4qqaolVVKryqJJwNGryDXnSGCEPHBzwChmlk+owqg4ScZFUyiiGjCodQw593ZLp6jbb2f0MMZxknYUji9KEUxalrCx8gvUR+YVaCj0Oicc5S9Tw58+XefMXqgJpVvKANGISjoQlFI5IQEknp6TAYisIItPfK5ljHZLqbJdcf79kVVEYcjDHzE/f+oUji9KEUxazTFn4gl5DLquqAxWg14cz1Kr6mL/ibJmr5LFgwUKpHFByaG+TTGeHZAeHaLS84tByqo7iyKI0cXp6yeH0QkmC6dUcoUcg/9rf1Sl7Nm+SLRvvk333/1j6n35SUgf2SVZVBESR3439nMmUK1zPlytw/BHnzxNAQNJKCnENL5ID/RJMJc3KTLvtccWhLFHmZHF6QorJYwacVI9PUhJ5nSeQkRvBpvm8etaRdw5nOsqcLM5UQ32RHMz9FBovZ4b6zRqFaeW3GeROTmWen9F/TDKJIcmmk/kvzHU7AjkT4cKQMwlMUTJzoc6TGx5QckhIsLJSwnPnS2TVORKct0AkHDbblTJIlDJd27B4sSxYv16qeZZGZbWkNfxJ9XcpeQwY8jB3rBo4AjkTUNZkkUur0xm/Ow2GSD4Ap1flYArvNQQIVlRKqKFewvPmS2zlaql66cul9sa3S8NNH5KKK66SXGXMTIWWMlBLseoqWfWq18krPv4ZufBd75WVr7pempeeLXVzmqWqqUEi1TUqMoJm5iqbHtbXRJ48bB5lJoF52P46Dac/U1CmU6cZ6dizU+7+8Afk2ME9Eqmr00/VIsaIz4s3dar7sSv7cx6KHjsAWzENV1UrkYWLJXb2GomuWWeeWhVunm+qJSPrGJ742pfkmW99VYba2iQUjZmjFhP84FAkFBz9YeRwUJ11GpyTcCrU3Cw1N7xZ6t74Tv1bQy1ti6GhYek9tF96tLTvekFat2yWnn17JDPQpvUISy4Y1bbQtjJVyrejyXmM0W9+4GvqdOT6c8lhiSxbnp86XbK8LKdOy5IskMEDfX3y3He/Idu++xU10IMSqqyXYPhEBywWWXC7tuprngwjgViVhOYvlOjKVRJdsUZCCxZKZuEyqdDjI895/oR5BoWZpXgRT379Ftl8262zhyxe/xapv/EdI5/m+wUi5xmgrEJNxuMy0N0pXXt3Se/hA9K+8wVpe+4Z6d+7T3LxpATrKyUY1UJbGValrv6JwxdZpOJa36RElCCqXvNGCV99vVSpLZg1KmWGsiQLkFFJGe/tll5VFgefekJ2PnivtD67SUKxSglXVOkWeWOYClkYYkgrMZCQ1H2DdU06Kq2QyFkrJLxgkUQWL5NQY7MJOYKVei4lCJ5oxd2i42G2k8VYyGo/peLD2pwJSQ0NmIfpDLS1Sue+3dKhfdexY7v+fVSGW/dLJpmSYKza9GEwxAN/tA9N9ce+hvHIwiSTNeyJrFgp0cuulNgFl0ml9pvU1Epogn6arShbsvBisOuYHNu9XQ4/9bjsfuRBaX1ykzpxVCLqMNlgyPz6+Jq62hPJQg3ZxNGUlMbUqbR5MlVYw4nw4qUSmb9AQvMWKkEsllBdgwQbGs3zLkNqcJMZAS3KkSzGQk7/Dff2ynBPlwx2dkh/5zEZPKLhy5FD0nXwoHTt3ysDhw5Jpq9fQlUBJeUaCUYqjAIxjxE0B8lJRo9DnxqyUFKnXrn4oPk6et5FUnnhpRJde66El62UUEOT+a3XcoYjCw+GVGkc2vRzaXn8MWnbu0Pat29Vo+yRupp6WTNnjqxTdZHBoMw0nxqOGl+wLp+MDDc2SahWQ5nmuSbECM9TouB9vRJErCJ/glOEI4uxQY46OTQow0oaPUePSP+RgzLQ0qLt1CqDva3S09qmA0K3xJVc0qpOgkr+gZCGe9qG65qaZGVFVNCSUlUt4aXLJLxqnVRtuEQqVq83/eeQhyOLMYDsPaQhyd6HNDTZukVS7W2ySOPo8xYvkYAqDPM0bFUKPM4uvFCJYckyiSxcKmElh2A1qmF64MhickgND0n34UPSsWeH9Knq6Dt8QPpbDugA0CfxgX4Z6umR1Ur4qxbOl/qlyyWq5BC9+FIJr98gMcJDh+PgyGIcZJIJObJtixx44C4J7t4ha9auk+iKVRI562yJLFoi4aa5+edezhAcWZwamIbtb2+Vjn27pXv/Hmnd8ow09XTKWedfKHNecZ3EzllvHk3oMDYcWUwEdZZkMinpVFIqeVI2cauNXWc4hnVkUQTo9Zgr4lVLXNUHDwOKkGQu85zERHArOCeCGlA0FpNKFgkxt64OZIzKGVZpQvvN3kBH7oJ+jWj/uv6cGI4sfKIc59XLAa5f/cORhYODgy84snBwcPAFRxYODg6+4MjCwcHBFxxZODg4+IIjCwcHB19wZOHg4OALjiwcHBx8wZGFg4ODLziycHBw8AVHFg4ODr7gyKIUMVtuZ3D3O5cUHFmUEuxNTzySvpRhb3t3N3GVFBxZlBCi1VUSSmcl1dkrpfrbITzMmOdcBqIRCdbyEwwOpQL38JsSAg8W7ti+TfY8+rDsfOguGTiwU0JVjRKKVuZH6VN8UM20PfxGD5HLJM1DjUNLlknVZVdJxUVXSHT5KgnV1Y9s5HCmw5FFiSGnIUhfa4sc+cVmOfTko7L3Z49K3649EqqISlgd3DygZ4oOXlSygLxQEYlhmELCZ62UqkteItG150l05TkSnjNXt3HCtpTgyKKE0XVovxx84mfS+tRTcnTHVuk5skcy8WEJVdblfzdjko5eHLIIKDekjYoIVFRIeNGS/K+srb9AKi68VMKNc0a2cyg1OLKYBRjq7dHQ5CHZ/8jd0r7jORlo75VUf7+Eqkd+bMcnTpUs7I8rBapqJTx3rvnFtZiGG/z+Bj+T4FDacGQxizDQ1Sn7nvip7L73R9L25CZJ5lIaCajzBkKmmNBgHEyZLMwPFutrNKrhUExVxPlS9YrrpGL9hRKsqs5v41DycGQxm6COzROr+cGdo88/J89+5xvS8sSDkoyntKf5yQIeVAthjE0akyaL3ItTuMGaaoldcLFUX3uDxFauyf8so5sanVVwZDErkZNMKiWJwQFp2fqMvHDvXXLg/ntluKNdwnMaJRjkF8BPdOTJkAWJVokPmF9dq3zp1VL1smslsuQsQxLmR50dZh0cWcxypOJxGerpku59e0xeY+fGH8vAgR0SqmqSUKTiuNHfD1nwmx/8snho8TKpuuJlUrHhckMSTIE6kpjdcGRRJjBTrm0t0vbCVjm65UnZ+chD0rt7qwRCMQlV1Jop16yGFREliOPJQnfmB6CTQyY3EdYQo+qSKyS69nyJLj/b/Cqb+S0Vh1kPRxZliL72Njn41M+lbcvP5dAzz0j33p2SSSQkUFknsUhUyaLOkEVIVUU2OSyBWIX5PdeKNesleu6FElt/gZsCLUM4sihjmCnXnz4sBx691/xifF/bMQnG++Xc5vmysrZGojV1Epw/X2Ir1kh0w6VSecElbgq0jHFayCKrsjaVSkk6ndaQOR8z8xpl6o0ViA4zCjPl+vjPZM/GH0n/85tlZaxali5cJNVrz5PKK6+RivUb3BRoAeLxuAwODor6T/63cEdsORKJSCwWk4qKCqmqqjLviwX8JqEKEN8B4XDY+AyvM4HTQhbHjh2T3bt3S0dHx8gn+Qu/+OKLZb6OZA6nByiN1ueekdSeHbL40pdK9crVGppUjXzrgJNCEP39/bJjxw7Ztm2b7N+/X9rb22VgYMAMdE1NTcaGlyxZIuvWrZMVK1ZIfX29VFdXGyKZLJgKHxoakt7eXuM3LS0t0t3dbYijrq5OFixYYM5nzzGdxHFayOJHP/qR/Nu//Zv84he/GFUWXPx//ud/ylvf+lbzt8PMA8PMplOSS2ckpIZt7jPxzJaUK2gXSOL555+X73znO/K9733PkEMmkzEF22UbEAwGTYE4eMWRX/WqV8mv/MqvyLnnnmuUht/fV+WYEMQPfvAD+Zd/+Rfp7Ow0n9lzcRzOAQn92q/9mvGdNWvWGFXj9xyTwWkhi7/+67+Wv/3bvx29aIuPfvSj8sEPflCWLVs28omDw+nHoUOH5H//93/lq1/9qvT09JjiFzhzbW2tnHXWWfLGN75Rfvd3f1caGhpGvj05CGseeeQR+ed//mfZvn27HD169AR/8QJFw3l+9Vd/VX7rt35L5s2bN/JN8RD68z//80+NvJ8R7Nq1yzAzEq4QxIFr16417OjgcCYA2f8///M/csstt8iRI0eMjVrMnTtX1q9fbxSDtVvCD8IDCAXVgYOTZ2hrazMhC+/ZrqamZuQoJ4L9UDB/9Vd/JZs3bzYhCEAxXHDBBfKyl73MvHJ+FATnInfCdhALdTzvvPNMWFJMzLiygKEJQZ577jkTZxHXPfXUU4ZJkVN/9md/Jh/5yEeKmhhycJgKcHRs9fOf/7wcPnzYfIZSuOSSS+SKK64wJLFw4ULjlIQdOC5kQE7jwIEDJmz56U9/Kjt37jT7gqVLl8rNN98sv/RLvyTNzc0jnx4P9vn7v/97eeCBB8zfHPelL32pvPa1rzUkgWqgHpAEZPaTn/xE7rjjDnNewPfvf//75eMf/7hJgBYLM6osyBrfeuut8vDDDxtyWL58ubkoiIMLhVFh5dWrV8uiRYtG9nJwmHlAFIzSkIVVwZWVlWZU/8AHPmDk/pVXXimrVq0yYTMkgKrAplEOl19+uZx//vlmQCTXgFODvr4+aW1tlXPOOUfOPvts85kX5Eb++7//2+T18BcGzQ0bNsiHP/xhc04UDARFYpNzcQ7ORxL04MGD5pVjkHR9+ctfbggJYikGZmzpHUkgGv+FF14wkgkQu73iFa+Ql7zkJaOSCZXx6KOPmvcODqcL2Otdd91l8hUWOCWqF1UwZ87Ei9Igkd/4jd+QP/iDPzBEYp32mWeekccff3xUCXixdetW8739jlwEA+oNN9xgwpCxQL1QK1ddddVoYpOQ5N577zVKp1iYMbKAqe+//34jzwAhh2VIssUkZwAM/PTTT4/GaQ4OpwOM6k888YTJNQCcFmfEViezFogwgMHw13/9148LCZgJpHiBsn7ooYdk7969I5+ILF68WN7whjdMGJajbAiP8CmAgtm0aZO5jmJhxsgChvvhD39opBJAvr3uda8z0o7G9GaI9+3bZ+Kw8bK/hWAkoLFtKdyXz2g4kj8oG16pE+HQeOfhO+bX7X52X47FOacCjkl97HELj029+M7P8e2xilUmc05ve3rbhe/Ga9NCTNR3fF/sPhgPHJPQgYHNjsxMgSL5pzIliQpBQXvJgkHREhHgmrkuCIoQgsEUAnjlK19pBlI/52V7kp6AtuEchCTFwowkOKn4z3/+c/nQhz5kFmMBGJokDtlk4iyme+655x7znjjvne98p5k28htvEQfSyHQ0nULDkXGmkTE0ZmFgWjLSGBqLV+jEyy67zGSOyZWMBY5JRppRoKury3wGwZFXufTSS2XlypWTXggD6yNvqROLe5izp44YDCNIY2OjiUdpG85zsjZge4yBY2HUUzFkL9ifVYdc03jnpI+oNyEj5E/d2Ze60+44FYnrk7WpF+zLWgIW6NF3nJfR1Cb/IHOSi08++aSxHSvP6VvqyUI+Xqey4OlkoB6ck3UL5NMAUp9pT0ICvzbpxZ49e+TNb36zGQghRKZS//AP/1B+8zd/c2SL/Hk5H+E629Gm5EUoftTM7bffLv/6r/9qwhj2JS/y/e9/34RDp2obYEbIgg7+zGc+Y+apYWwa+73vfa+5MDoZg/jWt74l//iP/2iMEJD9/a//+i+jQPw01Je+9CVzDAwZg2VWhcwxBPHNb37TvOKkOBedZY0bx8QQfvmXf9l0pgXbMWV29913GyIiLIL0APWB7TFYmJ+4FIOdCDgW6grVxDQc56BtLFFQODZkRw6HcxCmIWE5D47sBfuRfIN0Ma5TWb2HoXI9tPsf//EfG0IsBE7NlB7hJG3CSkLam31pT/qVOkL2tOtrXvMa43DE6ycD10/C+z/+4z/Me66bQeVNb3qTcRySfVwjZML32ArgWqkvpALZ00YXXnhhUUiDfsBOWUhF/oy/Ub5vf/vbTVufLHcwHmgnCM/Wn2MwIBS2DbbJtrZduUaKH2dnUSMFYsK2mbFh9tFPfsUXIIvpLi+88EJOOzKnHQwx5dauXZv7/Oc/P/q9NkxOSSKnUs18T9HRJffZz342pwZ53LFOVpQccmrgZl/tgJwadE4bKqdGl9PGHj3uWIV6XX311TllZlMXlZ+5m2++OafsP+b23qJOkVPjNvuo849ZNyWa3H333Zd7z3vek1NSySkhjHmskxXt9NwXv/jFnCqIE47LdSo5jrnfZIsaWE4JM6ekcNx5lGRzDzzwQE6dJadKZ8x9xyo6ouU++MEP5h588MHjjuctSjq5L3zhC6N9p4adu+WWW3IbN27MXXfddTlVJycct7Aoqeauueaa3B133JFTQhnzPJMtqiJzN910U06Jz5xDnTWniin3jW98Y8ztT3fRkCanhGn6kPrSjh/5yEdySrJjbj+VMu1TpzAkcdjXvvY1E5MB7Vh517veNRpfwZpI1meffdZIMEZwCuECWWA/i0tgbWQx52BUZMRBlpEwYgS2YQOjEEqCYxJWwOQwOPEdIyVr+dUgjFIhBKGOhCpMX7EfU7rMb1M3wCuSlZiWYxeO7pyb+XZCKhaj2SW7JMxgfupEYuqiiy4y8/aMNowK3lEUFYIqYaqNYmUwx0EtkRDjmpGbSPiTFTu1R1twnVyHjckBIxDJNGSvvQ7O8bOf/Uz+6Z/+ySw7tqEY7YdyI99EKMCozjHpRxQI7Yoaoz9pV9qROhRKeM7POgQlFPOe9mXUZY0Bqo7PqDNtxDkIbzgOfWaT4NgK4SXhHApvPCXjFyg8+nbLli2j9zDRJ/QD1wNo80K1dzpAP7IkgbUW2BdAkf7+7/++aTs/ytwPpp0skKs6KpopIYyfir/lLW8xS1+9FwFh0OnE8TgHxobjM1fMhRc6YSEwaKaj2AcHJb7FSXEAJDw5EAjq+uuvN8ckvIHIIAQMEuPDCDAMwiX+xnnf9ra3mXX3yGJVH8YxMGacBkdlO4yKfW+88cYTiA0iQRpCXFwToAORtIQvti2oFyQKgfA97UHHU0dAMoxMN3kMby6AdoGomNdnDYCNcccqZPM5B8k22gVy9ho+3xFDczzr1GxDuPjjH//Y/A2oH/UllKRdX//615uQA+KAUAF1J8yiTwmRaGcIkfDESxi0PYRCaMN7rgdb4bxcJ31FH3AeiOzVr361IQ7IB7JgGbQFbc110U9+ZPtEwO4gYkJjbAr75RwQG/3BNUKMkBR1B1zbRLZ6KsCGqAs2x/mxcaZICeHxG0AYiL3SPww8RQPyYjoLElTjyFHJqKNR7rbbbhtzWx1hchonjm6LBP3whz9sJP5Y23vLX/7lX+Z0tB7dF9nI/squOTW+MffZtGlTTo18dB/vvshaQoex9kP+f/rTnz5O/uuImNP41kh277bf/e53jzs2slad74TtCguhG+GNGt7ovsjye+65Z8zt/RbCLNrjfe9736jE5xy0w1133XXctkj6D3zgA6PnV0cw4aHG7SeERN6ixGDCQiW30X0JBT/+8Y+f0JeEIYRYti62EFq84x3vMO0wVnhH3QhVlJyOC+sIlTRmP2H7qZZHHnkkp0SV00HguPrZosoipySY++3f/u3c5z73udydd96ZUyVtwmpVqzkd9cc87lSKklJOFbSxKR3Qcp/4xCdyqnpHbYRQbt68eaYuSmpjHuNUyuTTupMAzA/zecHoR7Z8LJCY9I6cMLY2jMn2I4cnA5KEdvQba6UcIGwgvICJLRiRSCzaRS5jgWOTDCU8sWAEZQSC8S0YdVBKXgVFRp0RcqJEHKP3u9/97uNGBiSwdySdCpDrX/7yl027oowA16HkYRSYF8xgMepboApIJFIvRvCTgfb7vd/7PaPkLOhLlk1z/kKMpQKuvfZa+eQnP2lCq8LQBTB6Y0fqMKPhLEAZkuArFlBsLKoi2UnI4Z3+BOpEZqaMROwf/dEfme1ox9/5nd8xCXIS66hrFKINK6cKwg0SrKhSVpHynpk6e1xWd/7N3/yNfOpTnzJhbrExrWSBk5NNRqpbQAY4wsmAxETOAhsaIEltfOoXdCoSHwIaD2T/ib0tMAiMHDk9lpFaEJ8jUy2QhzYHYkGMizylEyEHSIMcBTG3H1AX4m9LNpAPBjNVIKGZMfrKV75inBdwHRAFBFYIQg87dQioC87gxxAhYGaYVB2MfJLP70BANgdwMhAiEhJRt/H6gHCQHIaXULGXUyXUQnAOiIDZOUiMkA2CozCIeUMDyANi4P6Of/iHfzDtxYpPbjEnvPIOJpMB5+G4FPwCu+KcXt/ib0I+QvCpnmc8TCtZkLginqIx6XSIACf0jrSFsKO9BQ3AXDGj6mTAdBM5h4mSo4yWVskAnJrRxPvZWGC7wnjQSxQAMmEUZiQnWfd///d/o0ToB9QdcrWjGeqF9pgKUBEkKL/whS8Y4sX4uAaVrCbX4o2z+Q6nY8rSJjTJl5CbIAE5ngN7Qd1pSwuOyyg8EVmwPoBk5kTAjug/bpyyNoUTQdLFBG0DwbOIkEcrkEzUsNfc2MX5xwL1gNjJ1XDN3LWKqkRd8dlUwH7YJXkcFDODmtdXyK+Qb+MxDywd4Py0ebEwbWTBhcGkVhFgYBgbmfjxwCwGI729kQwHZDZlLPl6MuBcKArk8ERgW6+jYHRIXz9z6WPJZy8YgagHhm+XCp/MuAqBkxLWkMSyowev3pHELyCY22+/3YyMXkPl5iTUV+HzFTgHo7NNfgKkPipsovDJC9qQxUfsa0dhbIJr8qLQoEmw2v4fDxwTQqWfLVlwrKm0kR9wHlQGM3Qkvf/0T/9UPve5z5lwgHtGSCrivIV2gQ2TECVkIFzheS60w2TAMbEliODTn/606Tue/0LY8e///u+mH+kbkpyowdtuu80QBuctFmFMG1mwiozFNhZcLCMNBsQoB4mMVWBkRjHb6FwoIwX3i9hs70Sg0bzyfTxAYt7O5W9Uid/Rc6rgunAaSJC8ALM5KCjiXOQrBoVzM7pbNTHVTrdEYVfPooi4g5HViGNNM3IeRn+visEpMdZCR5gIjPo4GPvhxOQTCKe8KDwm4ZcfogcQPdcz3f3lBefkuggpWXSGA7OQjNwG4Qq3hjPyMzhAfF7Q3yyU+va3v23CwsmAc6JMIW1CW1Q4+RH6kdWghH1sA1AVnINV0cVSWtPWwkgv1j5YYCjEcV//+teNLMcpCguxNHKNOXam3bwgnCF34Qd0JiO4H7IYywHZfzqMD3Jg3p5r+drXvmauFSdm9SLrMCCIv/iLvzCJPT4nZ+BVFpN1VEY02pyRxyaaIWvibowaBTUWaBOMjbDHAgLGgSdbB4gXdWH3o19tvuRk4FxetTceqCv9PNl6FROoU8IUQi5GePqPB9dAGkxFM1Vtb/AC5B3uvPNOE5oWC4T4hJRMkVtA9hAT6qIYmBaygDGJn7wxPO9xCowU+fYnf/InJxQ+Zxbi7/7u78wjxbyOjJOhVlAefoBTTMWA2Id9i0kWJJtwVpKLxLokFK2cRMZCntwOjYpg1MX4MC4SfIQIU6kL7c3xiLHtjAZOyDqOj33sY+MmD2l3VJ5XWbAt+08WXAuE4UVhvxQSNueazDUX7n8mgNkicguEAuQpyF2Rw7LXhX+gJpkpKRZQGhCTDXUhe2ZjmGjw+uJUUTyP8ICMN8rCC0YKjG0ypXB0wegLp2KnA8U0PkZSZoQgB1QDspBcAEYDKSHvmTmgg8nXMNPACIWs5H4aZCbbTQbUHwMhnsVYLMEy+jClB2FMNHKjZrztwPuptAv7FMNQZxJMRRIqo64IxwqJc7JgdoccAzND3vCKpD0DYDFBmMLCNS+4e3YiNecHRScL2Azn8E65YezMTJCHINnnp5DkLLyJjBuwWL5dSqDOKAlCKOQnzgNREP+z6vGmm24yspUQjOXghA0kp1jdyToCv3LcC4yQVZeoM2sktD95CjL6E4VnjPwoGlSBBeQB6UyWMFBVON14OJ0hRCEgBfIqKDKIlbwDxI1KOxUwENDX3gQ3fVOY7AW0cSFZ+wU5C28eimNgd6e6xgMUlSyoGNOlSCzLxGTCSf4wZUcmmDh9osJ25DBI9DGjYAHLoyzGauAzERCmXa9v24OpYxYScf8JWXQy2ixlZokyy6EJDzAsqyaYvZjMyMwsxu23337coiv6AKJgZEOx+QGhg5eoqANrCCYLlBX33VjDR0V5F8GBqTjFdAHiguB4rB25JRbVkRhGqZ0KIGiSnd42JeQsnOXDTsgxoMyZDZss6F8vyQPatxhtXHSyYAaEhSEWMCmrHVEVOApZ3IkK8+xMsbKykPsCvGseIKPHHnts5K8zG0hMe08FRggJkIQie00mncVp5CZoI0ixUEXgnIReNtHIyD6eHIaUUCfkQHhPf3BeMvOs+ivMHZwMKB/ia+86EkZB+tUmW/0CVUGfUReOy2ra6VhdWCzQB5AZU9eMyABVwfT9qaIwEcu57KDAyM+MH48HICnKIMIAi0qcjKNjM4WTA5DHRGrSD4pGFlwQlUR22ykhGgOHIJyYzAVbYKxMB3nJAue57777iiKrphM4NqO8leC0hV1rMd5SaS9wUPa3bcfofjJnxUh4VgZEQYxqQWKNVYR+1i1Y2DDJ2+6MgtzVOxnQR9gCipBrwFEgi0Jl4XWgMwFcNyrPOjL9QIIdxTxV0G+oRK/dMkh4+4X+ZSaQwk2R+BLh62QIGhXnVSu0O/ZWuIBwKigaWdAIPIwX2WZHQqaTkNeMaFMxCC6QuB3CsczInDENiENMdpSbSdhlvxbUn2z1RCtKLUiqIUW9JMv7sUgStcFsCiGcTQBzPhJdJNZQdJMBfYVDk+ewC7ZQKig6b0gxEagLORi7Pa+0QSFZ+j3eTAGSYArUm1/AtgmNp7qUnJCQkJR+tUC9sQYF0F+oaWzd+gozJdyN6zf8ox3trCGA9FGz+CFrV04VRSMLCIIR37vqj3n86667bsojB/thrNwn4F3cwkh1pqsLiMzrBPzNojI/a/YZYehwQorCfEVhGML3ODH3HrBCECA7mVFhapaFcFNtf27Es8aMUsIQeVKWXQI+HlCZ9BHGDqgDJEG9vDd+nYlgkGItCooYhwP0HXkmnroGcfi99wIbwF5pB56RYpUmfQQZ2/a1ts6MlbV1fAmVQXgyka1zHma+OI9dvMg58J2xFt5NBUUjC4yDmQqvISGxYEvb4FMBjIt09960hbQlgVcYm51JQE15RyY6m3wOygsHH2s0hVAYReh0FtNs3LjxBLLwgu/I3DObYokCo4MgWLdC23Neq3L8FLZlH+rHFCuzUlbVoS5IOtPPOEChAbMPZMboCamw8Ih9AO3BaE2d7PHOVFA/BjpCYHJoFoz0rAFiwRVtgNzHobFD2g1CpfAeBUzoRpKb+zVYoIUqo4/pI8iIgdSGOhaoQfrPgnZmUR12w7EL7Ybj0W+E5/SNXejFOfA/7hJGXRQDk5+XGwM0jo3p7MjHBROCFDbGZEHHkQz0kgVOQnYamc68cjHisWIDVsfQcDbqSadCcnQ8nUvbeEMSvicLTmezTBfn59ohWuu8hWCUYhEbBmm/R8YyPYpzMiJxLoxsPNKx4Bj0F/XmOKwJ4B4IBgCcHyCnmd3ic2ZXCHG4VupPbI9DMA3MddgRjgw925G0G+uOWwz7TAM5Jqa8IT7yQPZGRtqTkA8ixwkZuSFVVAG5DtqQfQhXmFEhz0Pb4yO0Ef1J3obZqcJHAtAOLOVmcGQmhPazgzCJce4/YaGXXavBcekbVkqzJodErLUD2pmpWvuwpmKgKGSBAfH0IO9Ij3Hg5MUAHcfNO5CRXY3IOVngRAx8JpIFIEnGTJBdoEbnEjIQy+OQ9q5YQjiIgs8xEEYrHIzZIAwRY7WxLq84JWTAewwEA7bAWYmtbx95MhcGSvEDtkcCMwoyKlEH1rxADFYSW2dg2T7OwAjMcm6IzSbXGIEZWe15uVbWLZwsyWoN/EwDJAhh4MRM59uZCasgsEGUE3bI9VMA5G4Vljdc4TgkjmlfVMVYYBvUAMdmdS8kQ/8SljIwQOJMr5NT4tzk72hr2pz+A8ywMR3PcfzeY+MHRQlDYFHia+8NK8RJXjl1qoBRkbAWdAS3fNv5bzrIJlZ5P5ZkOxm8zmQb3A8K9ys8HwtkkN6MxHb0pONxKhausfgKiUoszLVgEGTMcUAM47Of/awhG8jSgsSunX/nnBiTF1w3hkN4guNi4CgaP4V+5PiQvr0WHIDRjmX6jFR2lELVMJVKApO6E3IQZlE3+oa2QQ0yIqKmIL2TrfHgXN5290tuFvS7VbTe98UA+ZX3vOc9pi9QA17no95cK/2JHdLeFNoS8vcSBVPjPLCGxXI8O8Q701QIFAvTp4Q85DAA18VxWR1Ne2M7kDX5Ez63ISFK1t6TQo7I2l0xcMrP4KRBiKe45dayHiRBgxSTLGhcDBRn4ByMZuQEWL8BMdFgjLi8R9UwItLQE0kwRkw6m47nYa8ktVAxnG+ihkbpIAPZh7UhOATntkqH/akjx8UAGA0gC0YNHIL31BnnZEQnpCKEwCh5xgTHIouNAbI2ARLBAZGYfMd+GAufcQ7a5VQKox7HhZjpS+vcjLCcE/lMu2OEtCv9gRHbkRaH5xqRvjzrgdGNuzIxYC/heYFjQ5DE5vQd10KIRr+ebB8vOCe2h9JifxKGnN8mDosBjs212zamr+kvHBSyKBwkLNiGG7vIQ9AOhG30sZ+wAPvjPFwTx4FsIHM7EDJI2MGRfuM8PAIC26HtvWF7sXDKvxtCpRm9cBzbuRgMxmZvly0WcBpGMxqMDsLhMF46kTrwPaAeOCfyF0MfD0g5e9s0+xFTkrFnBJmILAiJ2Jdz4Fh0LA491jlxbIyaGJZ62tGbczJ6YxiEJYRV3kVLXCtS047WFOQ8U8qQDvEqn51KEtkCx7N1QcqO5axsY6fICa/s8zH4HJLESLkGS+ITtSEGT+jFwi22hTwgX4qV9eOB9iE3Q1sAHJHz4tTTAdoaW8EOuX76H8IH1J1roN3oW66BUBRFPFauxi9QKeQEWXfB4MaxaW/OBYlwfAgZm8D3pgsz8iNDDrMfGPBExDDbgQMDPyR3qoCYIKWZbHNHFg4ODj4g8v9QluRu3GUMQQAAAABJRU5ErkJggg==;" vertex="1" parent="1">
          <mxGeometry x="675" y="220" width="90" height="68.43" as="geometry" />
        </mxCell>
      </root>
    </mxGraphModel>
  </diagram>
</mxfile>
